<svg xmlns="http://www.w3.org/2000/svg" width="28" height="26" fill="none" viewBox="0 0 28 26">
  <mask id="a" width="28" height="26" x="0" y="0" maskUnits="userSpaceOnUse" style="mask-type:luminance">
    <path fill="#fff" d="M28 0H0v26h28V0Z"/>
  </mask>
  <g mask="url(#a)">
    <path fill="#fff" d="M22.828 23.111H4.908c-1.12 0-2.092-1.02-2.092-2.158 0-1.139.972-2.158 2.092-2.158h17.92c-.412 1.291-.56 2.889 0 4.333m3.772-.017h-.84c-.708-1.155-.708-3.025 0-4.333h.84c.84 0 1.4-.578 1.4-1.445 0-.866-.56-1.444-1.4-1.444H4.908C2.24 15.889.148 18.047 0 20.8-.148 23.689 2.372 26 5.172 26h21.412c.84 0 1.4-.578 1.4-1.444 0-.867-.56-1.445-1.4-1.445M14 0 2.8 4.333 7 5.913v5.625c0 .867.56 1.445 1.4 1.445h11.2c.84 0 1.4-.578 1.4-1.445V5.913l4.2-1.58L14 0Z"/>
  </g>
</svg>
