<svg width="25" height="29" viewBox="0 0 25 29" fill="none" xmlns="http://www.w3.org/2000/svg">
<path fill-rule="evenodd" clip-rule="evenodd" d="M20.8879 9.5C20.8879 9.5 19.8715 9.5 19.0638 10.0039C19.0638 10.0039 18.8115 9.47383 18.3628 9.02513C18.3628 9.02513 17.3377 8 15.8879 8C15.8879 8 15.0704 8 14.3879 8.32597V3.5C14.3879 3.5 14.3879 2.05025 13.3628 1.02513C13.3628 1.02513 12.3377 0 10.8879 0C10.8879 0 9.43819 0 8.41307 1.02513C8.41307 1.02513 7.38794 2.05025 7.38794 3.5V14.9246L6.51684 13.4131C6.51684 13.4131 5.79223 12.1559 4.39088 11.7793C4.39088 11.7793 2.98953 11.4027 1.73233 12.1274C1.73233 12.1274 0.475133 12.852 0.0985364 14.2533C0.0985364 14.2533 -0.272514 15.634 0.425448 16.8748C0.425448 16.8748 2.05686 20.3102 3.28387 22.3596C3.28387 22.3596 4.70841 24.7389 6.09868 26.1328C6.09868 26.1328 7.60223 27.6402 9.38226 28.3296C9.38226 28.3296 11.1133 29 13.3879 29C13.3879 29 15.576 29 17.5975 28.1627C17.5975 28.1627 19.6189 27.3254 21.1661 25.7782C21.1661 25.7782 22.7133 24.231 23.5506 22.2095C23.5506 22.2095 24.3879 20.188 24.3879 18V13C24.3879 13 24.3879 11.5503 23.3628 10.5251C23.3628 10.5251 22.3377 9.5 20.8879 9.5ZM17.3879 11.5V13C17.3879 13.5523 17.8357 14 18.3879 14C18.9402 14 19.3879 13.5523 19.3879 13C19.3879 13 19.3879 12.3787 19.8273 11.9393C19.8273 11.9393 20.2666 11.5 20.8879 11.5C20.8879 11.5 21.5093 11.5 21.9486 11.9393C21.9486 11.9393 22.3879 12.3787 22.3879 13V18C22.3879 18 22.3879 19.7902 21.7029 21.4442C21.7029 21.4442 21.0178 23.0981 19.7519 24.364C19.7519 24.364 18.486 25.6298 16.8321 26.3149C16.8321 26.3149 15.1782 27 13.3879 27C13.3879 27 11.4871 27 10.1046 26.4646C10.1046 26.4646 8.71931 25.9281 7.51471 24.7204C7.51471 24.7204 6.29807 23.5006 4.99983 21.3322C4.99983 21.3322 3.81639 19.3556 2.21639 15.9838C2.20498 15.9598 2.19262 15.9362 2.17934 15.9131C2.17934 15.9131 1.86841 15.3737 2.03001 14.7724C2.03001 14.7724 2.1916 14.1711 2.73106 13.8601C2.73106 13.8601 3.27051 13.5492 3.87182 13.7108C3.87182 13.7108 4.47312 13.8724 4.78405 14.4119L7.52153 19.1618C7.65396 19.3916 7.87225 19.5594 8.12837 19.6282C8.3845 19.6971 8.65748 19.6613 8.88727 19.5289C9.19705 19.3504 9.38794 19.02 9.38794 18.6625V3.5C9.38794 3.5 9.38794 2.87868 9.82728 2.43934C9.82728 2.43934 10.2666 2 10.8879 2C10.8879 2 11.5093 2 11.9486 2.43934C11.9486 2.43934 12.3879 2.87868 12.3879 3.5V11.5C12.3879 12.0523 12.8357 12.5 13.3879 12.5C13.9402 12.5 14.3879 12.0523 14.3879 11.5C14.3879 11.5 14.3879 10.8787 14.8273 10.4393C14.8273 10.4393 15.2666 10 15.8879 10C15.8879 10 16.5093 10 16.9486 10.4393C16.9486 10.4393 17.3879 10.8787 17.3879 11.5Z" fill="#133778"/>
</svg>
