<svg xmlns="http://www.w3.org/2000/svg" width="32" height="32" fill="none" viewBox="0 0 32 32">
  <path fill="#7A6F66" fill-rule="evenodd" d="M23.5 10.5s-1.016 0-1.824.504c0 0-.252-.53-.701-.979 0 0-1.025-1.025-2.475-1.025 0 0-.817 0-1.5.326V4.5s0-1.45-1.025-2.475c0 0-1.025-1.025-2.475-1.025 0 0-1.45 0-2.475 1.025 0 0-1.025 1.025-1.025 2.475v11.425l-.871-1.512s-.725-1.257-2.126-1.634c0 0-1.401-.376-2.659.348 0 0-1.257.725-1.633 2.126 0 0-.371 1.381.327 2.622 0 0 1.63 3.435 2.858 5.485 0 0 1.424 2.379 2.815 3.773 0 0 1.503 1.507 3.283 2.197 0 0 1.731.67 4.006.67 0 0 2.188 0 4.21-.837 0 0 2.021-.838 3.568-2.385 0 0 1.547-1.547 2.385-3.569 0 0 .837-2.021.837-4.209v-5s0-1.45-1.025-2.475c0 0-1.025-1.025-2.475-1.025Zm-3.5 2V14a1 1 0 1 0 2 0s0-.621.44-1.06c0 0 .439-.44 1.06-.44 0 0 .621 0 1.06.44 0 0 .44.439.44 1.06v5s0 1.79-.685 3.444c0 0-.685 1.654-1.951 2.92 0 0-1.266 1.266-2.92 1.95 0 0-1.654.686-3.444.686 0 0-1.9 0-3.283-.535 0 0-1.386-.537-2.59-1.745 0 0-1.217-1.22-2.515-3.388 0 0-1.184-1.976-2.784-5.348a1.024 1.024 0 0 0-.037-.07s-.31-.54-.149-1.142c0 0 .162-.6.701-.912 0 0 .54-.31 1.14-.15 0 0 .602.162.913.702l2.738 4.75a1 1 0 0 0 1.866-.5V4.5s0-.621.44-1.06c0 0 .439-.44 1.06-.44 0 0 .621 0 1.06.44 0 0 .44.439.44 1.06v8a1 1 0 1 0 2 0s0-.621.44-1.06c0 0 .439-.44 1.06-.44 0 0 .621 0 1.06.44 0 0 .44.439.44 1.06Z" clip-rule="evenodd"/>
</svg>
