<svg xmlns="http://www.w3.org/2000/svg" width="32" height="32" fill="none" viewBox="0 0 32 32">
  <mask id="a" width="32" height="32" x="0" y="0" maskUnits="userSpaceOnUse" style="mask-type:luminance">
    <path fill="#fff" d="M32 0H0v32h32V0Z"/>
  </mask>
  <g mask="url(#a)">
    <path fill="#fff" d="M17.598 22.399H4.801c-.958 0-1.605-.647-1.605-1.605 0-.957.635-1.604 1.605-1.604h12.797c.958 0 1.605.647 1.605 1.604 0 .958-.647 1.605-1.605 1.605Zm-3.196 6.392H4.8c-.958 0-1.605-.634-1.605-1.604 0-.97.635-1.604 1.605-1.604h9.6c.959 0 1.605.634 1.605 1.604 0 .97-.646 1.604-1.604 1.604ZM3.196 4.801h6.405v9.6H3.196v-9.6ZM20.794 0H1.604C.634 0 0 .647 0 1.604v28.792C0 31.353.634 32 1.604 32h19.203c.958 0 1.604-.634 1.604-1.604V1.604C22.411.647 21.777 0 20.807 0m4.788 7.997v17.598c0 1.12.634 2.239 1.604 2.724v.485c0 .958.635 3.196 1.605 3.196s1.604-2.238 1.604-3.196v-.485c.958-.485 1.604-1.604 1.604-2.724V7.997h-6.417Zm5.597-6.393H26.39c-.485 0-.796.324-.796.796v2.4H32V2.4c0-.485-.323-.796-.796-.796"/>
  </g>
</svg>
