<svg xmlns="http://www.w3.org/2000/svg" width="32" height="26" fill="none" viewBox="0 0 32 26">
  <path fill="#fff" d="M31.978 13.943a4.571 4.571 0 0 0-2.846-3.771 4.388 4.388 0 0 0-1.726-.343H4.594c-.583 0-1.143.103-1.657.309A4.618 4.618 0 0 0 .07 13.623a4.629 4.629 0 0 0-.069.8v6.126a4.594 4.594 0 0 0 4.594 4.595H7.99a4.607 4.607 0 0 0 4.49-3.658 2.3 2.3 0 0 1 2.252-1.828h2.538a2.3 2.3 0 0 1 2.251 1.828 4.607 4.607 0 0 0 4.492 3.657h3.394A4.594 4.594 0 0 0 32 20.55v-6.125c0-.16-.011-.32-.023-.47v-.01ZM2.114 8.012a6.604 6.604 0 0 1 2.48-.469h22.812a6.53 6.53 0 0 1 2.617.526c.332.125.64.285.937.468-1.485-3.577-4.48-6.422-8.263-7.543C18.274-.33 13.794-.33 9.371.994 5.611 2.103 2.628 4.926 1.12 8.492a7.96 7.96 0 0 1 .994-.48Z"/>
</svg>
