<svg xmlns="http://www.w3.org/2000/svg" width="35" height="32" fill="none" viewBox="0 0 35 32">
  <mask id="a" width="35" height="32" x="0" y="0" maskUnits="userSpaceOnUse" style="mask-type:luminance">
    <path fill="#fff" d="M35 0H0v32h35V0Z"/>
  </mask>
  <g mask="url(#a)">
    <path fill="#7A6F66" d="M17.5 29.09c-4.81 0-8.75-3.924-8.75-8.716s3.94-8.718 8.75-8.718c4.81 0 8.75 3.926 8.75 8.718s-3.94 8.717-8.75 8.717Zm16.92-17.145L18.37.33c-.58-.439-1.17-.439-1.75 0L.58 11.945c-1.17.727-.44 2.61.88 2.61h2.92v15.98c0 .877.58 1.455 1.46 1.455h23.33c.88 0 1.46-.578 1.46-1.454v-15.97h2.92c1.31 0 2.04-1.894.88-2.61"/>
  </g>
  <path fill="#7A6F66" d="M19.69 18.192v-4.354h-4.38v4.354h-4.37v4.363h4.37v4.354h4.38v-4.354h4.37v-4.363h-4.37Z"/>
</svg>
