<svg xmlns="http://www.w3.org/2000/svg" width="32" height="32" fill="none" viewBox="0 0 32 32">
  <mask id="a" width="32" height="32" x="0" y="0" maskUnits="userSpaceOnUse" style="mask-type:luminance">
    <path fill="#fff" d="M32 0H0v32h32V0Z"/>
  </mask>
  <g mask="url(#a)">
    <path fill="#fff" d="M3.022 7.698c0-.772.466-1.433.479-2.205 0-.598-.592-.897-.667-1.432-.05-.3.453-.573.516-.86.038-.162 0-.336.075-.473.026-.075.089-.125.19-.15 1.662-.41 2.04.86 3.085.748 2.392-.56.29-1.545.856-2.267.277-.337 1.02-.087 1.448-.137.567-.075 1.21-1.134 1.864-.872.315.112.428.349.491.647.101.536-.05 1.271.139 1.77.604 1.382 2.304-.163 3.186-.325.416-.087.831.125 1.209.225 1.46.323 1.159-1.171 1.889-1.308 1.247.274.743 1.756 2.128 2.715 1.348 1.071 1.448.847 2.67 1.084 1.146.237.794.834 1.348 1.27.705.187 1.637.1 2.455.162 2.532.162 2.154 1.395 3.514 2.068 1.284.536 2.556.51 1.977 2.429-.68 1.445-1.574 1.158-2.14 3.014-.24.461-.82.623-.983 1.159-.378 1.046.189 2.192-.126 3.151-.176.461-.504.822-.68 1.296-.504 1.345-.982 3.039-2.103 3.737-1.6.261-1.134-.486-2.708.598-.73.485-1.624 1.158-1.927 1.47-.755.884-.264 2.403-.856 3.039-1.297 1.544-2.179 2.142-2.859 3.263-.226.287-.478.498-.806.486-.352-.025-.692-.311-.83-.573-.177-.274-.303-.585-.567-.772-.82-.56-2.406-.474-1.65-1.545.378-.486.718-1.009 1.184-1.395.617-.411 1.926-.648 1.435-1.557-.755-1.046-.44-1.009-.491-1.893-.063-.324-.466-.71-.831-1.034-.995-.984-1.713-.586-2.217-1.258-.39-.648.592-1.77.063-3.575-.541-1.607-.843-1.171-1.536-1.582-.806-.66-.378-1.732-1.524-2.143-.642-.249-1.498-.062-2.166-.274-1.31-.311-.491-2.28-1.335-2.304-.478.025-.982.448-1.385.523-.718.237-2.43.461-2.456.25-.151-.487-.025-.81-.478-.96C1.12 11.56.076 11.422 0 10.314c.076-.337.252-.486.365-.947.53-1.607.882-1.707 2.657-1.67Z"/>
  </g>
</svg>
