<svg xmlns="http://www.w3.org/2000/svg" width="36" height="36" fill="none" viewBox="0 0 36 36">
  <path fill="#fff" d="M9 11.42c0-.577.203-1.053.608-1.429.405-.375.932-.562 1.581-.562.637 0 1.153.184 1.546.554.406.38.609.877.609 1.489a1.82 1.82 0 0 1-.591 1.385c-.405.381-.938.572-1.599.572h-.017c-.637 0-1.152-.19-1.546-.572-.394-.38-.591-.86-.591-1.437Zm.226 15.152V15.005h3.857v11.567H9.226Zm5.994 0h3.857v-6.46c0-.403.047-.715.14-.934.161-.393.408-.725.738-.996s.744-.407 1.242-.407c1.297 0 1.946.872 1.946 2.615v6.182H27v-6.633c0-1.708-.405-3.004-1.216-3.887-.811-.883-1.883-1.325-3.214-1.325-1.495 0-2.659.641-3.493 1.922v.035h-.017l.017-.035v-1.645H15.22c.023.37.035 1.519.035 3.446 0 1.928-.012 4.635-.035 8.122Z"/>
</svg>
