<svg xmlns="http://www.w3.org/2000/svg" width="63" height="63" fill="none" viewBox="0 0 63 63">
  <g clip-path="url(#a)">
    <path fill="#EE412B" d="M0 0h63v63H0V0Z"/>
    <path fill="#fff" d="M10.045 9.301c-.842 0-1.461.3-1.798.88h-.02V7.017H11.9V5.273H6.28v7.158h1.947v-.283c0-.75.339-1.16.937-1.16.656 0 .92.45.92 1.143v3.072c0 .675-.244 1.143-.9 1.143-.731 0-.993-.487-.993-1.236v-1.593h-1.95v1.443c0 1.93.769 3.166 2.942 3.166 2.155 0 3.035-1.143 3.035-2.904v-3.11c0-2.005-1.03-2.81-2.173-2.81Zm35.843 14.537h-7.83a.1.1 0 0 0-.1.1v2.602a.1.1 0 0 0 .1.1h3.118l-3.462 3.462a10.2 10.2 0 0 0-6.323-2.19c-5.654 0-10.256 4.6-10.256 10.256 0 5.206 3.901 9.514 8.932 10.166v2.998h-3.089a.099.099 0 0 0-.1.099v2.789a.1.1 0 0 0 .1.1h3.09v2.95a.1.1 0 0 0 .099.1h2.787a.101.101 0 0 0 .101-.1v-2.95h3.088a.1.1 0 0 0 .1-.1v-2.79a.099.099 0 0 0-.1-.098h-3.088v-3.047c4.866-.798 8.591-5.03 8.591-10.117 0-2.196-.695-4.23-1.873-5.9l3.412-3.412v2.912a.1.1 0 0 0 .101.1h2.602a.1.1 0 0 0 .102-.1v-7.83a.102.102 0 0 0-.03-.071.101.101 0 0 0-.072-.029ZM31.391 45.715c-4.162 0-7.548-3.386-7.548-7.547 0-4.163 3.386-7.55 7.548-7.55 4.163 0 7.55 3.387 7.55 7.55 0 4.162-3.387 7.547-7.55 7.547Z"/>
    <path fill="#fff" d="M36.002 35.07h-9.156c-.055 0-.099.04-.099.089v2.216c0 .052.044.091.1.091h9.155c.057 0 .101-.04.101-.09v-2.217c0-.049-.044-.09-.1-.09Zm0 3.957h-9.156c-.055 0-.099.042-.099.092v2.217c0 .05.044.09.1.09h9.155c.057 0 .101-.04.101-.09v-2.217c0-.05-.044-.092-.1-.092ZM20.585 14.209v2.384c0 .79-.326 1.382-1.253 1.382h-1.336v-5.149h1.336c.927 0 1.253.585 1.253 1.383Zm-1.36 3.06c.358 0 .494-.213.494-.524v-2.696c0-.304-.136-.516-.493-.516h-.365v3.736h.365Zm1.915-4.443h2.066v.707h-1.2v1.473h.858v.698h-.858v1.565h1.2v.706H21.14v-5.149Zm4.754 2.4h1.23v2.75h-.622v-.563c-.114.387-.357.623-.828.623-.744 0-1.086-.593-1.086-1.39v-2.49c0-.806.387-1.39 1.298-1.39.957 0 1.238.531 1.238 1.29v.456h-.79v-.524c0-.319-.121-.501-.432-.501-.312 0-.449.22-.449.532v2.764c0 .311.13.531.426.531.28 0 .425-.16.425-.493v-.912h-.41v-.683Zm1.785-2.4h2.066v.707h-1.2v1.473h.858v.698h-.858v1.565h1.2v.706h-2.066v-5.149Zm.357-.19v-.417l.547-.403h.38l.546.403v.418l-.729-.22-.744.22Zm2.962 2.104v3.235h-.73v-5.149h.851l.934 2.954v-2.954h.722v5.15h-.76l-1.017-3.236Zm2.332-1.914h2.065v.707h-1.2v1.473h.858v.698h-.858v1.565h1.2v.706H33.33v-5.149Zm3.455 2.787v2.362h-.866v-5.149h1.261c.873 0 1.192.433 1.192 1.155v.66c0 .555-.197.881-.69.995l.827 2.339h-.911l-.813-2.362Zm0-2.08v1.602h.289c.296 0 .425-.152.425-.425v-.76c0-.28-.129-.417-.425-.417h-.289Zm2.112 3.113v-2.49c0-.806.394-1.39 1.306-1.39.918 0 1.313.584 1.313 1.39v2.49c0 .797-.395 1.39-1.313 1.39-.912 0-1.306-.593-1.306-1.39Zm1.754.137v-2.764c0-.312-.137-.532-.448-.532-.304 0-.44.22-.44.532v2.764c0 .311.136.531.44.531.311 0 .448-.22.448-.531ZM17.996 5.278h.865v5.148h-.865V5.278Zm2.749 2.4h1.23v2.748h-.623v-.562c-.114.387-.357.623-.828.623-.744 0-1.085-.592-1.085-1.39v-2.49c0-.805.387-1.39 1.298-1.39.957 0 1.238.531 1.238 1.29v.456h-.79V6.44c0-.319-.121-.5-.433-.5-.311 0-.448.22-.448.53v2.765c0 .311.13.532.426.532.28 0 .425-.16.425-.494v-.911h-.41v-.684Zm4.313-2.4v3.895c0 .798-.341 1.314-1.222 1.314-.912 0-1.291-.516-1.291-1.314V5.278h.865v3.979c0 .304.122.509.426.509s.425-.205.425-.51V5.279h.797Zm.434 5.148.972-5.149h.987l.98 5.15h-.889l-.16-.942h-.919l-.151.941h-.82Zm1.086-1.632h.69l-.341-2.066h-.008l-.341 2.066Zm2.286-3.516h.866V9.72h1.032v.706h-1.898V5.278Zm4.959 1.382v2.384c0 .79-.327 1.382-1.253 1.382h-1.337V5.278h1.337c.926 0 1.253.584 1.253 1.382Zm-1.36 3.06c.358 0 .494-.213.494-.524V6.5c0-.304-.136-.516-.493-.516h-.365V9.72h.365Zm1.793.706.972-5.149h.987l.98 5.15h-.889l-.159-.942h-.919l-.152.941h-.82Zm1.086-1.632h.691l-.342-2.066h-.007l-.342 2.066Zm4.876-2.134v2.384c0 .79-.327 1.382-1.253 1.382h-1.337V5.278h1.337c.926 0 1.253.584 1.253 1.382Zm-1.36 3.06c.357 0 .494-.213.494-.524V6.5c0-.304-.137-.516-.494-.516h-.364V9.72h.364Zm1.93-4.442h2.065v.706h-1.2v1.473h.858v.699h-.858V9.72h1.2v.706h-2.066V5.278Z"/>
  </g>
  <defs>
    <clipPath id="a">
      <path fill="#fff" d="M0 0h63v63H0z"/>
    </clipPath>
  </defs>
</svg>
