<svg xmlns="http://www.w3.org/2000/svg" width="36" height="36" fill="none" viewBox="0 0 36 36">
  <path fill="#fff" d="M18 9c3.595 0 5.393 0 6.687.856a5.16 5.16 0 0 1 1.456 1.457C27 12.607 27 14.405 27 18s0 5.393-.857 6.688a5.161 5.161 0 0 1-1.456 1.456C23.393 27 21.595 27 18 27s-5.393 0-6.688-.856a5.161 5.161 0 0 1-1.456-1.456C9 23.392 9 21.595 9 18c0-3.595 0-5.393.856-6.688a5.16 5.16 0 0 1 1.456-1.456C12.607 9 14.405 9 18 9Zm0 4.34a4.66 4.66 0 1 0 0 9.32 4.66 4.66 0 0 0 0-9.32Zm0 1.577a3.083 3.083 0 1 1 0 6.167 3.083 3.083 0 0 1 0-6.167Zm4.844-2.905a1.096 1.096 0 1 0 0 2.191 1.096 1.096 0 0 0 0-2.191Z"/>
</svg>
