<svg xmlns="http://www.w3.org/2000/svg" width="32" height="34" fill="none" viewBox="0 0 32 34">
  <mask id="a" width="32" height="34" x="0" y="0" maskUnits="userSpaceOnUse" style="mask-type:luminance">
    <path fill="#fff" d="M32 0H0v34h32V0Z"/>
  </mask>
  <g mask="url(#a)">
    <path fill="#fff" d="M26.667 10.2H12.444c-1.066 0-1.777-.68-1.777-1.7s.71-1.7 1.777-1.7h14.223c1.066 0 1.777.68 1.777 1.7s-.71 1.7-1.777 1.7ZM21.333 17h-8.889c-1.066 0-1.777-.68-1.777-1.7s.71-1.7 1.777-1.7h8.89c1.066 0 1.777.68 1.777 1.7S22.4 17 21.333 17Zm8.89-17H5.332C4.267 0 3.556.68 3.556 1.7v5.1H1.778C.71 6.8 0 7.48 0 8.5s.711 1.7 1.778 1.7h1.778v13.6H1.778C.71 23.8 0 24.48 0 25.5s.711 1.7 1.778 1.7h1.778v5.1c0 1.02.71 1.7 1.777 1.7h24.89C31.288 34 32 33.32 32 32.3V1.7C32 .68 31.289 0 30.222 0Z"/>
  </g>
</svg>
