<svg xmlns="http://www.w3.org/2000/svg" width="29" height="32" fill="none" viewBox="0 0 29 32">
  <g clip-path="url(#a)">
    <mask id="b" width="29" height="32" x="0" y="0" maskUnits="userSpaceOnUse" style="mask-type:luminance">
      <path fill="#fff" d="M29 0H0v32h29V0Z"/>
    </mask>
    <g mask="url(#b)">
      <path fill="#97D1EB" d="M16.773 24.252h.502c1.127 0 2.034-.92 2.034-2.065v-5.67c0-1.717-1.372-3.098-3.05-3.098H12.19c-1.69 0-3.05 1.38-3.05 3.097v5.671c0 1.145.906 2.065 2.034 2.065h.502v7.736h5.084v-7.736h.013ZM14.237 6.704c1.69 0 3.05 1.393 3.05 3.096 0 1.704-1.36 3.097-3.05 3.097-1.691 0-3.051-1.38-3.051-3.097 0-1.716 1.372-3.096 3.05-3.096Zm14.751 8.257v5.672c0 1.144-.907 2.064-2.034 2.064h-.502v7.748h-5.085v-7.748h-.551c.037-.174.049-.348.049-.51v-5.67c0-1.257-.564-2.45-1.544-3.234a3.033 3.033 0 0 1 2.56-1.418h4.068c1.691 0 3.051 1.38 3.051 3.096m-5.611-9.8c1.69 0 3.05 1.393 3.05 3.097s-1.36 3.097-3.05 3.097c-1.691 0-3.051-1.38-3.051-3.097 0-1.716 1.372-3.097 3.05-3.097Z"/>
      <path fill="#97D1EB" d="M8.135 16.516v5.671c0 .174.012.349.05.51h-.552v7.748H2.548v-7.748h-.502C.906 22.71 0 21.777 0 20.645v-5.684c0-1.703 1.36-3.096 3.05-3.096h4.068c1.03 0 1.997.534 2.56 1.418a4.176 4.176 0 0 0-1.543 3.233ZM5.085 5.161c1.69 0 3.05 1.393 3.05 3.097s-1.36 3.097-3.05 3.097c-1.691 0-3.051-1.38-3.051-3.097 0-1.716 1.372-3.097 3.05-3.097ZM10.169 0c1.69 0 3.05 1.393 3.05 3.097s-1.36 3.097-3.05 3.097c-1.69 0-3.05-1.38-3.05-3.097S8.49 0 10.168 0Zm8.135 0c1.679 0 3.05 1.393 3.05 3.097s-1.36 3.097-3.05 3.097c-1.69 0-3.05-1.38-3.05-3.097S16.626 0 18.303 0Z"/>
    </g>
  </g>
  <defs>
    <clipPath id="a">
      <path fill="#fff" d="M0 0h29v32H0z"/>
    </clipPath>
  </defs>
</svg>
