<svg xmlns="http://www.w3.org/2000/svg" width="30" height="25" fill="none" viewBox="0 0 30 25">
  <path fill="#fff" d="M15.881 5.439a.84.84 0 0 1 1.217 0l1.007 1.007 1.564-2.189a.849.849 0 0 1 1.2-.208c.381.278.486.816.208 1.198l-2.155 3.024a.867.867 0 0 1-1.32.104l-1.738-1.738a.87.87 0 0 1 0-1.216m-3.684.643a6.07 6.07 0 0 0 6.064 6.064 6.058 6.058 0 0 0 6.064-6.064A6.058 6.058 0 0 0 18.244 0a6.058 6.058 0 0 0-6.064 6.064ZM.869 22.501h3.527a.87.87 0 0 0 .869-.869v-7.784H.869a.86.86 0 0 0-.869.869v6.915c0 .47.382.87.869.87Zm28.478-7.697a.873.873 0 0 0-.364-1.338c-1.304-.539-2.763-.174-3.719.851.99.59 1.633 1.65 1.633 2.937a2.7 2.7 0 0 1-.07.642 168.4 168.4 0 0 0 2.503-3.11m-12.563 3.232c1.564.626 6.43 1.147 6.881 1.008 1.078-.087 1.564-.956 1.564-1.755 0-1.008-.695-1.703-1.686-1.703-1.928 0-4.03-.243-5.803-1.077-1.095-.47-2.346-1.46-3.319-1.912-1.372-.695-2.328-.573-2.502-.59-1.25 0-2.78.382-4.9 1.32v7.576c1.53.191 3.041.608 4.449 1.303 2.554 1.303 4.621 1.998 6.394 1.998 2.484 0 4.5-1.32 6.62-3.492-.4.035-.8.052-1.2.052-1.771 0-4.204-.295-7.07-1.147-.418-.174-.644-.643-.505-1.06a.88.88 0 0 1 1.095-.573"/>
</svg>
