<svg xmlns="http://www.w3.org/2000/svg" width="22" height="32" fill="none" viewBox="0 0 22 32">
  <g clip-path="url(#a)">
    <mask id="b" width="22" height="32" x="0" y="0" maskUnits="userSpaceOnUse" style="mask-type:luminance">
      <path fill="#fff" d="M22 0H0v32h22V0Z"/>
    </mask>
    <g mask="url(#b)">
      <path fill="#1E4388" d="M10.994 20.794C4.874 20.794 0 25.757 0 32h22c0-6.243-4.874-11.193-10.994-11.193M15.71 6.716 20.423 4.8 10.994 0 1.576 4.8l.782.486v2.077c-.477.634-.782 1.604-.782 2.077 0 .957.623 1.766 1.576 1.766.952 0 1.575-.796 1.575-1.766 0-.485-.476-1.443-.781-2.077V5.758l2.357.958V8.63c-.94 1.12-1.576 2.562-1.576 4.154 0 3.52 2.822 6.405 6.28 6.405 3.456 0 6.278-2.885 6.278-6.405 0-1.604-.623-3.035-1.576-4.154V6.716Z"/>
    </g>
  </g>
  <defs>
    <clipPath id="a">
      <path fill="#fff" d="M0 0h22v32H0z"/>
    </clipPath>
  </defs>
</svg>
