<svg width="32" height="32" viewBox="0 0 32 32" fill="none" xmlns="http://www.w3.org/2000/svg">
<mask id="mask0_2034_684" style="mask-type:luminance" maskUnits="userSpaceOnUse" x="1" y="3" width="30" height="27">
<path d="M30.1538 3.07715H1.84615V29.4196H30.1538V3.07715Z" fill="white"/>
</mask>
<g mask="url(#mask0_2034_684)">
<path d="M8.30018 18.6917L10.0184 17.7037C10.7379 17.2849 11.6722 17.5426 12.091 18.2621L14.6146 22.6328C15.0335 23.3523 14.7757 24.2866 14.0562 24.7054L12.338 25.6934C12.9501 26.0263 13.6159 26.2733 14.2925 26.4237C14.9905 26.574 15.4952 27.1861 15.4952 27.9056C15.4952 28.8829 14.5824 29.6024 13.6267 29.3876C11.3715 28.8721 9.37407 27.6479 7.90284 25.9512C7.72028 26.7673 7.2263 27.5083 6.44236 27.9593C4.1335 29.3339 1.21252 27.1002 1.9535 24.5121C2.35084 22.912 4.12276 21.8919 5.70137 22.3429C5.74433 22.3429 5.78729 22.3751 5.84098 22.3966C5.46512 21.3012 5.2396 20.1307 5.2396 18.9064C5.2396 17.8003 5.41142 16.7265 5.72285 15.717C6.0128 14.7827 7.08669 14.3532 7.93506 14.8471C8.55792 15.2123 8.83713 15.9533 8.62235 16.6298C8.40757 17.2849 8.28944 17.9829 8.27871 18.6917" fill="white"/>
<path d="M29.735 26.8425C28.3711 29.2587 24.6233 28.6466 24.0971 25.9619C22.6258 27.6479 20.6391 28.8829 18.3732 29.3876C17.4175 29.6024 16.5047 28.8829 16.5047 27.9056C16.5047 27.1861 17.0094 26.574 17.7074 26.4237C18.384 26.2733 19.0498 26.0263 19.6619 25.6934L17.9437 24.7054C17.2242 24.2866 16.9772 23.3631 17.3853 22.6328L19.9089 18.2621C20.3277 17.5426 21.262 17.2956 21.9815 17.7037L23.6997 18.6917C23.6782 17.9829 23.5601 17.2956 23.3561 16.6298C23.1413 15.9425 23.4205 15.2123 24.0434 14.8471C24.8917 14.3532 25.9656 14.7827 26.2556 15.717C26.567 16.7265 26.7388 17.8003 26.7388 18.9064C26.7388 20.1307 26.5241 21.3012 26.1375 22.3966C26.1804 22.3858 26.2234 22.3536 26.2771 22.3429C28.8544 21.6019 31.1096 24.5336 29.7242 26.8317" fill="white"/>
<path d="M20.0377 12.3448V14.3315C20.0377 15.1691 19.3504 15.8457 18.5236 15.8457H13.4763C12.6386 15.8457 11.9621 15.1584 11.9621 14.3315V12.3448C11.3607 12.7207 10.8238 13.1717 10.3513 13.6872C9.86802 14.2134 9.09482 14.3422 8.47196 13.9771C7.64507 13.5046 7.44103 12.3663 8.08536 11.6683C9.61028 10.0037 11.6507 8.82245 13.9381 8.37142C13.3259 7.81299 12.9393 7.00758 12.9393 6.11625C13.0789 2.05695 18.9209 2.05695 19.0712 6.11625C19.0712 7.00758 18.6846 7.81299 18.0725 8.37142C20.3706 8.82245 22.4003 10.0037 23.9252 11.6683C24.5695 12.3663 24.3655 13.5046 23.5386 13.9771C22.9158 14.3315 22.1426 14.2134 21.6593 13.6872C21.1868 13.1717 20.6499 12.7207 20.0485 12.3448" fill="white"/>
</g>
</svg>
