<svg xmlns="http://www.w3.org/2000/svg" width="32" height="33" fill="none" viewBox="0 0 32 33">
  <path fill="#7A6F66" d="M13.822 13.586H1.976C.988 13.586 0 14.558 0 15.53v9.702c0 .97.988 1.942 1.976 1.942h1.976V33h7.895v-5.827h1.976c1.18 0 1.976-.971 1.976-1.942v-9.702c0-1.16-.787-1.943-1.976-1.943ZM7.904 0c3.271 0 5.928 2.612 5.928 5.827s-2.657 5.827-5.928 5.827c-3.27 0-5.928-2.603-5.928-5.827C1.976 2.602 4.623 0 7.904 0Zm22.13 13.586H18.187c-.988 0-1.976.972-1.976 1.943v9.702c0 .97.988 1.942 1.976 1.942h1.976V33h7.904v-5.827h1.976c1.18 0 1.976-.971 1.976-1.942v-9.702c0-1.16-.786-1.943-1.976-1.943M24.105 0c3.271 0 5.928 2.612 5.928 5.827s-2.647 5.827-5.928 5.827c-3.28 0-5.928-2.603-5.928-5.827C18.177 2.602 20.834 0 24.105 0Z"/>
</svg>
