<svg width="63" height="63" viewBox="0 0 63 63" fill="none" xmlns="http://www.w3.org/2000/svg">
<g clip-path="url(#clip0_2034_659)">
<path d="M0 0H63V63H0V0Z" fill="#C4202E"/>
<path d="M9.86907 17.9822H11.8923V15.9214H12.7548V14.2546H11.8923V5.27954H9.79336L6.10324 14.61V15.9214H9.86907V17.9822ZM7.97665 14.2546L9.88744 9.02756H9.90655V14.2546H7.97665ZM27.9361 33.7797L16.6368 27.2556V48.3607L27.9361 51.7696V33.7797ZM29.1785 33.8229V51.777L40.5509 48.358V27.2567L29.1785 33.8229ZM49.4207 26.7216C49.4207 25.9824 48.8222 25.3844 48.085 25.3844C47.3455 25.3844 46.7477 25.9824 46.7477 26.7216V28.1628H49.4207V26.7216ZM47.0795 47.9864H46.7477L48.085 52.6585L49.4199 47.9864V29.2094H46.747V47.9864H47.0795Z" fill="white"/>
<path d="M42.9779 28.1623L41.7668 27.2056V48.9335L29.212 52.9898H27.9361L15.4372 49.4982V27.2056L14.2252 28.1623V50.348L27.8787 54.1276H29.2693L41.8654 50.1279L42.9779 49.8006V28.1623Z" fill="white"/>
<path d="M18.9857 18.3244V17.9751C18.2946 17.8536 17.9985 17.3448 17.9985 16.6462V14.1553C17.9985 13.3503 18.3934 12.7656 19.3046 12.7656C20.2235 12.7656 20.6184 13.3503 20.6184 14.1553V16.6462C20.6184 17.2081 20.4209 17.6485 19.9806 17.8612L20.6184 17.9826V18.6282L18.9857 18.3244ZM19.7527 16.8284V14.0186C19.7527 13.7073 19.616 13.487 19.3046 13.487C19.0008 13.487 18.8642 13.7073 18.8642 14.0186V16.8284C18.8642 17.1322 19.0009 17.36 19.3046 17.36C19.616 17.36 19.7527 17.1322 19.7527 16.8284ZM23.6867 12.8264V16.7222C23.6867 17.5196 23.345 18.036 22.464 18.036C21.5527 18.036 21.173 17.5196 21.173 16.7222V12.8264H22.0388V16.8056C22.0388 17.1094 22.1603 17.3144 22.464 17.3144C22.7679 17.3144 22.8894 17.1094 22.8894 16.8056V12.8264H23.6867ZM24.0971 17.9751L25.0692 12.8263H26.0565L27.0361 17.9751H26.1475L25.988 17.0335H25.0691L24.9172 17.9751H24.0971ZM25.1831 16.3424H25.8742L25.5324 14.2768H25.5249L25.1831 16.3424ZM27.454 12.8264H28.3198V17.2689H29.3525V17.9752H27.454V12.8264ZM29.8085 12.8264H30.6742V17.9752H29.8085V12.8264ZM33.8258 14.2085V16.5929C33.8258 17.3827 33.4992 17.9751 32.5727 17.9751H31.2361V12.8263H32.5727C33.4992 12.8264 33.8258 13.4111 33.8258 14.2085ZM32.4664 17.2689C32.8233 17.2689 32.96 17.0563 32.96 16.745V14.0491C32.96 13.7453 32.8233 13.5327 32.4664 13.5327H32.1019V17.2689H32.4664ZM34.2437 17.9751L35.2157 12.8263H36.2031L37.1827 17.9751H36.2941L36.1346 17.0335H35.2156L35.0638 17.9751H34.2437ZM35.3297 16.3424H36.0208L35.679 14.2768H35.6714L35.3297 16.3424ZM40.1902 14.2085V16.5929C40.1902 17.3827 39.8637 17.9751 38.9372 17.9751H37.6006V12.8263H38.9372C39.8636 12.8264 40.1902 13.4111 40.1902 14.2085ZM38.8308 17.2689C39.1877 17.2689 39.3244 17.0563 39.3244 16.745V14.0491C39.3244 13.7453 39.1877 13.5327 38.8308 13.5327H38.4662V17.2689H38.8308ZM40.7448 12.8264H42.8105V13.5327H41.6106V15.0059H42.4687V15.7046H41.6106V17.2689H42.8105V17.9752H40.7448V12.8264Z" fill="white"/>
<path d="M17.9985 5.2771H20.0641V5.9834H18.8642V7.45659H19.7224V8.15523H18.8642V9.71956H20.0641V10.4259H17.9985V5.2771ZM23.1779 6.65926V9.04371C23.1779 9.83348 22.8514 10.4259 21.9248 10.4259H20.5883V5.2771H21.9248C22.8514 5.2771 23.1779 5.86192 23.1779 6.65926ZM21.8186 9.71956C22.1755 9.71956 22.3122 9.50695 22.3122 9.19563V6.49977C22.3122 6.19602 22.1755 5.9834 21.8186 5.9834H21.454V9.71956H21.8186ZM26.2538 5.2771V9.17285C26.2538 9.97029 25.912 10.4867 25.0311 10.4867C24.1198 10.4867 23.7401 9.97029 23.7401 9.17285V5.2771H24.6058V9.25632C24.6058 9.56007 24.7273 9.76513 25.0311 9.76513C25.3349 9.76513 25.4564 9.56007 25.4564 9.25632V5.2771H26.2538Z" fill="white"/>
<path d="M26.8238 9.09706V6.60615C26.8238 5.80115 27.2035 5.21643 28.1148 5.21643C29.0717 5.21643 29.3375 5.74802 29.3375 6.50735V7.11485H28.5478V6.439C28.5478 6.12002 28.4415 5.93785 28.13 5.93785C27.8187 5.93785 27.6897 6.15813 27.6897 6.46944V9.23366C27.6897 9.54497 27.8187 9.76525 28.13 9.76525C28.4415 9.76525 28.5478 9.56786 28.5478 9.26411V8.31484H29.3375V9.20332C29.3375 9.93996 29.0338 10.4867 28.1148 10.4867C27.2035 10.4867 26.8238 9.8944 26.8238 9.09706ZM29.5578 10.426L30.5299 5.27722H31.5172L32.4969 10.426H31.6083L31.4488 9.48439H30.5298L30.378 10.426H29.5578ZM30.6438 8.79331H31.3349L30.9932 6.72773H30.9856L30.6438 8.79331ZM33.659 10.95C33.902 10.9425 33.94 10.8892 33.94 10.8285C33.94 10.7754 33.8944 10.745 33.8185 10.745H33.7806V10.464C33.0439 10.3729 32.7403 9.81848 32.7403 9.09706V6.60615C32.7403 5.80115 33.1199 5.21643 34.0312 5.21643C34.9881 5.21643 35.254 5.74802 35.254 6.50735V7.11485H34.4643V6.439C34.4643 6.12002 34.3579 5.93785 34.0465 5.93785C33.7351 5.93785 33.6061 6.15813 33.6061 6.46944V9.23366C33.6061 9.54497 33.7351 9.76525 34.0465 9.76525C34.3579 9.76525 34.4643 9.56786 34.4643 9.26411V8.31484H35.254V9.20332C35.254 9.92474 34.9654 10.4563 34.1073 10.4867V10.555C34.3123 10.5855 34.4261 10.6614 34.4261 10.8284C34.4261 11.0638 34.206 11.193 33.6591 11.193L33.659 10.95ZM35.4742 10.426L36.4463 5.27722H37.4337L38.4133 10.426H37.5247L37.3652 9.48439H36.4462L36.2944 10.426H35.4742ZM36.1501 5.07227C36.1654 4.71539 36.302 4.42676 36.6817 4.42676C36.902 4.42676 37.0843 4.5558 37.1982 4.5558C37.2589 4.5558 37.3045 4.51789 37.3045 4.44188H37.7299C37.7146 4.79876 37.578 5.08739 37.1982 5.08739C36.978 5.08739 36.7957 4.95835 36.6817 4.95835C36.6211 4.95835 36.5754 4.99636 36.5754 5.07227H36.1501ZM36.5602 8.79331H37.2513L36.9095 6.72773H36.9019L36.5602 8.79331ZM38.6564 9.09706V6.60615C38.6564 5.80115 39.0513 5.21643 39.9625 5.21643C40.8814 5.21643 41.2763 5.80115 41.2763 6.60615V9.09696C41.2763 9.89429 40.8814 10.4867 39.9625 10.4867C39.0513 10.4867 38.6564 9.8944 38.6564 9.09706ZM40.4106 9.23366V6.46955C40.4106 6.15824 40.2739 5.93796 39.9625 5.93796C39.6587 5.93796 39.5221 6.15824 39.5221 6.46955V9.23376C39.5221 9.54508 39.6588 9.76536 39.9625 9.76536C40.274 9.76525 40.4106 9.54508 40.4106 9.23366ZM44.9295 6.65938V9.04383C44.9295 9.8336 44.6029 10.426 43.6764 10.426H42.3399V5.27722H43.6764C44.6029 5.27722 44.9295 5.86205 44.9295 6.65938ZM43.5702 9.71968C43.9271 9.71968 44.0638 9.50707 44.0638 9.19576V6.49989C44.0638 6.19614 43.9271 5.98353 43.5702 5.98353H43.2056V9.71968H43.5702ZM45.3095 5.27722H47.3752V5.98353H46.1752V7.45672H47.0334V8.15536H46.1752V9.71968H47.3752V10.426H45.3095V5.27722Z" fill="white"/>
</g>
<defs>
<clipPath id="clip0_2034_659">
<rect width="63" height="63" fill="white"/>
</clipPath>
</defs>
</svg>
