<svg xmlns="http://www.w3.org/2000/svg" width="32" height="32" fill="none" viewBox="0 0 32 32">
  <g clip-path="url(#a)">
    <mask id="b" width="32" height="32" x="0" y="0" maskUnits="userSpaceOnUse" style="mask-type:luminance">
      <path fill="#fff" d="M32 0H0v32h32V0Z"/>
    </mask>
    <g mask="url(#b)">
      <path fill="#97D1EB" d="M15.994 9.601a3.211 3.211 0 0 1-3.197-3.196 3.211 3.211 0 0 1 3.197-3.196 3.211 3.211 0 0 1 3.196 3.196 3.211 3.211 0 0 1-3.196 3.196Zm0-9.601C12.474 0 9.6 2.885 9.6 6.405c0 4.8 6.393 12.797 6.393 12.797s6.392-7.996 6.392-12.797c0-3.52-2.873-6.405-6.392-6.405Z"/>
      <path fill="#97D1EB" d="m24.003 12.797-.796.162c-1.604 3.196-3.681 6.243-4.8 7.997l-2.563 3.843-2.561-3.843c-1.12-1.754-3.197-4.8-4.801-7.997l-.485-.162L0 15.994v15.993l7.997-3.196 7.997 3.196 7.997-3.196 7.997 3.196V15.994l-7.997-3.197h.012Z"/>
    </g>
  </g>
  <defs>
    <clipPath id="a">
      <path fill="#fff" d="M0 0h32v32H0z"/>
    </clipPath>
  </defs>
</svg>
