<svg xmlns="http://www.w3.org/2000/svg" width="32" height="32" fill="none" viewBox="0 0 32 32">
  <g clip-path="url(#a)">
    <path fill="#fff" d="M14.4 24c-4.48 0-8 3.52-8 8h16c0-4.48-3.52-8-8-8Zm0-1.6a4.8 4.8 0 1 0 0-9.6 4.8 4.8 0 0 0 0 9.6ZM24 9.6A4.8 4.8 0 1 0 24 0a4.8 4.8 0 0 0 0 9.6Zm8 9.6c-.8-8.96-9.28-8.8-11.84-7.04 2.72 2.88 2.08 6.56 2.08 7.04H32ZM9.44 11.36C8.8 10.88.48 10.72 0 19.2h6.56c-.64-3.68.96-6.4 2.88-7.84ZM8 9.6A4.8 4.8 0 1 0 8 0a4.8 4.8 0 0 0 0 9.6Z"/>
  </g>
  <defs>
    <clipPath id="a">
      <path fill="#fff" d="M0 0h32v32H0z"/>
    </clipPath>
  </defs>
</svg>
