<svg xmlns="http://www.w3.org/2000/svg" width="28" height="33" fill="none" viewBox="0 0 28 33">
  <path fill="#F0483E" d="M11.106 10.864c.712-.024 1.292.595 1.827 1.013l1.672 1.293 5.761 4.434 4.198 3.219c.654.503 1.343.99 1.965 1.531.168.145.315.362.317.586 0 .093.005.171-.07.233-.166.137-.6.23-.818.236-.87.026-1.772.012-2.643.012h-5.338c-.342-.001-.652.015-.992.034-.303.353-.843 1.302-1.121 1.744l-2.753 4.316c-.416.65-.82 1.336-1.272 1.96-.17.236-.438.345-.731.349-.277.004-.282-.556-.305-.75-.02-1.193-.009-2.389-.008-3.582l.001-6.848-.002-5.892c-.001-1.047-.02-2.128.019-3.174.01-.288.067-.494.267-.713l.026-.001Zm.735 1.56c-.076 4.13-.021 8.403-.02 12.54l.002 2.673c.002.457.052 1.381-.046 1.77.481-.421.807-1.068 1.155-1.621l1.946-3.059c.314-.5 1.126-1.883 1.501-2.25.387-.137.74-.114 1.148-.116l4.815.002c.697 0 1.804-.038 2.464.006l-9.027-6.938-2.665-2.057c-.176-.136-1.104-.861-1.273-.95Z"/>
  <path fill="#F0483E" d="m11.106 10.864-.017-.5h-.003l.02.5Zm1.827 1.013-.308.394.002.001.306-.395Zm1.672 1.293-.306.395.306-.395Zm5.761 4.434-.305.396.001.001.304-.397Zm4.198 3.219.304-.396-.304.396Zm1.965 1.531.328-.377-.328.377Zm.317.586.5-.004-.5.004Zm-.07.233.318.386-.318-.386Zm-.818.236-.015-.5.015.5Zm-2.643.012v-.5.5Zm-5.338 0-.002.5h.002v-.5Zm-.992.034-.028-.5-.213.012-.14.163.38.325Zm-1.121 1.744.421.269.001-.002-.423-.267Zm-2.753 4.316.422.27-.421-.27Zm-1.272 1.96-.405-.293.405.293Zm-.731.349.007.5-.007-.5Zm-.305-.75-.5.008v.025l.003.025.497-.058Zm-.008-3.582h.5-.5Zm.001-6.848h.5-.5Zm-.002-5.892h.5-.5Zm.019-3.174-.5-.018.5.018Zm.267-.713-.019-.5-.209.008-.141.155.37.337Zm.761 1.559.234-.442-.719-.38-.015.812.5.01Zm-.02 12.54h-.5.5Zm.002 2.673h-.5v.003l.5-.003Zm-.046 1.77-.485-.122-.392 1.553 1.206-1.055-.33-.376Zm1.155-1.621-.422-.269-.001.003.423.266Zm1.946-3.059.422.269.002-.003-.424-.266Zm1.501-2.25-.166-.472-.105.036-.079.078.35.357Zm1.148-.116v-.5h-.002l.003.5Zm4.815.002v.5-.5Zm2.464.006-.033.499 1.643.108-1.305-1.004-.305.397Zm-9.027-6.938-.305.396.306-.396Zm-2.665-2.057.305-.396-.306.396Zm-2.008-2.51.017.5c.202-.007.418.075.682.254.29.196.499.402.82.653l.308-.394.308-.395c-.214-.166-.562-.48-.874-.691-.338-.23-.768-.444-1.278-.427l.017.5Zm1.827 1.013-.306.395 1.672 1.293.306-.395.306-.396-1.672-1.293-.306.396Zm1.672 1.293-.305.396L20.06 18l.305-.396.305-.396-5.761-4.435-.305.397Zm5.761 4.434-.304.397 4.197 3.219.305-.397.304-.397-4.197-3.219-.305.397Zm4.198 3.219-.305.396c.676.52 1.335.985 1.943 1.513l.327-.378.328-.377c-.637-.554-1.355-1.064-1.989-1.55l-.304.396Zm1.965 1.531-.327.378c.047.041.088.09.115.136a.188.188 0 0 1 .029.077l.5-.005.5-.005c-.004-.427-.269-.767-.489-.958l-.328.377Zm.317.586-.5.005v.046l.004-.027a.312.312 0 0 1 .107-.176l.319.386.318.385c.288-.238.252-.584.252-.623l-.5.004Zm-.07.233-.319-.385c.014-.011.006-.002-.04.017a1.642 1.642 0 0 1-.474.104l.015.5.015.5c.156-.005.357-.037.54-.085.164-.044.408-.122.58-.265l-.317-.386Zm-.818.236-.015-.5c-.86.026-1.746.012-2.628.012v1c.86 0 1.778.015 2.658-.012l-.015-.5Zm-2.643.012v-.5h-5.338v1h5.338v-.5Zm-5.338 0 .001-.5a17.19 17.19 0 0 0-1.02.035l.027.499.027.499c.341-.019.637-.034.963-.033l.002-.5Zm-.992.034-.38-.325c-.181.211-.412.571-.615.901-.22.356-.409.678-.55.901l.424.267.422.267c.138-.22.359-.592.555-.91.211-.343.402-.634.523-.776l-.38-.325Zm-1.121 1.744-.422-.269-2.752 4.317.421.268.422.27 2.752-4.317-.421-.27Zm-2.753 4.316-.42-.27c-.43.672-.816 1.328-1.257 1.937l.405.293.405.293c.463-.639.886-1.355 1.289-1.983l-.421-.27Zm-1.272 1.96-.405-.293c-.057.079-.16.14-.334.142l.008.5.007.5c.412-.006.845-.164 1.13-.555l-.406-.294Zm-.731.349-.008-.5a.33.33 0 0 1 .165.043c.048.028.075.06.087.076.017.023.008.023-.005-.035a1.478 1.478 0 0 1-.028-.185l-.01-.103a1.302 1.302 0 0 0-.01-.104l-.496.058-.497.058c.005.036.02.306.068.506.025.106.07.257.167.39.11.152.302.3.574.296l-.007-.5Zm-.305-.75.5-.008c-.02-1.187-.009-2.374-.008-3.574h-1c0 1.187-.012 2.392.008 3.59l.5-.008Zm-.008-3.582h.5l.001-6.848h-1v6.848h.5Zm.001-6.848h.5l-.002-5.892h-1l.002 5.892h.5Zm-.002-5.892h.5c-.001-1.059-.02-2.122.018-3.156l-.5-.018-.499-.018c-.038 1.058-.02 2.156-.019 3.192h.5Zm.019-3.174.5.018c.007-.206.038-.286.137-.394l-.37-.337-.369-.337c-.302.33-.385.662-.398 1.032l.5.018Zm.267-.713.02.5.025-.001-.02-.5-.019-.5-.025.001.02.5Zm.761 1.559-.5-.01c-.076 4.136-.021 8.422-.02 12.55h1c-.001-4.146-.056-8.407.02-12.531l-.5-.01Zm-.02 12.54h-.5l.002 2.674h.5l.5-.001-.003-2.673h-.5Zm.002 2.673-.5.003c0 .12.004.269.007.423.004.157.007.323.007.485 0 .347-.014.613-.045.737l.485.122.484.122c.067-.265.077-.656.076-.982 0-.174-.004-.349-.007-.506-.004-.16-.007-.297-.008-.406l-.5.002Zm-.046 1.77.329.376c.29-.254.522-.565.717-.864.178-.273.386-.635.532-.867l-.423-.266-.423-.267c-.202.321-.331.559-.523.853a3.163 3.163 0 0 1-.539.659l.33.376Zm1.155-1.621.422.268 1.946-3.058-.422-.269-.422-.268-1.946 3.058.422.269Zm1.946-3.059.424.266c.173-.275.43-.708.726-1.172.299-.47.563-.853.701-.988l-.35-.357-.35-.357c-.237.233-.566.726-.845 1.165-.283.444-.588.953-.73 1.177l.424.266Zm1.501-2.25.166.471c.287-.1.534-.085.985-.087l-.003-.5-.002-.5c-.366.002-.825-.027-1.312.144l.166.471Zm1.148-.116v.5l4.815.002v-1l-4.814-.002v.5Zm4.815.002v.5c.73 0 1.793-.037 2.431.005l.033-.5.033-.498c-.682-.045-1.834-.008-2.497-.007v.5Zm2.464.006.305-.397-9.027-6.937-.304.396-.305.397 9.026 6.937.305-.396Zm-9.027-6.938.306-.395-2.666-2.058-.306.396-.305.396 2.666 2.057.306-.396Zm-2.665-2.057.305-.396c-.085-.065-.365-.284-.641-.494-.139-.106-.28-.212-.397-.297a3.097 3.097 0 0 0-.306-.205l-.234.442-.234.442a6.016 6.016 0 0 1 .184.13c.11.078.244.18.38.283.274.209.546.42.637.49l.306-.395Z"/>
  <path fill="#F0483E" d="M10.917.23c.822 0 1.109.044 1.492.092 1.584.181 2.961.551 4.362 1.307a10.964 10.964 0 0 1 5.625 11.599c-.064.358-.094.687-.262 1.018-.2.399-.95.276-.934-.18.007-.489.148-.965.215-1.451.514-3.715-1.217-7.481-4.393-9.572a10.467 10.467 0 0 0-7.678-1.542 10.399 10.399 0 0 0-6.541 4.325C2.04 6.995 1.52 8.22 1.292 9.592c-.748 4.494 1.5 8.846 5.751 10.77 1.058.48.52 1.504-.639.896-.797-.419-1.464-.769-2.176-1.344a11.033 11.033 0 0 1-3.75-5.58c-.14-.478-.336-1.211-.36-1.698-.043-.825-.106-2.128.034-2.928.357-2.046 1.163-3.919 2.527-5.516A11.32 11.32 0 0 1 7.952.762C8.874.481 9.97.312 10.917.23Z"/>
  <path fill="#F0483E" d="m10.423 4.544.03-.004c1.993-.116 3.495.129 5.099 1.321a6.73 6.73 0 0 1 2.636 4.385c.081.578.24 3.125-.572 3.205a.536.536 0 0 1-.394-.12c-.39-.32-.026-1.141-.004-1.58.274-5.642-6.79-8.566-10.544-3.95a7.604 7.604 0 0 0-.19.26c-1.746 2.533-1.273 5.732 1.09 7.708.28.234 1.7.95 1.691 1.208-.046 1.253-1.2.405-1.74.067-1.705-1.068-2.905-2.9-3.152-4.883-.457-3.686 2.277-7.198 6.05-7.617Z"/>
</svg>
