<svg width="32" height="32" viewBox="0 0 32 32" fill="none" xmlns="http://www.w3.org/2000/svg">
<mask id="mask0_2034_747" style="mask-type:luminance" maskUnits="userSpaceOnUse" x="2" y="3" width="28" height="26">
<path d="M30 3H2V29H30V3Z" fill="white"/>
</mask>
<g mask="url(#mask0_2034_747)">
<path d="M24.8282 26.1111H6.90822C5.78822 26.1111 4.81645 25.0915 4.81645 23.953C4.81645 22.8144 5.78822 21.7948 6.90822 21.7948H24.8282C24.4165 23.0863 24.2682 24.6837 24.8282 26.1281M28.6 26.1111H27.76C27.0517 24.9556 27.0517 23.0863 27.76 21.7778H28.6C29.44 21.7778 30 21.2 30 20.3334C30 19.4667 29.44 18.8889 28.6 18.8889H6.90822C4.23998 18.8889 2.14822 21.0471 1.99998 23.8C1.85175 26.6889 4.37175 29 7.17175 29H28.5835C29.4235 29 29.9835 28.4222 29.9835 27.5556C29.9835 26.6889 29.4235 26.1111 28.5835 26.1111" fill="white"/>
<path d="M16 2.99976L4.80002 7.33309L9.00002 8.91348V14.5383C9.00002 15.405 9.56002 15.9828 10.4 15.9828H21.6C22.44 15.9828 23 15.405 23 14.5383V8.91348L27.2 7.33309L16 2.99976Z" fill="white"/>
</g>
</svg>
