<svg xmlns="http://www.w3.org/2000/svg" width="63" height="63" fill="none" viewBox="0 0 63 63">
  <g clip-path="url(#a)">
    <path fill="#00699D" d="M0 0h63v63H0V0Z"/>
    <path fill="#fff" d="M4.847 7.589v2.23h.02l1.498-1.556h.019v9.723H8.52V5.284H6.815L4.847 7.589Zm11.148 7.344V13.06c0-2.08-.824-3.13-2.36-3.13-.9 0-1.443.413-1.76 1.031h-.02V8.226c0-.768.243-1.312 1.012-1.312.768 0 .993.45.993 1.236v.845h1.948V8.32c0-1.873-.617-3.184-2.979-3.184-2.248 0-3.091 1.442-3.091 3.429v6.182c0 1.966.862 3.39 3.11 3.39 2.267 0 3.147-1.236 3.147-3.203Zm-2.117.187c0 .806-.3 1.274-1.03 1.274-.712 0-.992-.486-.992-1.274v-2.323c.037-.711.336-1.161 1.011-1.161.73 0 1.011.45 1.011 1.274v2.21Zm30.216 6.36s-.726.965-.515 1.904c.213.94 1.284 1.499 1.284 1.499s.726-.964.514-1.904c-.211-.94-1.283-1.499-1.283-1.499Zm-1.183 5.507s.726-.964.514-1.904c-.213-.94-1.283-1.498-1.283-1.498s-.727.963-.516 1.903c.213.94 1.285 1.5 1.285 1.5Zm2.984-1.033s.767.774 1.64.696c.873-.077 1.52-.976 1.52-.976s-.765-.773-1.64-.696c-.872.078-1.52.976-1.52.976Zm1.256-4.13c-.71.72-.61 1.996-.61 1.996s1.253.109 1.964-.611c.71-.72.61-1.997.61-1.997s-1.252-.108-1.964.611Zm-1.567 6.997c.87.103 1.688-.644 1.688-.644s-.593-.914-1.462-1.017c-.87-.102-1.689.645-1.689.645s.593.914 1.463 1.016Zm.777 15.116h-6.504a.92.92 0 1 0 0 1.84h6.504a.92.92 0 0 0 0-1.84Zm0 10.142h-6.504a.92.92 0 1 0 0 1.84h6.504a.92.92 0 0 0 0-1.84Zm-29.25-12.376a4.125 4.125 0 0 0-.452-.116s.166.052.451.116Z"/>
    <path fill="#fff" d="M46.121 46.42h-6.027a.525.525 0 0 0-.523.523v1.826l-3.935.432-5.748-.132v-3.51a15.917 15.917 0 0 0 2.287-.464c5.533-1.561 6.74-6.136 6.62-9.3-.121-3.224.91-4.475 2.393-5.032.424-.16.844-.26 1.228-.326.016.792.177 1.713.531 2.809.131-.007.262-.018.392-.032-.374-1.122-.533-2.045-.541-2.832.765-.09 1.311-.04 1.311-.04s-.517-.277-1.248-.889c.248-1.526 1.157-2.463 2.094-3.421.515-.528 1.048-1.073 1.467-1.722l-.327-.21c-.396.617-.917 1.146-1.418 1.66-.914.935-1.836 1.89-2.149 3.405-.332-.3-.648-.619-.947-.954-1.364-1.53-3.12-.406-5.625 1.926-2.507 2.331-5.657 2.411-8.735-.737-4.06-4.157-7.602-4.133-10.03-3.898 1.661.708 2.242 2.26 3.083 6.207.882 4.14 3.104 6.014 6.145 6.272-1.691.597-1.775 1.552-4.04 3.117-1.77 1.221-4.26.835-5.27.606 1.853.577 4.048 2.52 6.012 3.197 1.143.393 2.348.636 3.583.735v3.36l-10.297-.235v2.345l19.229-.44 3.934.433v1.824c0 .288.235.524.524.524h6.027a.525.525 0 0 0 .525-.525v-5.979a.525.525 0 0 0-.525-.523Zm-18.47-.736c.43.007.859-.005 1.29-.034v3.398l-1.29-.03v-3.334Zm-11.807 5.034c0 .495-.345.895-.77.895h-.464c-.424 0-.77-.4-.77-.895v-1.62c0-.495.346-.896.77-.896h.464c.425 0 .77.4.77.895v1.621ZM20.115 4.1H21.4c.873 0 1.192.433 1.192 1.155V6.34c0 .722-.32 1.162-1.192 1.162h-.418V9.25h-.866V4.1Zm.866.706v2.028h.319c.296 0 .425-.144.425-.425V5.224c0-.28-.129-.418-.425-.418h-.32Zm1.838 4.443L23.79 4.1h.987l.98 5.149h-.889l-.16-.942h-.918l-.152.942h-.82Zm1.086-1.633h.69l-.34-2.065h-.008l-.342 2.065Zm2.977.927h1.314v.706h-2.218v-.706l1.36-3.737h-1.223V4.1h2.134v.706l-1.367 3.737Zm2.628-.054-.44 1.162h-.486l.106-1.23h.82v.068ZM32.943 4.1v3.98c0 .744-.327 1.23-1.193 1.23-.896 0-1.139-.494-1.139-1.147V7.138h.82v1.04c0 .258.092.41.32.41.235 0 .326-.152.326-.418V4.1h.866Zm2.924 0v3.896c0 .797-.342 1.314-1.223 1.314-.911 0-1.291-.517-1.291-1.314V4.1h.866v3.98c0 .303.121.508.425.508s.425-.205.425-.509V4.1h.798Zm.364 4.04v-.69h.805v.705c0 .289.13.456.426.456.273 0 .395-.182.395-.456v-.197c0-.296-.122-.479-.388-.73l-.508-.508c-.494-.486-.722-.782-.722-1.374V5.17c0-.638.372-1.131 1.215-1.131.866 0 1.208.425 1.208 1.17v.417h-.79v-.448c0-.296-.137-.44-.41-.44-.243 0-.41.136-.41.425v.106c0 .288.16.456.41.698l.554.547c.471.479.699.767.699 1.337v.25c0 .707-.38 1.208-1.26 1.208-.882 0-1.224-.494-1.224-1.17Zm2.765-4.04h2.301v.707h-.714v4.442h-.873V4.806h-.714V4.1Zm2.628 0h.865v5.15h-.865V4.1Zm2.202 5.673c.243-.008.281-.06.281-.122 0-.053-.045-.083-.121-.083h-.038v-.281c-.737-.091-1.04-.646-1.04-1.367V5.43c0-.806.38-1.39 1.29-1.39.957 0 1.223.531 1.223 1.29v.608h-.79v-.676c0-.319-.106-.501-.417-.501-.312 0-.44.22-.44.532v2.764c0 .311.128.531.44.531.311 0 .418-.197.418-.5v-.95h.79v.888c0 .722-.29 1.253-1.147 1.284v.068c.204.03.319.106.319.273 0 .236-.22.365-.768.365v-.243Zm1.853-.524.972-5.149h.988l.98 5.149h-.89l-.159-.942h-.919l-.152.942h-.82Zm1.086-1.633h.691l-.341-2.065h-.008l-.342 2.065ZM49.621 4.1h2.066v.707h-1.2V6.28h.858v.698h-.858v1.565h1.2v.706H49.62V4.1Zm-29.476 6.767h.866v5.149h-.866v-5.149Zm2.165 1.914v3.235h-.73v-5.149h.852l.934 2.954v-2.954h.721v5.149h-.76L22.31 12.78Zm2.294 2.126v-.691h.805v.706c0 .289.129.456.425.456.273 0 .395-.183.395-.456v-.197c0-.296-.122-.479-.387-.73l-.51-.508c-.493-.486-.72-.782-.72-1.375v-.174c0-.638.371-1.132 1.214-1.132.866 0 1.208.426 1.208 1.17v.417h-.79v-.448c0-.296-.137-.44-.41-.44-.243 0-.41.137-.41.425v.107c0 .288.16.455.41.698l.554.547c.471.478.699.767.699 1.336v.251c0 .706-.38 1.207-1.261 1.207-.88 0-1.223-.493-1.223-1.17Zm2.909-4.04h2.3v.706H29.1v4.443h-.874v-4.443h-.713v-.706Zm2.772 0h.865v5.149h-.865v-5.149Zm1.336 0h2.301v.706h-.714v4.443h-.873v-4.443h-.714v-.706Zm5.286 0v3.896c0 .797-.342 1.313-1.223 1.313-.911 0-1.29-.516-1.29-1.313v-3.896h.865v3.98c0 .303.121.508.425.508s.426-.205.426-.509v-3.979h.797Zm.555 0h.865v5.149h-.865v-5.149Zm2.346 5.672c.243-.007.281-.06.281-.12 0-.054-.045-.084-.121-.084h-.038v-.282c-.737-.09-1.04-.645-1.04-1.366v-2.491c0-.805.38-1.39 1.29-1.39.958 0 1.223.532 1.223 1.291v.608h-.79v-.676c0-.32-.106-.501-.417-.501s-.44.22-.44.531v2.764c0 .312.129.532.44.532s.418-.197.418-.501v-.95h.79v.89c0 .72-.29 1.252-1.147 1.282v.069c.205.03.319.106.319.273 0 .236-.22.365-.767.365v-.244Zm2.135-1.852v-2.491c0-.805.394-1.39 1.306-1.39.919 0 1.313.585 1.313 1.39v2.49c0 .798-.394 1.39-1.313 1.39-.912 0-1.306-.592-1.306-1.39Zm.516-4.025c.015-.357.152-.645.532-.645.22 0 .402.129.516.129.06 0 .106-.038.106-.114h.426c-.016.357-.152.645-.532.645-.22 0-.402-.129-.516-.129-.061 0-.107.038-.107.114h-.425Zm1.238 4.161V12.06c0-.311-.137-.531-.448-.531-.304 0-.44.22-.44.531v2.764c0 .312.136.532.44.532.311 0 .448-.22.448-.532Zm1.428-3.956h2.066v.706h-1.2v1.473h.858v.699h-.858v1.564h1.2v.707h-2.066v-5.149Zm2.551 4.04v-.691h.806v.706c0 .289.129.456.425.456.273 0 .395-.183.395-.456v-.197c0-.296-.122-.479-.388-.73l-.508-.508c-.494-.486-.722-.782-.722-1.375v-.174c0-.638.372-1.132 1.215-1.132.866 0 1.208.426 1.208 1.17v.417h-.79v-.448c0-.296-.137-.44-.41-.44-.243 0-.41.137-.41.425v.107c0 .288.16.455.41.698l.554.547c.471.478.699.767.699 1.336v.251c0 .706-.38 1.207-1.26 1.207-.882 0-1.224-.493-1.224-1.17Zm-27.531 3.008h2.066v.706h-1.2v1.473h.858v.699h-.858v1.564h1.2v.706h-2.066v-5.148Zm2.59 0h2.028v.706H23.6v1.473h.866v.699H23.6v2.27h-.866v-5.148Zm2.476 0h.866v5.148h-.866v-5.148Zm1.436 3.82v-2.491c0-.805.38-1.39 1.29-1.39.957 0 1.223.532 1.223 1.291v.608h-.79v-.677c0-.318-.106-.5-.417-.5s-.44.22-.44.531v2.764c0 .312.128.532.44.532.311 0 .418-.198.418-.502v-.949h.79v.889c0 .736-.305 1.283-1.223 1.283-.912 0-1.291-.592-1.291-1.39Zm2.916 1.328.972-5.148h.987l.98 5.148h-.889l-.159-.941h-.919l-.152.941h-.82Zm1.086-1.632h.691l-.342-2.066h-.007l-.342 2.066Zm3.121.926h1.314v.706h-2.217v-.706l1.359-3.736h-1.223v-.706h2.134v.706l-1.367 3.736Zm1.884-4.442h2.066v.706h-1.2v1.473h.858v.699h-.858v1.564h1.2v.706h-2.066v-5.148Zm2.552 4.04v-.691h.805v.706c0 .288.129.456.425.456.274 0 .395-.183.395-.456v-.198c0-.296-.121-.478-.387-.729l-.509-.508c-.494-.486-.721-.782-.721-1.375v-.175c0-.637.372-1.131 1.215-1.131.865 0 1.207.425 1.207 1.17v.417h-.79v-.448c0-.296-.136-.44-.41-.44-.243 0-.41.136-.41.425v.106c0 .289.16.456.41.699l.555.547c.47.478.698.767.698 1.336v.25c0 .707-.38 1.208-1.26 1.208-.881 0-1.223-.493-1.223-1.17Z"/>
  </g>
  <defs>
    <clipPath id="a">
      <path fill="#fff" d="M0 0h63v63H0z"/>
    </clipPath>
  </defs>
</svg>
