<svg xmlns="http://www.w3.org/2000/svg" width="35" height="32" fill="none" viewBox="0 0 35 32">
  <path fill="#7A6F66" d="M25.91 25.89c0 .312-.27.576-.59.576h-2.18a.591.591 0 0 1-.59-.577v-2.131c0-.313.27-.577.59-.577h2.18c.32 0 .59.264.59.577v2.131ZM20.14 7.92h-1.49v1.456c0 .724-.61 1.32-1.35 1.32-.74 0-1.35-.596-1.35-1.32V7.92h-1.49c-.74 0-1.35-.596-1.35-1.32 0-.723.61-1.32 1.35-1.32h1.49V3.824c0-.724.6-1.32 1.35-1.32.75 0 1.35.596 1.35 1.32V5.28h1.49c.74 0 1.35.596 1.35 1.32 0 .723-.6 1.32-1.35 1.32Zm-1.03 11.35a.57.57 0 0 1-.57.558h-2.1a.57.57 0 0 1-.57-.558v-2.053c0-.303.26-.547.57-.547h2.1c.31 0 .57.254.57.547v2.053Zm0 6.58a.57.57 0 0 1-.57.558h-2.1a.57.57 0 0 1-.57-.558v-2.053a.57.57 0 0 1 .57-.557h2.1c.31 0 .57.254.57.557v2.053Zm-6.66-6.54c0 .312-.27.576-.59.576H9.68a.591.591 0 0 1-.59-.576v-2.132c0-.313.27-.577.59-.577h2.18c.32 0 .59.264.59.577v2.131Zm-.08 6.53a.57.57 0 0 1-.57.558H9.73a.57.57 0 0 1-.57-.558v-2.023a.57.57 0 0 1 .57-.558h2.07c.31 0 .57.255.57.558v2.023Zm10.26-8.613c0-.303.25-.557.57-.557h2.07c.31 0 .56.254.56.557v2.024c0 .303-.25.547-.56.547H23.2c-.31 0-.57-.254-.57-.547v-2.024ZM33.65 29.37h-2.26V13.473c0-.734-.62-1.34-1.39-1.34h-4.81V1.34C25.2.606 24.58 0 23.82 0H11.18c-.75 0-1.37.606-1.37 1.34v10.793H4.99c-.77 0-1.39.606-1.39 1.34V29.36H1.35C.6 29.37 0 29.957 0 30.68 0 31.404.6 32 1.35 32h32.31c.74 0 1.35-.587 1.35-1.32 0-.733-.6-1.32-1.35-1.32"/>
</svg>
