<svg xmlns="http://www.w3.org/2000/svg" width="63" height="63" fill="none" viewBox="0 0 63 63">
  <g clip-path="url(#a)">
    <path fill="#A11C43" d="M0 0h63v63H0V0Z"/>
    <path fill="#fff" d="M12.24 14.874v-1.386c0-1.218-.43-2.099-1.423-2.549.842-.411 1.236-1.16 1.236-2.21v-.525c0-1.986-1.03-3.053-2.997-3.053-1.948 0-2.96 1.067-2.96 3.053v.525c0 1.03.375 1.799 1.198 2.21-.992.45-1.405 1.33-1.405 2.549v1.386c0 1.93.919 3.279 3.167 3.279 2.266 0 3.185-1.35 3.185-3.28Zm-4.14-6.8c0-.77.263-1.22.956-1.22.711 0 .975.45.975 1.22v.86c0 .769-.264 1.22-.975 1.22-.693 0-.956-.451-.956-1.22v-.86Zm2.005 7.025c0 .768-.281 1.312-1.05 1.312-.75 0-1.03-.544-1.03-1.312v-2.062c0-.767.28-1.31 1.03-1.31.769 0 1.05.543 1.05 1.31V15.1Zm33.349 15.896-6.403 6.09c-.243.241-.366.419-.366.916v17.072c0 .2.164.364.366.364h6.614a.364.364 0 0 0 .364-.364V31.148c0-.201-.158-.569-.575-.153ZM25.006 38.93l-6.404 6.09c-.241.241-.365.418-.365.914v9.138c0 .2.164.364.365.364h6.615a.365.365 0 0 0 .364-.364v-15.99c0-.201-.158-.57-.575-.152Z"/>
    <path fill="#fff" d="M46.364 23.608a.179.179 0 0 0-.054-.139.19.19 0 0 0-.118-.052l-.035.002-.053.003-4.903 1.107-.09.009a.197.197 0 0 0-.095.05.187.187 0 0 0 0 .264l.055.055 1.12 1.12-11.11 11.11-5.131-5.132a.149.149 0 0 0-.105-.044.148.148 0 0 0-.105.044l-1.391 1.393-.002.001-8.226 8.224a.15.15 0 0 0 0 .21l1.395 1.393c.056.058.15.058.207 0l8.123-8.121 3.724 3.724c.003.006.006.012.012.017l1.393 1.391c.057.059.15.059.209 0l12.61-12.609 1.175 1.175c.072.073.19.073.262 0a.181.181 0 0 0 .053-.12v-.016l1.078-5.005.002-.054Z"/>
    <path fill="#fff" d="m34.267 40-3.099 3.123a.148.148 0 0 1-.199-.007l-2.807-2.861c-.514-.512-.625-.097-.625.104v14.713c0 .2.162.365.363.365h6.617c.2 0 .363-.164.363-.365V40.115c0-.201-.159-.57-.613-.115ZM16.05 4.881h2.301v.707h-.713v4.442h-.874V5.587h-.714v-.706Zm3.623 2.787v2.362h-.866V4.881h1.26c.874 0 1.193.433 1.193 1.155v.66c0 .555-.198.881-.691.995l.828 2.34h-.912l-.812-2.363Zm0-2.08V7.19h.288c.297 0 .426-.152.426-.425v-.76c0-.28-.13-.417-.426-.417h-.288Zm1.967 4.442.972-5.149h.988l.98 5.149h-.89l-.159-.942h-.919l-.152.942h-.82Zm1.086-1.633h.691l-.342-2.065h-.007l-.342 2.065Zm2.263-3.516h1.253c.866 0 1.155.403 1.155 1.132v.524c0 .433-.16.706-.517.82.433.099.646.387.646.858V8.9c0 .729-.327 1.131-1.193 1.131H24.99v-5.15Zm.866 2.172h.304c.28 0 .41-.144.41-.418v-.63c0-.28-.13-.418-.418-.418h-.296v1.466Zm0 .66v1.61h.38c.288 0 .425-.144.425-.417v-.774c0-.274-.13-.418-.433-.418h-.372Zm2.02 2.317.972-5.149h.988l.98 5.149h-.89l-.159-.942h-.919l-.152.942h-.82Zm1.086-1.633h.691l-.341-2.065h-.008l-.342 2.065Zm2.264-3.516h.865v4.443h1.033v.706h-1.898V4.881Zm4.047 2.878h-.835v2.27h-.866V4.882h.866v2.18h.835V4.88h.874v5.15h-.874V7.758Zm1.42.942v-2.49c0-.806.396-1.39 1.307-1.39.919 0 1.314.584 1.314 1.39V8.7c0 .797-.395 1.39-1.314 1.39-.911 0-1.306-.593-1.306-1.39Zm1.755.137V6.073c0-.31-.137-.531-.448-.531-.304 0-.44.22-.44.531v2.765c0 .311.136.531.44.531.311 0 .448-.22.448-.531ZM43.3 6.263v2.385c0 .79-.327 1.382-1.253 1.382H40.71V4.88h1.337c.926 0 1.253.585 1.253 1.382Zm-1.36 3.06c.358 0 .494-.212.494-.523V6.104c0-.304-.136-.517-.493-.517h-.365v3.737h.365Zm1.907-4.442h2.066v.707h-1.2V7.06h.858v.698h-.858v1.565h1.2v.706h-2.066V4.881Zm2.591 3.82v-2.49c0-.806.38-1.39 1.291-1.39.957 0 1.223.531 1.223 1.29v.608h-.79v-.676c0-.319-.106-.501-.418-.501-.311 0-.44.22-.44.532v2.764c0 .311.129.531.44.531.312 0 .418-.197.418-.5v-.95h.79v.888c0 .737-.304 1.284-1.223 1.284-.911 0-1.291-.593-1.291-1.39Zm2.87-3.82h2.066v.707h-1.2V7.06h.859v.699h-.859v1.564h1.2v.706H49.31V4.881Zm3.145 1.914v3.235h-.729V4.881h.85l.935 2.954V4.881h.721v5.15h-.76l-1.017-3.236Zm2.058-1.914h2.301v.707h-.714v4.442h-.873V5.588h-.714V4.88Zm2.59 0h2.066v.707h-1.2V7.06h.858v.699h-.858v1.564h1.2v.706H57.1V4.881ZM15.754 12.05h2.066v.707h-1.2v1.473h.858v.699h-.858v1.564h1.2v.707h-2.066v-5.15Zm3.152 3.82v-2.49c0-.805.38-1.39 1.29-1.39.958 0 1.223.531 1.223 1.29v.608h-.79v-.676c0-.319-.106-.5-.417-.5s-.44.22-.44.53v2.765c0 .311.129.532.44.532s.418-.198.418-.501v-.95h.79v.889c0 .736-.304 1.283-1.223 1.283-.912 0-1.291-.592-1.291-1.39Zm3.767-1.032V17.2h-.866v-5.15h1.26c.874 0 1.193.434 1.193 1.155v.66c0 .555-.198.882-.691.995l.828 2.34h-.912l-.812-2.362Zm0-2.081v1.602h.288c.296 0 .426-.152.426-.425v-.76c0-.28-.13-.417-.426-.417h-.288Zm1.974-.706h2.066v.706h-1.2v1.473h.858v.699h-.858v1.564h1.2v.707h-2.066v-5.15Zm2.4 4.04V15.4h.805v.706c0 .289.13.455.426.455.273 0 .395-.182.395-.455v-.197c0-.297-.122-.479-.388-.73l-.509-.508c-.493-.486-.721-.782-.721-1.375v-.175c0-.637.372-1.131 1.215-1.131.866 0 1.208.425 1.208 1.17v.417h-.79v-.448c0-.296-.137-.44-.41-.44-.243 0-.41.136-.41.425v.106c0 .289.16.456.41.699l.554.547c.47.478.699.767.699 1.336v.25c0 .707-.38 1.208-1.26 1.208-.882 0-1.224-.493-1.224-1.17Zm2.848-.22V13.38c0-.805.38-1.39 1.291-1.39.957 0 1.223.531 1.223 1.29v.608h-.79v-.676c0-.319-.106-.5-.417-.5-.312 0-.44.22-.44.53v2.765c0 .311.128.532.44.532.311 0 .417-.198.417-.501v-.95h.79v.889c0 .736-.304 1.283-1.223 1.283-.91 0-1.29-.592-1.29-1.39Zm2.902-3.82h.865V17.2h-.865v-5.15Zm3.66 1.807h-.023L35.85 17.2h-.403l-.645-3.34h-.016v3.34h-.713v-5.148h1.01l.562 2.9h.007l.501-2.9h1.094V17.2h-.79v-3.342Zm1.2-1.807h2.066v.706h-1.2v1.473h.858v.699h-.858v1.564h1.2v.707h-2.066v-5.15Zm3.167 1.913V17.2h-.729v-5.15h.85l.935 2.955V12.05h.721v5.15h-.76l-1.017-3.236Zm2.089-1.913h2.3v.706H44.5V17.2h-.873v-4.443h-.714v-.706Zm2.62 3.82V13.38c0-.805.395-1.39 1.306-1.39.919 0 1.314.585 1.314 1.39v2.49c0 .798-.395 1.39-1.314 1.39-.911 0-1.306-.592-1.306-1.39Zm1.754.136v-2.764c0-.311-.137-.532-.448-.532-.304 0-.44.22-.44.532v2.764c0 .311.136.532.44.532.312 0 .448-.22.448-.532Zm-31.533 3.092h2.066v.706h-1.2v1.473h.858v.699h-.858v1.564h1.2v.706h-2.066V19.1Zm2.415 3.82v-2.492c0-.805.38-1.39 1.291-1.39.957 0 1.223.532 1.223 1.292v.607h-.79v-.676c0-.319-.106-.5-.418-.5-.311 0-.44.22-.44.53v2.765c0 .311.129.532.44.532.312 0 .418-.198.418-.502v-.949h.79v.889c0 .736-.304 1.283-1.223 1.283-.911 0-1.291-.592-1.291-1.39Zm2.87 0v-2.492c0-.805.396-1.39 1.307-1.39.919 0 1.314.585 1.314 1.39v2.491c0 .798-.395 1.39-1.314 1.39-.911 0-1.306-.592-1.306-1.39Zm1.755.136v-2.764c0-.311-.137-.532-.448-.532-.304 0-.44.22-.44.532v2.764c0 .311.136.532.44.532.311 0 .448-.22.448-.532Zm1.975-2.043v3.235h-.73V19.1h.851l.934 2.954V19.1h.722v5.148h-.76l-1.017-3.235Zm2.157 1.906v-2.49c0-.806.395-1.39 1.306-1.39.919 0 1.314.584 1.314 1.39v2.49c0 .798-.395 1.39-1.314 1.39-.911 0-1.306-.592-1.306-1.39Zm.57-4.01v-.417l.546-.402h.38l.546.402v.418l-.729-.22-.744.22Zm1.184 4.147v-2.764c0-.311-.137-.532-.448-.532-.304 0-.44.22-.44.532v2.764c0 .311.136.532.44.532.311 0 .448-.22.448-.532Zm3.63-2.149h-.023l-.584 3.341H31.3l-.645-3.341h-.016v3.341h-.713V19.1h1.01l.562 2.9h.007l.501-2.9H33.1v5.148h-.79v-3.341Zm1.17-1.807h.866v5.148h-.866V19.1Zm1.253 3.82v-2.492c0-.805.38-1.39 1.291-1.39.957 0 1.223.532 1.223 1.292v.607h-.79v-.676c0-.319-.106-.5-.418-.5-.311 0-.44.22-.44.53v2.765c0 .311.129.532.44.532.312 0 .418-.198.418-.502v-.949h.79v.889c0 .736-.304 1.283-1.223 1.283-.911 0-1.29-.592-1.29-1.39Zm2.871 0v-2.492c0-.805.395-1.39 1.306-1.39.919 0 1.314.585 1.314 1.39v2.491c0 .798-.395 1.39-1.314 1.39-.911 0-1.306-.592-1.306-1.39Zm1.754.136v-2.764c0-.311-.136-.532-.448-.532-.304 0-.44.22-.44.532v2.764c0 .311.136.532.44.532.312 0 .448-.22.448-.532Z"/>
  </g>
  <defs>
    <clipPath id="a">
      <path fill="#fff" d="M0 0h63v63H0z"/>
    </clipPath>
  </defs>
</svg>
