<svg width="63" height="63" viewBox="0 0 63 63" fill="none" xmlns="http://www.w3.org/2000/svg">
<g clip-path="url(#clip0_1_4646)">
<path d="M0 0H63V63H0V0Z" fill="#4D9F46"/>
<path d="M8.99026 18.1529C11.1455 18.1529 12.0816 17.0098 12.0816 15.2492V13.3759C12.0816 12.2144 11.5759 11.4646 10.5079 11.2211C11.3888 10.9409 11.969 10.2283 11.969 9.16079V8.05518C11.969 6.25658 11.1076 5.15149 9.14041 5.15149C6.9288 5.15149 6.16083 6.46206 6.16083 8.33573V9.45993H8.10942V8.16742C8.10942 7.38057 8.35375 6.93108 9.02827 6.93108C9.7029 6.93108 9.94492 7.38057 9.94492 8.07334V9.44135C9.94492 10.116 9.49605 10.4713 8.80315 10.4713H7.99696V12.1021H8.89681C9.64588 12.1021 9.94482 12.4576 9.94482 13.132V15.2307C9.94482 15.9043 9.64578 16.3737 8.99016 16.3737C8.25946 16.3737 7.99686 15.8859 7.99686 15.1368V13.3196H6.04932V14.9866C6.04932 16.9167 6.81687 18.1529 8.99026 18.1529ZM52.6608 39.3729C52.6608 37.6 51.5232 36.1628 49.8005 36.1628C48.939 36.1628 47.8999 37.1064 47.3352 37.6865C46.7714 37.1057 45.8013 36.1614 44.9389 36.1614C43.2165 36.1614 42.009 37.5989 42.009 39.3722C42.009 40.2583 42.358 41.0609 42.9232 41.642L47.3394 46.0663L51.7498 41.6474L51.7463 41.6441C52.3108 41.0623 52.6608 40.2595 52.6608 39.3729Z" fill="white"/>
<path d="M33.8582 53.2891C33.8433 53.2891 33.8285 53.2891 33.813 53.2883C33.6499 53.2782 33.495 53.2132 33.3735 53.104C33.2519 52.9948 33.1708 52.8477 33.1433 52.6866L30.8999 39.6216L27.502 45.9225C27.4294 46.0567 27.3163 46.1645 27.1789 46.2308C27.0415 46.2971 26.8867 46.3184 26.7364 46.2917C26.5862 46.265 26.4482 46.1916 26.3421 46.0818C26.236 45.9721 26.1673 45.8317 26.1457 45.6807L24.7031 35.5979L22.0638 41.5263C22.0068 41.6543 21.9138 41.7631 21.7963 41.8394C21.6787 41.9158 21.5416 41.9565 21.4014 41.9565H11.1429C11.0477 41.9565 10.9534 41.9377 10.8654 41.9013C10.7774 41.8648 10.6975 41.8113 10.6302 41.744C10.5629 41.6766 10.5095 41.5967 10.4731 41.5087C10.4366 41.4207 10.4179 41.3263 10.418 41.2311C10.418 41.0389 10.4944 40.8545 10.6303 40.7186C10.7663 40.5826 10.9506 40.5062 11.1429 40.5062H20.93L24.4021 32.7088C24.3861 32.5976 24.3963 32.4841 24.4317 32.3775C24.4671 32.2708 24.5268 32.1738 24.6061 32.0942C24.6855 32.0146 24.7822 31.9545 24.8887 31.9186C24.9953 31.8828 25.1087 31.8722 25.22 31.8877C25.3313 31.9032 25.4375 31.9444 25.5302 32.0079C25.6229 32.0715 25.6995 32.1557 25.7541 32.254C25.8086 32.3523 25.8396 32.4619 25.8445 32.5741C25.8495 32.6864 25.8282 32.7983 25.7825 32.901L27.2699 43.2974L30.6209 37.0841C30.6924 36.9511 30.8037 36.8438 30.9393 36.7772C31.0748 36.7107 31.2277 36.6882 31.3767 36.7129C31.5256 36.7373 31.6631 36.8075 31.7702 36.9137C31.8773 37.02 31.9487 37.1569 31.9743 37.3056L34.0512 49.4054L41.6226 24.2563C41.6647 24.1164 41.748 23.9924 41.8617 23.9007C41.9754 23.809 42.1141 23.7537 42.2597 23.7422C42.559 23.7204 42.8404 23.8808 42.9704 24.1501L46.9543 32.4091C47.0376 32.5823 47.0489 32.7815 46.9855 32.963C46.9221 33.1446 46.7894 33.2935 46.6163 33.3772C46.4429 33.4607 46.2435 33.4719 46.0619 33.4085C45.8802 33.3451 45.7311 33.2122 45.6474 33.0389L42.4739 26.4598L34.552 52.7733C34.5071 52.9224 34.4154 53.0531 34.2905 53.146C34.1655 53.2389 34.0139 53.2891 33.8582 53.2891Z" fill="white"/>
<path d="M17.9507 9.31728V8.62609H18.7559V9.33251C18.7559 9.62114 18.885 9.7883 19.1813 9.7883C19.4547 9.7883 19.5763 9.60602 19.5763 9.33251V9.13501C19.5763 8.83881 19.4548 8.65654 19.1889 8.4058L18.68 7.89688C18.1863 7.41075 17.9585 7.11455 17.9585 6.52206V6.34734C17.9585 5.70928 18.3306 5.21558 19.1737 5.21558C20.0397 5.21558 20.3814 5.64092 20.3814 6.38535V6.80313H19.5915V6.35501C19.5915 6.05881 19.4548 5.91444 19.1814 5.91444C18.9384 5.91444 18.7713 6.05115 18.7713 6.33978V6.44614C18.7713 6.73478 18.9309 6.90183 19.1814 7.145L19.7359 7.69183C20.2068 8.1704 20.4347 8.45904 20.4347 9.02865V9.27927C20.4347 9.98569 20.0549 10.4869 19.1737 10.4869C18.2926 10.4869 17.9507 9.99325 17.9507 9.31728ZM20.8294 10.4263L21.8017 5.27637H22.7891L23.7689 10.4263H22.8802L22.7206 9.48444H21.8016L21.6496 10.4263H20.8294ZM21.9156 8.79314H22.6068L22.2649 6.72712H22.2574L21.9156 8.79314ZM26.7158 5.27637V9.17291C26.7158 9.97047 26.3739 10.4869 25.4928 10.4869C24.5813 10.4869 24.2015 9.97047 24.2015 9.17291V5.27637H25.0675V9.25649C25.0675 9.56035 25.189 9.76541 25.4928 9.76541C25.7967 9.76541 25.9183 9.56035 25.9183 9.25649V5.27637H26.7158ZM26.184 4.91182L24.8244 5.08654V4.6004L26.184 4.31177V4.91182ZM29.8754 6.65876V9.04377C29.8754 9.83366 29.5488 10.4262 28.622 10.4262H27.2852V5.27637H28.622C29.5488 5.27637 29.8754 5.86121 29.8754 6.65876ZM28.5158 9.71984C28.8727 9.71984 29.0095 9.50722 29.0095 9.1958V6.49927C29.0095 6.19541 28.8727 5.98279 28.5158 5.98279H28.1511V9.71984H28.5158ZM30.4447 5.27637H32.5108V5.98279H31.3107V7.45632H32.169V8.15507H31.3107V9.71974H32.5108V10.4263H30.4447V5.27637ZM33.9157 5.27637H35.9818V5.98279H34.7817V7.45632H35.64V8.15507H34.7817V9.71974H35.9818V10.4263H33.9157V5.27637Z" fill="white"/>
<path d="M17.9966 12.712H19.25C20.1159 12.712 20.4045 13.1146 20.4045 13.8438V14.3679C20.4045 14.801 20.2449 15.0744 19.8879 15.1883C20.321 15.287 20.5336 15.5756 20.5336 16.0466V16.7303C20.5336 17.4595 20.207 17.862 19.3411 17.862H17.9966V12.712ZM18.8625 14.8844H19.1664C19.4475 14.8844 19.5765 14.7401 19.5765 14.4666V13.8362C19.5765 13.5552 19.4475 13.4185 19.1587 13.4185H18.8625V14.8844ZM18.8625 15.5452V17.1554H19.2423C19.5309 17.1554 19.6677 17.011 19.6677 16.7376V15.9628C19.6677 15.6894 19.5386 15.5451 19.2347 15.5451L18.8625 15.5452ZM21.0421 12.712H23.1082V13.4185H21.908V14.892H22.7664V15.5907H21.908V17.1554H23.1082V17.8618H21.0421V12.712ZM26.0324 14.5198H26.0097L25.4248 17.8619H25.0222L24.3766 14.5198H24.3614V17.8619H23.6474V12.712H24.6576L25.2197 15.6136H25.2273L25.7286 12.712H26.8225V17.8619H26.0324V14.5198ZM27.3384 15.1198H28.5538V15.8186H27.3384V15.1198ZM29.0626 12.712H31.1287V13.4185H29.9286V14.892H30.7869V15.5907H29.9286V17.1554H31.1287V17.8618H29.0626V12.712ZM31.6221 16.7529V16.0618H32.4274V16.7682C32.4274 17.0568 32.5564 17.2239 32.8527 17.2239C33.1261 17.2239 33.2477 17.0416 33.2477 16.7682V16.5707C33.2477 16.2745 33.1262 16.0922 32.8604 15.8415L32.3514 15.3326C31.8577 14.8464 31.6299 14.5502 31.6299 13.9577V13.783C31.6299 13.1449 32.002 12.6512 32.8452 12.6512C33.7111 12.6512 34.0529 13.0766 34.0529 13.821V14.2388H33.263V13.7907C33.263 13.4945 33.1262 13.3501 32.8528 13.3501C32.6099 13.3501 32.4427 13.4868 32.4427 13.7754V13.8818C32.4427 14.1704 32.6023 14.3376 32.8528 14.5806L33.4073 15.1275C33.8783 15.6061 34.1061 15.8947 34.1061 16.4643V16.7149C34.1061 17.4214 33.7263 17.9226 32.8452 17.9226C31.964 17.9226 31.6221 17.4289 31.6221 16.7529ZM34.5387 12.712H36.8403V13.4185H36.1262V17.8619H35.2527V13.4185H34.5387V12.712ZM37.1819 17.8619L38.1542 12.712H39.1416L40.1214 17.8619H39.2327L39.0731 16.9201H38.1541L38.0021 17.8619H37.1819ZM38.2681 16.2288H38.9593L38.6174 14.1628H38.6099L38.2681 16.2288ZM41.42 15.4996V17.8619H40.554V12.712H41.815C42.6885 12.712 43.0075 13.145 43.0075 13.8666V14.5273C43.0075 15.0818 42.81 15.4085 42.3163 15.5224L43.1443 17.8618H42.2327L41.42 15.4996ZM41.42 13.4185V15.0211H41.7086C42.0048 15.0211 42.134 14.8692 42.134 14.5958V13.8362C42.134 13.5552 42.0049 13.4185 41.7086 13.4185H41.42Z" fill="white"/>
</g>
<defs>
<clipPath id="clip0_1_4646">
<rect width="63" height="63" fill="white"/>
</clipPath>
</defs>
</svg>
