<svg xmlns="http://www.w3.org/2000/svg" width="28" height="35" fill="none" viewBox="0 0 28 35">
  <mask id="a" width="28" height="35" x="0" y="0" maskUnits="userSpaceOnUse" style="mask-type:luminance">
    <path fill="#fff" d="M28 0H0v35h28V0Z"/>
  </mask>
  <g mask="url(#a)">
    <path fill="#fff" d="M14 0C9.698 0 6.2 3.409 6.2 7.601s3.498 7.601 7.8 7.601 7.8-3.409 7.8-7.6C21.8 3.408 18.302 0 14 0Zm6.028 17.348c.281 1.172.718 3.302.57 4.535 1.148.989 4.154 3.91 3.506 6.794 0 .038-.313 1.69-2.429 2.397a.893.893 0 0 1-.242.038.752.752 0 0 1-.71-.494.73.73 0 0 1 .468-.929c1.257-.418 1.437-1.285 1.445-1.293.445-1.978-1.796-4.375-3.045-5.44-1.492.707-4.318 2.442-4.428 4.428 0 .06-.054.936 1.031 1.659.344.228.43.677.195 1.012a.756.756 0 0 1-1.038.19c-1.843-1.225-1.687-2.907-1.679-2.975.172-3.082 4.302-5.182 5.458-5.707.07-1.095-.398-3.355-.742-4.626-.008-.038 0-.076-.008-.122a13.268 13.268 0 0 0-3.412-.456h-1.92c-1.328 0-2.6.198-3.811.555-.016.054-.016.107-.039.152-.016.03-1.64 3.31-2.413 8.324 1.304.35 2.265 1.5 2.265 2.877 0 1.65-1.382 2.997-3.077 2.997-1.694 0-3.076-1.346-3.076-2.997 0-1.416 1.015-2.603 2.381-2.907.523-3.53 1.445-6.216 2.03-7.685C2.983 19.737 0 24.06 0 29.058v5.212c0 .403.336.73.75.73h26.508c.414 0 .75-.335.75-.738v-5.204c0-5.258-3.295-9.777-7.98-11.71Z"/>
  </g>
</svg>
