<svg width="32" height="32" viewBox="0 0 32 32" fill="none" xmlns="http://www.w3.org/2000/svg">
<mask id="mask0_2034_697" style="mask-type:luminance" maskUnits="userSpaceOnUse" x="6" y="2" width="20" height="28">
<path d="M25.321 2.46143H6.36922V29.5383H25.321V2.46143Z" fill="white"/>
</mask>
<g mask="url(#mask0_2034_697)">
<path d="M7.72509 2.46143C7.72509 6.25178 10.8375 9.23066 14.4943 9.23066C14.4943 5.4403 11.5154 2.46143 7.72509 2.46143Z" fill="white"/>
<path d="M17.1959 13.2883C20.9862 13.2883 23.9651 10.1759 23.9651 6.51904C20.1747 6.51904 17.1959 9.49792 17.1959 13.2883Z" fill="white"/>
<path d="M24.6431 17.3558H17.1959V3.81733C17.1959 3.00584 16.6617 2.46143 15.8502 2.46143C15.1723 2.46143 14.4943 3.00584 14.4943 3.81733V17.3558H7.04717C6.63629 17.3558 6.36922 17.6229 6.36922 18.0337V19.3896C6.36922 19.8005 6.63629 20.0676 7.04717 20.0676H7.85865L8.93721 28.3263C8.93721 29.0042 9.61516 29.5486 10.2931 29.5486H21.3971C22.0751 29.5486 22.753 29.0042 22.753 28.3263L23.8316 20.0676H24.6431C25.0437 20.0676 25.321 19.8005 25.321 19.3896V18.0337C25.321 17.6331 25.0539 17.3558 24.6431 17.3558Z" fill="white"/>
</g>
</svg>
