<svg xmlns="http://www.w3.org/2000/svg" width="33" height="32" fill="none" viewBox="0 0 33 32">
  <path fill="#97D1EB" fill-rule="evenodd" d="M0 0h22.915v11.105a8.721 8.721 0 0 0-1.962-.224c-4.85 0-8.781 3.987-8.781 8.903 0 4.917 3.931 8.903 8.78 8.903.675 0 1.332-.077 1.963-.223v3.1H0V0Zm28.29 24.673 4.443 4.504c.356.36.356.95 0 1.31l-1.226 1.243a.906.906 0 0 1-1.291 0l-4.443-4.505a8.89 8.89 0 0 0 2.518-2.552Zm-7.338-12.062c3.907 0 7.074 3.212 7.074 7.173 0 3.962-3.168 7.174-7.075 7.174s-7.075-3.213-7.075-7.174c0-3.962 3.169-7.173 7.075-7.173Zm0 3.632a.859.859 0 0 1-.853-.865c0-.477.382-.864.852-.864a5.15 5.15 0 0 1 3.677 1.544 5.293 5.293 0 0 1 1.524 3.727.859.859 0 0 1-.853.865.859.859 0 0 1-.852-.865c0-.977-.391-1.863-1.024-2.505a3.458 3.458 0 0 0-2.47-1.037h-.002Zm-17.3-11.38a.859.859 0 0 1-.853-.865c0-.477.382-.864.852-.864h15.611c.471 0 .853.387.853.864a.859.859 0 0 1-.852.864H3.65Zm0 13.62a.859.859 0 0 1-.853-.864c0-.477.382-.864.852-.864h6.71c.47 0 .852.387.852.864a.859.859 0 0 1-.852.864H3.65Zm0-4.54a.859.859 0 0 1-.853-.865c0-.477.382-.864.852-.864h8.687c.47 0 .852.387.852.864a.859.859 0 0 1-.852.864H3.651Zm0-4.54a.859.859 0 0 1-.853-.865c0-.477.382-.864.852-.864h15.611c.471 0 .853.387.853.864a.859.859 0 0 1-.852.864H3.65Z" clip-rule="evenodd"/>
</svg>
