<svg xmlns="http://www.w3.org/2000/svg" width="30" height="36" fill="none" viewBox="0 0 30 36">
  <path fill="#7A6F66" d="m22.526 18.784-6.72 7.097a1.126 1.126 0 0 1-.823.343c-.309 0-.6-.12-.823-.343l-6.72-7.097c-1.937-2.057-1.937-5.4 0-7.474 1.92-2.04 5.314-2.04 7.234 0l.309.326.308-.326c1.92-2.04 5.315-2.04 7.235 0 1.954 2.057 1.954 5.4 0 7.457M30 6.253c0-.463-.291-.892-.737-1.046L15.394.064a1.241 1.241 0 0 0-.788 0L.737 5.207A1.108 1.108 0 0 0 0 6.253v12C0 31.916 14.571 35.91 14.709 35.96c.102.018.188.035.291.035.103 0 .189 0 .291-.035C15.446 35.927 30 31.916 30 18.27V6.253Z"/>
</svg>
