<svg xmlns="http://www.w3.org/2000/svg" width="32" height="32" fill="none" viewBox="0 0 32 32">
  <path fill="#fff" d="M10.417 9.657c1.884-1.832 1.313-6.377 1.876-6.377.562 0-.01 4.545 1.873 6.377 1.884 1.832 6.562 1.275 6.562 1.822 0 .546-4.678-.01-6.562 1.822-1.883 1.831-1.219 6.377-1.873 6.377-.657 0 .008-4.546-1.876-6.377-1.883-1.832-6.56-1.276-6.56-1.822 0-.547 4.676.01 6.56-1.822ZM5.21 3.189C6.15 2.272 5.865 0 6.146 0c.28 0-.005 2.272.937 3.189.943.916 3.28.638 3.28.91 0 .274-2.337-.004-3.28.91-.942.917-.608 3.19-.937 3.19-.328 0 .005-2.273-.936-3.19-.943-.914-3.28-.636-3.28-.91 0-.272 2.337.006 3.28-.91ZM3.28 16.072c.943-.914.657-3.188.937-3.188.282 0-.004 2.274.937 3.188.943.917 3.28.638 3.28.912 0 .273-2.337-.005-3.28.91-.941.916-.608 3.19-.937 3.19-.328 0 .006-2.274-.936-3.19C2.338 16.98 0 17.258 0 16.985c0-.274 2.338.005 3.28-.912Zm10.238 14.195a1.39 1.39 0 0 1-.58.332L8.11 31.966c-.626.177-1.207-.388-1.025-.996l1.408-4.694c.064-.212.181-.406.342-.565l4.684 4.555Zm14.954-14.533L14.688 29.13l-4.684-4.555L23.786 11.18l4.686 4.555ZM26.91 8.142a1.407 1.407 0 0 1 1.95 0l2.737 2.66a1.314 1.314 0 0 1 0 1.895l-1.955 1.9-4.686-4.555 1.955-1.9Z"/>
</svg>
