<svg xmlns="http://www.w3.org/2000/svg" width="32" height="28" fill="none" viewBox="0 0 32 28">
  <path fill="#7A6F66" d="m2.215 2.987.078-.08-.078.08Zm.275-.294.026-.026s0 .013-.026.026Zm16.943 12.48H17.14v2.334c0 .64-.511 1.16-1.14 1.16a1.15 1.15 0 0 1-1.14-1.16v-2.334h-2.293c-.63 0-1.14-.52-1.14-1.16 0-.64.51-1.16 1.14-1.16h2.293V10.52c0-.64.511-1.16 1.14-1.16.629 0 1.14.52 1.14 1.16v2.333h2.293c.63 0 1.14.52 1.14 1.16 0 .64-.51 1.16-1.14 1.16Zm10.038-12.52C27.846.96 25.645 0 23.338 0c-2.306 0-4.508.96-6.132 2.653l-1.22 1.28-1.205-1.266C13.156.96 10.955 0 8.65 0 6.343 0 4.155.96 2.53 2.667.904 4.36 0 6.64 0 9.027c0 2.386.904 4.68 2.516 6.373l11.02 11.533A3.406 3.406 0 0 0 15.986 28a3.33 3.33 0 0 0 2.451-1.067c1.992-2.093 5.36-5.6 7.352-7.693.065-.08.13-.147.196-.227l3.46-3.626c1.611-1.694 2.516-3.974 2.516-6.374 0-2.4-.904-4.68-2.516-6.373"/>
</svg>
