<svg xmlns="http://www.w3.org/2000/svg" width="63" height="63" fill="none" viewBox="0 0 63 63">
  <g clip-path="url(#a)">
    <path fill="#E02270" d="M63.021-.021H0v63.02h63.021V-.02Z"/>
    <path fill="#fff" d="M4.473 17.965v-9.64c-.095.053-.21.106-.368.158-.157.053-.315.116-.493.179-.179.063-.347.126-.504.178-.158.053-.284.105-.368.137v-1.69c.116-.064.284-.137.483-.242.2-.095.42-.21.64-.326a5.46 5.46 0 0 0 .641-.388c.2-.137.357-.263.473-.389h1.785v12.023h-2.29Zm5.974.21c-.724 0-1.323-.147-1.795-.44a2.778 2.778 0 0 1-1.071-1.23c-.242-.514-.357-1.123-.357-1.805V9.313c0-.703.115-1.323.336-1.848a2.698 2.698 0 0 1 1.05-1.239c.472-.294 1.081-.44 1.827-.44.735 0 1.333.146 1.806.44.472.294.819.714 1.05 1.24.23.524.336 1.144.336 1.847V14.7c0 .682-.116 1.28-.357 1.806a2.895 2.895 0 0 1-1.071 1.228c-.473.305-1.05.441-1.754.441Zm0-2.016c.263 0 .462-.084.578-.252.115-.168.2-.367.241-.598a3.66 3.66 0 0 0 .063-.64V9.365c0-.22-.02-.441-.052-.683a1.464 1.464 0 0 0-.231-.62c-.116-.167-.315-.262-.588-.262-.273 0-.473.084-.599.263-.126.168-.2.378-.241.62a3.93 3.93 0 0 0-.063.682v5.292c0 .2.02.41.063.64.042.231.126.43.252.599.126.178.325.262.577.262Zm26.912 25.169H25.756c-.073 0-.126.063-.126.137v3.486c0 .084.053.136.126.136H37.36c.073 0 .126-.063.126-.136v-3.476a.128.128 0 0 0-.126-.147Zm0-7.424H25.756c-.073 0-.126.063-.126.137v3.486c0 .084.053.136.126.136H37.36c.073 0 .126-.063.126-.136V34.04c.01-.074-.053-.137-.126-.137Zm-.157-5.271-5.576-5.575c-.042-.042-.094-.042-.136 0l-5.576 5.575c-.063.063-.02.168.063.168h11.14c.106 0 .148-.105.085-.168ZM42.43 45.15l5.576-5.576c.042-.042.042-.094 0-.136l-5.575-5.576c-.063-.063-.168-.02-.168.063v11.14c0 .095.105.137.168.085Zm-16.506 5.229 5.576 5.575c.042.042.094.042.136 0l5.576-5.575c.063-.063.02-.168-.063-.168H25.987c-.084 0-.126.105-.063.168Zm-5.229-16.517-5.575 5.575c-.042.043-.042.095 0 .137l5.575 5.576c.063.063.168.02.168-.063V33.934c-.01-.084-.115-.126-.168-.073Zm-2.141-23.488V5.785h1.207c.336 0 .63.042.861.116.231.073.41.2.536.378.126.178.189.42.189.724 0 .19-.021.357-.053.504a1.066 1.066 0 0 1-.189.378.835.835 0 0 1-.367.242l.703 2.268h-.924l-.609-2.1h-.42v2.1h-.934v-.021Zm.924-2.625h.283c.179 0 .326-.021.43-.074a.493.493 0 0 0 .232-.23 1.09 1.09 0 0 0 .073-.4c0-.23-.042-.399-.136-.514-.095-.116-.273-.168-.536-.168h-.336v1.386h-.01Zm2.404 2.624V5.784h2.121v.588h-1.197v1.323h.945v.588h-.945v1.523h1.208v.577h-2.132v-.01Zm2.499.001V5.785h1.187c.41 0 .735.053.966.158a.945.945 0 0 1 .493.472c.095.21.147.483.147.809v1.68c0 .336-.052.609-.147.83a.962.962 0 0 1-.483.493c-.22.105-.535.157-.934.157h-1.23v-.01Zm.924-.578h.284c.21 0 .367-.031.451-.105.095-.063.147-.168.168-.294.021-.126.032-.294.032-.483V7.161c0-.19-.01-.336-.042-.452a.415.415 0 0 0-.179-.252c-.094-.052-.241-.084-.44-.084h-.274v3.423Zm3.77.64c-.378 0-.662-.063-.872-.19a.99.99 0 0 1-.43-.535c-.084-.23-.116-.504-.116-.83V5.785h.893v3.203c0 .147.01.283.031.41a.555.555 0 0 0 .147.304c.074.073.19.115.347.115.157 0 .283-.042.357-.115a.637.637 0 0 0 .147-.305 2.61 2.61 0 0 0 .031-.41V5.785h.893v3.108c0 .326-.042.599-.116.83a.99.99 0 0 1-.43.535c-.21.116-.504.179-.882.179Zm1.805-.062v-.536l1.355-3.475h-1.28v-.578h2.215v.43l-1.407 3.581h1.417v.578h-2.3Zm2.668 0V5.785h.913v4.6h-.913v-.011Zm1.532 0V5.785h1.208c.336 0 .63.042.861.116.231.073.41.2.536.378.126.178.189.42.189.724 0 .19-.021.357-.053.504a1.066 1.066 0 0 1-.189.378.835.835 0 0 1-.367.242l.703 2.268h-.924l-.609-2.1h-.42v2.1h-.934v-.021Zm.914-2.625h.284c.178 0 .325-.021.43-.074a.493.493 0 0 0 .231-.23 1.09 1.09 0 0 0 .074-.4c0-.23-.042-.399-.137-.514-.094-.116-.273-.168-.535-.168h-.336v1.386h-.01Zm3.496 2.624 1.01-4.599h.987l1.008 4.6h-.85l-.2-1.061h-.882l-.21 1.06h-.861Zm1.166-1.585h.683l-.347-1.932-.336 1.932Zm3.434 1.648c-.305 0-.557-.052-.756-.157a1.059 1.059 0 0 1-.462-.473c-.105-.21-.158-.462-.179-.766l.788-.147a2 2 0 0 0 .073.472.656.656 0 0 0 .179.315.473.473 0 0 0 .325.116c.147 0 .252-.042.315-.126a.5.5 0 0 0 .095-.305.81.81 0 0 0-.147-.493 2.83 2.83 0 0 0-.4-.389l-.64-.514a1.663 1.663 0 0 1-.43-.473 1.207 1.207 0 0 1-.158-.64c0-.368.116-.64.347-.84.23-.2.546-.294.955-.294.242 0 .43.031.588.094a.926.926 0 0 1 .378.273c.095.116.168.252.21.4.042.146.074.304.084.472l-.787.126a2.045 2.045 0 0 0-.053-.389.494.494 0 0 0-.147-.262.44.44 0 0 0-.304-.095c-.137 0-.242.042-.315.126a.43.43 0 0 0-.105.305c0 .157.031.283.105.378.073.105.168.2.304.304l.63.504c.21.158.389.347.536.557.147.21.22.472.22.777 0 .22-.052.41-.157.588a1.084 1.084 0 0 1-.441.399c-.179.115-.4.157-.651.157ZM18.554 17.88v-4.599h1.186c.41 0 .735.053.966.158a.945.945 0 0 1 .494.472c.094.21.147.483.147.809v1.68c0 .336-.053.609-.147.83a.962.962 0 0 1-.483.493c-.231.105-.536.157-.935.157h-1.228Zm.924-.577h.283c.21 0 .368-.032.452-.105a.421.421 0 0 0 .168-.294 3.23 3.23 0 0 0 .031-.483v-1.754c0-.189-.01-.336-.042-.451a.415.415 0 0 0-.178-.252c-.095-.053-.242-.084-.441-.084h-.273v3.423Zm2.394.578v-4.599h2.121v.588h-1.207v1.323h.945v.588h-.945v1.523h1.207v.577h-2.12Zm3.77.063c-.305 0-.557-.052-.756-.157a1.059 1.059 0 0 1-.462-.473c-.105-.21-.158-.462-.179-.767l.788-.146c.01.178.031.335.073.472a.656.656 0 0 0 .179.315.473.473 0 0 0 .325.116c.147 0 .252-.042.315-.127a.5.5 0 0 0 .095-.304.81.81 0 0 0-.147-.494 2.83 2.83 0 0 0-.4-.388l-.64-.514a1.663 1.663 0 0 1-.43-.473 1.207 1.207 0 0 1-.158-.64c0-.368.116-.641.347-.84.23-.2.546-.294.955-.294.242 0 .43.031.588.094a.926.926 0 0 1 .378.273c.095.116.168.252.21.399.042.147.074.304.084.473l-.787.126a2.045 2.045 0 0 0-.053-.389.494.494 0 0 0-.147-.262c-.073-.064-.168-.095-.304-.095-.137 0-.242.042-.315.126a.43.43 0 0 0-.105.305c0 .157.031.283.105.378.073.104.168.199.304.304l.63.504c.21.158.389.347.536.557.147.21.22.472.22.776 0 .221-.052.41-.157.588a1.084 1.084 0 0 1-.441.4c-.179.115-.4.157-.651.157Zm1.616-.064v-4.599h.914v4.6h-.914Zm2.793.063c-.336 0-.598-.063-.787-.189a1.046 1.046 0 0 1-.42-.546 2.483 2.483 0 0 1-.126-.84v-1.543c0-.326.042-.61.126-.85a.994.994 0 0 1 .44-.547c.21-.126.505-.189.872-.189.347 0 .62.053.82.158.199.105.346.262.44.451.095.2.137.441.137.725v.241h-.893v-.262c0-.147-.01-.273-.031-.378a.421.421 0 0 0-.137-.242c-.073-.052-.178-.084-.336-.084-.157 0-.283.032-.357.105a.515.515 0 0 0-.136.284 2.154 2.154 0 0 0-.032.388v1.922c0 .157.01.294.042.41.032.115.084.21.158.272.073.063.189.095.336.095.147 0 .262-.032.346-.105a.481.481 0 0 0 .168-.284 1.73 1.73 0 0 0 .042-.43v-.43h-.546v-.526h1.376v2.331h-.578l-.073-.451a.86.86 0 0 1-.305.367c-.126.105-.315.147-.546.147Zm3.445.001c-.378 0-.662-.063-.872-.189a.99.99 0 0 1-.43-.535c-.084-.231-.116-.504-.116-.83v-3.108h.893v3.203c0 .147.01.283.031.41a.555.555 0 0 0 .147.304c.074.073.19.115.347.115.157 0 .283-.042.357-.115a.637.637 0 0 0 .147-.305 2.61 2.61 0 0 0 .031-.41v-3.202h.893v3.108c0 .326-.042.599-.116.83a.99.99 0 0 1-.43.535c-.21.126-.504.19-.882.19Zm1.7-.063 1.008-4.599h.987l1.008 4.6h-.85l-.2-1.061h-.882l-.21 1.06h-.86Zm1.166-1.596h.682l-.346-1.932-.336 1.932Zm2.152 1.595v-4.599h.924v4.022h1.218v.577h-2.142Zm2.436.001v-4.599h1.187c.41 0 .735.053.966.158a.945.945 0 0 1 .493.472c.095.21.147.483.147.809v1.68c0 .336-.052.609-.147.83a.962.962 0 0 1-.483.493c-.23.105-.535.157-.934.157H40.95Zm.924-.577h.284c.21 0 .367-.032.451-.105.095-.063.147-.168.168-.294.021-.126.032-.294.032-.483v-1.754c0-.189-.01-.336-.042-.451a.415.415 0 0 0-.179-.252c-.094-.053-.241-.084-.44-.084h-.274v3.423Zm2.09.576 1.008-4.599h.987l1.008 4.6h-.85l-.2-1.061h-.882l-.21 1.06h-.861Zm1.165-1.596h.683l-.347-1.932-.336 1.932Zm2.163 1.597v-4.599h1.186c.41 0 .736.053.966.158a.945.945 0 0 1 .494.472c.094.21.147.483.147.809v1.68c0 .336-.053.609-.147.83a.962.962 0 0 1-.483.493c-.231.105-.535.157-.934.157h-1.229Zm.913-.577h.284c.21 0 .367-.032.452-.105.094-.063.146-.168.167-.294.022-.126.032-.294.032-.483v-1.754c0-.189-.01-.336-.042-.451a.415.415 0 0 0-.178-.252c-.095-.053-.242-.084-.442-.084h-.273v3.423Zm2.395.576v-4.599h2.11v.588h-1.197v1.323h.945v.588h-.945v1.523h1.208v.577H50.6Zm3.77.064c-.305 0-.557-.052-.757-.157a1.059 1.059 0 0 1-.462-.473c-.105-.21-.157-.462-.178-.767l.787-.146c.01.178.032.335.074.472a.656.656 0 0 0 .178.315.473.473 0 0 0 .326.116c.147 0 .252-.042.315-.127a.5.5 0 0 0 .094-.304.81.81 0 0 0-.147-.494 2.83 2.83 0 0 0-.399-.388l-.64-.514a1.663 1.663 0 0 1-.43-.473 1.207 1.207 0 0 1-.158-.64c0-.368.115-.641.346-.84.231-.2.546-.294.956-.294.241 0 .43.031.588.094a.926.926 0 0 1 .378.273c.094.116.168.252.21.399.042.147.073.304.084.473l-.788.126a2.045 2.045 0 0 0-.052-.389.494.494 0 0 0-.147-.262c-.074-.064-.168-.095-.305-.095a.398.398 0 0 0-.315.126.43.43 0 0 0-.105.305c0 .157.032.283.105.378.074.104.168.199.305.304l.63.504c.21.158.388.347.535.557.147.21.22.472.22.776 0 .221-.052.41-.157.588a1.084 1.084 0 0 1-.44.4 1.42 1.42 0 0 1-.652.157Z"/>
  </g>
  <defs>
    <clipPath id="a">
      <path fill="#fff" d="M0 0h63v63H0z"/>
    </clipPath>
  </defs>
</svg>
