<svg xmlns="http://www.w3.org/2000/svg" width="32" height="32" fill="none" viewBox="0 0 32 32">
  <path fill="#7A6F66" d="M28.654 14.4h-3.185v-3.202h3.185V14.4Zm0 6.402h-3.185V17.6h3.185v3.2Zm-6.37-6.403h-3.186v-3.2h3.186v3.2Zm0 6.403h-3.186V17.6h3.186v3.2Zm-6.358-14.4c-.955 0-1.587-.635-1.587-1.594 0-.959.632-1.607 1.587-1.607.954 0 1.586.636 1.586 1.607 0 .972-.632 1.594-1.586 1.594ZM12.74 14.4H9.555v-3.2h3.186v3.2Zm0 6.403H9.555V17.6h3.186v3.2ZM6.37 14.4H3.184v-3.2H6.37v3.2Zm0 6.403H3.184V17.6H6.37v3.2ZM30.252 7.997h-6.37V3.2L15.925 0 7.969 3.201v4.796H1.586C.793 7.997 0 8.794 0 9.604V32h12.74v-7.038c0-1.445 1.116-2.566 2.554-2.566h1.437c1.438 0 2.54 1.121 2.54 2.566V32h12.741V9.604c-.16-.797-.793-1.607-1.747-1.607"/>
</svg>
