<svg xmlns="http://www.w3.org/2000/svg" width="36" height="36" fill="none" viewBox="0 0 36 36">
  <path fill="#fff" d="m18.438 24.98-4.062-.076c-1.315-.026-2.634.027-3.923-.247-1.962-.41-2.1-2.418-2.246-4.102-.2-2.368-.123-4.779.255-7.127.214-1.317 1.054-2.104 2.353-2.19 4.385-.31 8.8-.273 13.175-.128.462.013.928.086 1.383.168 2.25.403 2.304 2.679 2.45 4.594a26.57 26.57 0 0 1-.194 5.803c-.223 1.591-.65 2.926-2.45 3.055-2.255.168-4.46.304-6.721.26 0-.01-.013-.01-.02-.01Zm-2.388-4.029c1.7-.997 3.367-1.978 5.058-2.969-1.703-.997-3.368-1.978-5.058-2.969v5.938Z"/>
</svg>
