<svg xmlns="http://www.w3.org/2000/svg" width="63" height="63" fill="none" viewBox="0 0 63 63">
  <g clip-path="url(#a)">
    <path fill="#BE8B2C" d="M0 0h63v63H0V0Z"/>
    <path fill="#fff" d="M6.289 8.278h.019V18h2.136V5.3H6.737L4.771 7.603v2.23h.018l1.5-1.555Zm3.428-.355v1.535h1.948V7.865c0-.767.375-.992.825-.992.412 0 .768.168.768.956v1.048c0 1.05-.093 1.461-.788 2.192l-1.198 1.274C10.111 13.58 9.68 14.405 9.68 15.66v2.342h5.546v-1.743h-3.504v-.599c0-.993.356-1.368.9-1.949l1.367-1.442c1.106-1.18 1.35-1.93 1.35-3.204V7.829c0-1.818-.88-2.68-2.792-2.68-1.874 0-2.83.994-2.83 2.774Zm39.037 25.824c-2.57-2.029-5.65-2.247-6.855-2.247-.636 0-1.224.056-1.655.159l-.17.04c-1.626.383-4.35 1.026-7.52 4.961l-.094.116a.41.41 0 0 0-.023.447l.072.118c.523.875.958 1.635 1.304 2.28a.42.42 0 0 0 .678.095l.06-.083c2.738-3.788 4.884-4.292 6.304-4.626l.176-.041c.196-.048.513-.074.87-.074.66 0 2.955.11 4.746 1.523 1.593 1.257 2.4 3.265 2.4 5.97 0 4.53-2.192 6.297-4.031 6.982a6.401 6.401 0 0 1-2.247.395c-1.895 0-3.353-.758-3.372-.769l-.132-.063c-1.581-.687-3.944-2.119-6.177-6.603-4.577-9.194-8.423-10.065-10.97-10.642l-.133-.03c-.195-.044-.746-.147-1.64-.147-1.475 0-4.312.29-6.742 2.23-1.66 1.324-3.64 3.896-3.64 8.628 0 2.883.594 4.787 2.117 6.79.287.39 2.94 3.816 8.033 3.816.755 0 1.537-.076 2.326-.227.93-.178 2.365-.638 3.967-1.814l1.34 1.208a.4.4 0 0 0 .543-.025.357.357 0 0 0 .097-.254l1.035-6.38.001-.075a.378.378 0 0 0-.393-.377h-.003l-6.212 1.717-.118.02a.38.38 0 0 0-.298.396.383.383 0 0 0 .127.265l1.287 1.163c-.677.416-1.353.69-2.01.818a8.8 8.8 0 0 1-1.649.16c-3.52 0-5.251-2.31-5.323-2.407l-.035-.048c-1.07-1.406-1.432-2.604-1.432-4.746 0-2.712.794-4.722 2.36-5.972 1.742-1.39 3.983-1.498 4.63-1.498.352 0 .673.027.88.074l.137.03c2.032.46 4.815 1.09 8.675 8.842 2.038 4.091 4.594 6.768 7.806 8.18.374.19 2.366 1.14 4.92 1.14a9.806 9.806 0 0 0 3.434-.609c1.876-.7 6.242-3.093 6.242-10.169 0-4.728-2.008-7.306-3.693-8.637ZM20.111 9.09V6.597c0-.805.38-1.39 1.292-1.39.957 0 1.223.532 1.223 1.291v.608h-.79V6.43c0-.319-.107-.501-.418-.501-.312 0-.44.22-.44.531v2.765c0 .312.128.532.44.532.311 0 .418-.198.418-.502v-.949h.79v.889c0 .737-.304 1.284-1.223 1.284-.912 0-1.292-.593-1.292-1.39Zm2.978 0V6.597c0-.805.395-1.39 1.306-1.39.92 0 1.314.585 1.314 1.39v2.491c0 .798-.395 1.39-1.314 1.39-.912 0-1.306-.592-1.306-1.39Zm1.754.136V6.461c0-.311-.137-.531-.448-.531-.304 0-.44.22-.44.531v2.765c0 .311.136.532.44.532.311 0 .448-.22.448-.532Zm2.081-2.043v3.236h-.73v-5.15h.852l.934 2.954V5.27h.722v5.15h-.76l-1.018-3.236Zm2.218 2.127v-.692h.805v.707c0 .288.129.456.425.456.274 0 .395-.183.395-.456v-.198c0-.296-.121-.478-.387-.729l-.509-.509c-.494-.486-.721-.782-.721-1.375V6.34c0-.638.372-1.132 1.215-1.132.866 0 1.208.425 1.208 1.17v.418h-.79v-.449c0-.296-.137-.44-.41-.44-.244 0-.41.137-.41.425v.107c0 .288.159.455.41.698l.554.547c.47.479.699.767.699 1.337v.25c0 .707-.38 1.208-1.261 1.208-.881 0-1.223-.493-1.223-1.17Zm5.446-4.041v3.896c0 .798-.342 1.314-1.223 1.314-.912 0-1.291-.516-1.291-1.314V5.27h.865v3.98c0 .304.122.509.426.509s.425-.205.425-.51v-3.98h.798Zm2.863 1.807h-.023l-.585 3.343h-.402l-.646-3.343h-.015v3.343h-.714v-5.15h1.01l.562 2.901h.008l.501-2.901h1.094v5.15h-.79V7.075Zm1.276 2.013V6.598c0-.805.395-1.39 1.306-1.39.92 0 1.314.585 1.314 1.39v2.491c0 .798-.395 1.39-1.314 1.39-.911 0-1.306-.592-1.306-1.39Zm1.754.137V6.461c0-.311-.136-.531-.448-.531-.304 0-.44.22-.44.531v2.765c0 .311.136.532.44.532.312 0 .448-.22.448-.532Zm2.134-3.957h2.066v.706h-1.2V7.45h.859v.699h-.859v1.564h1.2v.707h-2.066V5.27Zm-22.504 7.564h1.284c.874 0 1.192.433 1.192 1.155v1.086c0 .721-.318 1.162-1.192 1.162h-.418v1.747h-.866v-5.15Zm.866.707v2.028h.32c.296 0 .425-.145.425-.426v-1.185c0-.28-.13-.418-.426-.418h-.319Zm3 2.08v2.363h-.866v-5.15h1.261c.874 0 1.193.433 1.193 1.155v.66c0 .555-.198.882-.691.995l.828 2.34h-.912l-.813-2.362Zm0-2.08v1.602h.289c.296 0 .425-.152.425-.425v-.76c0-.28-.129-.417-.425-.417h-.289Zm2.127 3.114v-2.492c0-.805.395-1.39 1.306-1.39.92 0 1.314.585 1.314 1.39v2.492c0 .797-.395 1.39-1.314 1.39-.911 0-1.306-.593-1.306-1.39Zm1.754.136v-2.764c0-.312-.136-.532-.448-.532-.304 0-.44.22-.44.532v2.764c0 .312.136.532.44.532.312 0 .448-.22.448-.532Zm4.026-2.574V16.6c0 .79-.327 1.382-1.253 1.382h-1.337v-5.15h1.337c.926 0 1.253.585 1.253 1.383Zm-1.36 3.06c.357 0 .494-.212.494-.524v-2.696c0-.304-.137-.516-.494-.516h-.364v3.736h.364Zm4.444-4.443v3.897c0 .797-.342 1.314-1.224 1.314-.911 0-1.29-.517-1.29-1.314v-3.897h.865v3.98c0 .304.122.51.425.51.304 0 .426-.206.426-.51v-3.98h.797Zm1.48 5.674c.243-.008.282-.06.282-.122 0-.053-.046-.083-.122-.083h-.038v-.281c-.737-.091-1.04-.646-1.04-1.367v-2.492c0-.805.38-1.39 1.29-1.39.958 0 1.224.532 1.224 1.292v.607h-.79v-.676c0-.319-.107-.5-.418-.5s-.44.22-.44.53v2.766c0 .31.129.531.44.531.312 0 .418-.197.418-.501v-.95h.79v.89c0 .72-.289 1.252-1.147 1.283v.068c.205.03.319.106.319.274 0 .235-.22.364-.768.364v-.243Zm2.005-.524.973-5.15h.987l.98 5.15h-.889l-.16-.942h-.918l-.152.942h-.82Zm.676-5.355c.016-.357.152-.646.532-.646.22 0 .403.13.517.13.06 0 .106-.038.106-.114h.425c-.015.357-.152.645-.531.645-.22 0-.403-.129-.517-.129-.06 0-.106.038-.106.114h-.426Zm.41 3.722h.692l-.342-2.066h-.008l-.341 2.066Zm2.286.304v-2.492c0-.805.395-1.39 1.307-1.39.92 0 1.314.585 1.314 1.39v2.492c0 .797-.395 1.39-1.314 1.39-.911 0-1.306-.593-1.306-1.39Zm1.755.136v-2.764c0-.312-.136-.532-.448-.532-.304 0-.44.22-.44.532v2.764c0 .312.136.532.44.532.312 0 .448-.22.448-.532Zm-22.603 6.395v2.362h-.866v-5.15h1.261c.874 0 1.193.433 1.193 1.155v.66c0 .555-.198.882-.692.996l.829 2.339h-.912l-.813-2.362Zm0-2.081v1.602h.289c.296 0 .425-.152.425-.425v-.76c0-.28-.129-.417-.425-.417h-.289Zm2.081-.707h2.066v.707h-1.2v1.473h.858v.699h-.858v1.565h1.2v.706h-2.066v-5.15Zm2.499 4.041v-.691h.805v.706c0 .289.13.456.425.456.274 0 .395-.182.395-.456v-.197c0-.296-.121-.479-.387-.73l-.509-.508c-.494-.486-.721-.783-.721-1.375v-.175c0-.638.372-1.131 1.215-1.131.866 0 1.208.425 1.208 1.17v.417h-.79v-.448c0-.296-.137-.44-.41-.44-.243 0-.41.136-.41.425v.106c0 .289.159.456.41.699l.554.547c.471.478.699.767.699 1.337v.25c0 .707-.38 1.208-1.261 1.208-.881 0-1.223-.494-1.223-1.17Zm2.954-4.04h1.284c.874 0 1.193.432 1.193 1.154v1.086c0 .721-.32 1.162-1.193 1.162h-.418v1.747h-.866v-5.15Zm.866.706v2.028h.32c.296 0 .425-.145.425-.426v-1.185c0-.28-.13-.417-.426-.417h-.319Zm2.081 3.114v-2.492c0-.805.395-1.39 1.307-1.39.919 0 1.314.585 1.314 1.39v2.492c0 .797-.395 1.39-1.314 1.39-.912 0-1.307-.593-1.307-1.39Zm1.755.137V21.59c0-.312-.137-.532-.448-.532-.304 0-.44.22-.44.532v2.765c0 .31.136.531.44.531.311 0 .448-.22.448-.531Zm2.111-2.044v3.236h-.729v-5.15h.85l.935 2.955v-2.955h.722v5.15h-.76l-1.018-3.236Zm2.248 2.127v-.691h.805v.706c0 .289.13.456.426.456.273 0 .395-.182.395-.456v-.197c0-.296-.122-.479-.387-.73l-.51-.508c-.493-.486-.72-.783-.72-1.375v-.175c0-.638.371-1.131 1.214-1.131.866 0 1.208.425 1.208 1.17v.417h-.79v-.448c0-.296-.137-.44-.41-.44-.243 0-.41.136-.41.425v.106c0 .289.16.456.41.699l.555.547c.47.478.698.767.698 1.337v.25c0 .707-.38 1.208-1.26 1.208-.882 0-1.224-.494-1.224-1.17Zm2.818 1.109.972-5.15h.988l.98 5.15h-.889l-.16-.942h-.919l-.152.942h-.82Zm2.172-5.514-1.36.174v-.486l1.36-.288v.6Zm-1.086 3.881h.692l-.342-2.066h-.008l-.342 2.066Zm5.006-3.517-.98 5.15h-.942l-.98-5.15h.881l.593 3.593h.007l.608-3.593h.813Zm.379 0h2.066v.707h-1.2v1.473h.858v.699h-.858v1.565h1.2v.706h-2.066v-5.15Zm2.544 0h.866v5.15h-.866v-5.15Zm1.337 4.041v-.691h.805v.706c0 .289.13.456.426.456.273 0 .395-.182.395-.456v-.197c0-.296-.122-.479-.388-.73l-.509-.508c-.493-.486-.721-.783-.721-1.375v-.175c0-.638.372-1.131 1.215-1.131.866 0 1.208.425 1.208 1.17v.417h-.79v-.448c0-.296-.137-.44-.41-.44-.243 0-.41.136-.41.425v.106c0 .289.16.456.41.699l.554.547c.471.478.699.767.699 1.337v.25c0 .707-.38 1.208-1.26 1.208-.882 0-1.224-.494-1.224-1.17Z"/>
  </g>
  <defs>
    <clipPath id="a">
      <path fill="#fff" d="M0 0h63v63H0z"/>
    </clipPath>
  </defs>
</svg>
