<svg xmlns="http://www.w3.org/2000/svg" width="29" height="23" fill="none" viewBox="0 0 29 23">
  <path fill="#fff" d="M28.496 14.406c-.649-1.665-6.91-3.942-10.847.343-1.687 1.837-2.098 4.253-1.027 5.832a.545.545 0 0 0 .076.085c1.113-2.233 2.53-3.962 4.196-5.143a.567.567 0 0 1 .8.14.547.547 0 0 1-.14.783c-1.558 1.106-2.899 2.781-3.959 4.95l-.065.151c2.239 1.761 6.348 1.718 8.23-3.823 1.017-3.007 2.898-2.889 2.725-3.308m-5.666-3.243a11.353 11.353 0 0 0-.974-4.424c-.41.408-1.016.537-1.546.644-.4.075-.811.172-1.038.344-.303.236-.53.547-.714.837-.357.505-.79 1.128-1.709 1.128-.108 0-.216 0-.346-.021-.616-.086-.984-.559-1.298-.967-.27-.354-.508-.655-.854-.73-1.027-.236-2.552.193-3.32-.58-.26-.269-.39-.623-.39-1.053.011-.837.66-1.32 1.19-1.718.379-.268.736-.547.8-.848.055-.322-.14-.784-.324-1.224-.303-.72-.703-1.686-.119-2.535a11.403 11.403 0 0 0-10.5 5.402A11.794 11.794 0 0 0 .28 8.82c1.818-1.019 4.22-1.34 5.69-.76.886.365 1.19.956 1.276 1.385.173.838-.195 1.386-.454 1.794-.26.386-.422.623-.25 1.149.433 1.342.098 2.137-.14 2.663-.184.387-.205.473-.086.676.13.226.443.269 1.114.323.627.043 1.416.107 2.022.601.519.43 1.06 1.31.952 2.416-.087.817-.606 1.998-2.455 3.072a11.49 11.49 0 0 0 8.1-.44c-.14-.151-.249-.312-.368-.462-1.384-2.03-.908-5.005 1.125-7.238 1.946-2.116 4.271-2.717 6.013-2.803m-9.095-7.217c-.14.752-.747 1.203-1.233 1.557-.444.322-.725.559-.725.816 0 .076.011.194.054.237.162.172.8.172 1.266.172.497 0 1.016 0 1.492.118.746.16 1.157.698 1.503 1.127.195.258.4.526.563.548.454.054.573-.075.94-.623.227-.344.52-.752.985-1.095.432-.333.995-.451 1.481-.559.444-.086.909-.193 1.06-.408.076-.096.13-.182.14-.257a11.398 11.398 0 0 0-3.904-3.952A11.671 11.671 0 0 0 13.551.2l-.292.29c-.39.364-.282.75.075 1.62.238.58.509 1.225.39 1.87Zm-6.77 17.397-.39.204A9.594 9.594 0 0 1 5.472 21 11.293 11.293 0 0 1 .043 10.336l.422-.28C2.13 8.95 4.434 8.671 5.537 9.133c.346.14.53.333.595.569.065.354-.043.558-.292.924-.292.45-.714 1.074-.379 2.115.303.945.098 1.385-.108 1.847-.194.44-.432.977-.043 1.686.433.795 1.32.86 2.044.902.54.033 1.038.065 1.363.344.237.204.616.72.54 1.418-.086.87-.887 1.718-2.303 2.448"/>
</svg>
