<svg xmlns="http://www.w3.org/2000/svg" width="35" height="35" fill="none" viewBox="0 0 35 35">
  <path fill="#7A6F66" d="M23.33 23.33h-3.89v3.89h-3.89v-3.89h-3.89v-3.89h3.89v-3.89h3.89v3.89h3.89v3.89ZM11.67 5.83c0-1.07.87-1.95 1.94-1.95h7.78c1.07 0 1.94.87 1.94 1.95v1.94H11.66V5.83h.01Zm19.44 1.95h-3.89V5.84c0-3.23-2.61-5.84-5.83-5.84h-7.78a5.83 5.83 0 0 0-5.83 5.83v1.94H3.89A3.903 3.903 0 0 0 0 11.67v19.44c0 2.15 1.74 3.88 3.89 3.89h27.22c2.14 0 3.88-1.74 3.89-3.89V11.67c0-2.14-1.74-3.88-3.89-3.89Z"/>
</svg>
