<svg width="32" height="32" viewBox="0 0 32 32" fill="none" xmlns="http://www.w3.org/2000/svg">
<mask id="mask0_2034_735" style="mask-type:luminance" maskUnits="userSpaceOnUse" x="4" y="3" width="24" height="26">
<path d="M27.6923 3.0769H4.30769V28.9231H27.6923V3.0769Z" fill="white"/>
</mask>
<g mask="url(#mask0_2034_735)">
<path d="M16 3.0769C19.5917 3.0769 22.4957 5.96559 22.4957 9.53844C22.4957 13.1113 19.5917 16 16 16C12.4082 16 9.50426 13.1113 9.50426 9.53844C9.50426 5.96559 12.4082 3.0769 16 3.0769Z" fill="white"/>
<path d="M10.8034 26.3386H8.20514V24.3926C8.20514 24.0125 8.46497 23.754 8.86235 23.754H10.1615C10.5589 23.754 10.8187 24.0125 10.8187 24.3926V26.3386H10.8034ZM20.2795 18.0679L19.3625 26.0802L17.2839 19.8771L18.583 18.1895C18.8428 17.8094 18.4455 17.2925 17.9258 17.2925H15.3275C14.8079 17.2925 14.548 17.8094 14.6703 18.1895L15.8319 19.8771L13.7533 26.0802L12.7139 17.6878C7.77719 19.2385 4.26185 23.6324 4.26185 28.9232H27.6465C27.6465 24.0125 24.5285 19.7555 20.249 18.0679" fill="white"/>
</g>
</svg>
