<svg xmlns="http://www.w3.org/2000/svg" width="32" height="32" fill="none" viewBox="0 0 32 32">
  <path fill="#fff" d="M16 0c-1.627 0-2.895.995-3.67 2.305-1.325-.748-2.922-.976-4.33-.163S5.988 4.45 5.972 5.972c-1.522.017-3.017.62-3.83 2.028-.814 1.409-.585 3.005.163 4.33C.995 13.105 0 14.373 0 16c0 1.627.995 2.895 2.305 3.67-.748 1.325-.977 2.922-.163 4.33.813 1.408 2.308 2.012 3.83 2.028.016 1.522.62 3.017 2.028 3.83 1.408.814 3.005.585 4.33-.163C13.105 31.005 14.373 32 16 32a.888.888 0 0 0 .888-.888v-.89h2.824A2.682 2.682 0 0 0 22.222 32a2.68 2.68 0 0 0 2.666-2.667 2.68 2.68 0 0 0-2.666-2.666c-1.15 0-2.14.746-2.51 1.778h-2.824v-2.667h3.557a.892.892 0 0 0 .628-1.518.89.89 0 0 0-.628-.26h-3.557v-3.555h8v2.02A1.79 1.79 0 0 0 24 24c0 .972.807 1.778 1.778 1.778.97 0 1.777-.806 1.777-1.778a1.79 1.79 0 0 0-.888-1.535v-2.91a.89.89 0 0 0-.889-.888h-8.89v-1.779h9.935a2.68 2.68 0 0 0 2.51 1.779A2.681 2.681 0 0 0 32 16a2.681 2.681 0 0 0-2.667-2.667 2.68 2.68 0 0 0-2.51 1.779h-9.935v-1.779h8.89a.89.89 0 0 0 .889-.888v-2.91A1.79 1.79 0 0 0 27.555 8c0-.972-.807-1.778-1.777-1.778C24.807 6.222 24 7.028 24 8c0 .648.36 1.225.888 1.535v2.02h-8V8h3.557a.89.89 0 0 0 0-1.778h-3.557V3.555h2.824a2.682 2.682 0 0 0 2.51 1.778 2.68 2.68 0 0 0 2.666-2.666A2.68 2.68 0 0 0 22.222 0c-1.15 0-2.14.747-2.51 1.778h-2.824v-.89A.888.888 0 0 0 16 0ZM9.778 5.334a.89.89 0 0 1 .889.888 2.653 2.653 0 0 0 2.666 2.667.891.891 0 0 1 .629 1.518.89.89 0 0 1-.629.26c-2.443 0-4.445-2-4.445-4.445a.89.89 0 0 1 .89-.888Zm-3.556 7.111a4.46 4.46 0 0 1 4.246 3.135 4.411 4.411 0 0 1 1.977-.468.89.89 0 0 1 0 1.777 2.653 2.653 0 0 0-2.667 2.666.888.888 0 0 1-.261.629A.888.888 0 0 1 8 19.555c0-.991.33-1.913.885-2.655l.003-.005v-.006a2.653 2.653 0 0 0-2.666-2.667.888.888 0 1 1 0-1.777Zm7.111 8.889a.89.89 0 0 1 0 1.778 2.653 2.653 0 0 0-2.666 2.667.89.89 0 0 1-1.779 0 4.459 4.459 0 0 1 4.445-4.445Z"/>
</svg>
