<svg width="152" height="28" viewBox="0 0 152 28" fill="none" xmlns="http://www.w3.org/2000/svg">
<path d="M4.60947 19.3195C3.41301 19.3195 2.3173 19.0802 2.3173 17.6571C2.3173 16.4354 3.08562 15.9568 4.6725 15.9568H7.2417V17.443C7.2417 19.0802 6.12078 19.3195 4.60947 19.3195ZM4.34504 8.96704C3.57679 8.96704 3.07301 9.00479 2.68259 9.05517C1.72542 9.18111 1.02013 10.9066 1.41055 11.2844C1.47352 11.3222 1.56171 11.3473 1.67506 11.3473C1.77581 11.3473 1.88913 11.3347 2.04027 11.2969C2.50625 11.1962 3.35008 11.0829 4.49616 11.0829C6.15861 11.0829 7.25431 11.4229 7.25431 12.9091V14.0803H4.68503C2.12839 14.0803 0.390422 14.7982 0 16.8007V18.6143C0.377828 20.5286 2.0025 21.4102 4.65989 21.4102C8.11072 21.4102 9.63465 20.2137 9.63465 17.5689V12.9091C9.63465 9.89902 7.50621 8.96704 4.35764 8.96704" fill="#5B2D82"/>
<path d="M56.0318 19.3195C54.8353 19.3195 53.7396 19.0802 53.7396 17.6571C53.7396 16.4354 54.5079 15.9568 56.0947 15.9568H58.664V17.443C58.664 19.0802 57.5431 19.3195 56.0318 19.3195ZM55.7799 8.96704C55.0116 8.96704 54.5079 9.00479 54.1174 9.05517C53.1603 9.18111 52.4551 10.9066 52.8455 11.2844C52.9084 11.3222 52.9966 11.3473 53.1099 11.3473C53.2107 11.3473 53.3241 11.3347 53.4752 11.2969C53.9412 11.1962 54.7849 11.0829 55.931 11.0829C57.5935 11.0829 58.6892 11.4229 58.6892 12.9091V14.0803H56.12C53.1981 14.0803 51.3593 15.0123 51.3593 17.7075C51.3593 20.2515 53.0595 21.4102 56.0947 21.4102C59.13 21.4102 60.6287 20.5034 60.9813 18.5513V11.9519C60.5657 9.6975 58.5758 8.96704 55.7925 8.96704" fill="#5B2D82"/>
<path d="M17.8459 8.9672H17.8208C14.307 8.9672 12.7075 10.68 12.7075 13.6271V19.4708C12.7075 20.3902 13.4631 21.1584 14.3951 21.1584H14.7729C14.9744 21.1584 15.1382 20.9947 15.1382 20.7932V13.6271C15.1382 12.1157 15.6293 11.2719 17.8333 11.2719C20.0373 11.2719 20.5285 12.1157 20.5285 13.6271V19.4834C20.5285 20.239 21.0449 20.8814 21.7376 21.0829C21.8887 21.1333 22.0399 21.1458 22.2036 21.1458H22.5814C22.7829 21.1458 22.9466 20.9821 22.9466 20.7806V13.6145C22.9466 10.6674 21.3471 8.95459 17.8333 8.95459L17.8459 8.9672Z" fill="#5B2D82"/>
<path d="M26.8509 9.21899H26.4226C26.196 9.21899 26.0196 9.39532 26.0196 9.62202V19.2818C26.0196 20.1257 26.599 20.8309 27.3672 21.0576C27.5309 21.108 27.7073 21.1332 27.8836 21.1332H28.3118C28.5385 21.1332 28.7148 20.9569 28.7148 20.7302V11.0704C28.7148 10.2265 28.1355 9.52125 27.3672 9.29456C27.2035 9.24418 27.0272 9.21899 26.8509 9.21899Z" fill="#5B2D82"/>
<path d="M8.24919 3.42578H7.93434L5.06288 4.9245L2.141 3.42578H1.81354C1.81354 3.42578 1.80093 3.46359 1.80093 3.48878V4.10588C1.80093 4.69781 2.07804 5.06306 2.54403 5.34013L5.03767 6.78847L7.56913 5.31492C8.00993 5.06304 8.24919 4.67262 8.24919 4.10588V3.48878C8.24919 3.48878 8.24918 3.45097 8.23659 3.42578" fill="#5B2D82"/>
<path d="M43.7273 8.96686C41.9641 8.96686 40.8054 9.62175 40.1883 10.7174C39.5964 9.60915 38.4755 8.96686 36.6619 8.96686C33.3874 8.96686 31.8761 10.6797 31.8761 13.6267V19.2941C31.8761 20.138 32.3925 20.8432 33.0852 21.0699C33.2237 21.1077 33.3622 21.1329 33.5007 21.1455C33.5133 21.1455 33.526 21.1455 33.5512 21.1455H33.929C34.1305 21.1455 34.2942 20.9692 34.2942 20.7425V20.0876V13.6267C34.2942 12.1154 34.7224 11.2716 36.6493 11.2716C38.5762 11.2716 38.9793 12.1154 38.9793 13.6267V17.6695V19.2941C38.9793 20.138 39.483 20.8432 40.1505 21.0699C40.2765 21.1077 40.4024 21.1329 40.5284 21.1455C40.5535 21.1455 40.5787 21.1455 40.6039 21.1455H40.9691C41.158 21.1455 41.3218 20.9692 41.3218 20.7425V18.5511V13.6142C41.3218 12.1028 41.7752 11.259 43.7021 11.259C45.6291 11.259 46.032 12.1028 46.032 13.6142V19.2816C46.032 20.1254 46.5484 20.8306 47.2411 21.0573C47.3671 21.0951 47.493 21.1203 47.6315 21.1329C47.6567 21.1329 47.6819 21.1329 47.7071 21.1329H48.0849C48.2864 21.1329 48.4501 20.9566 48.4501 20.7299V18.5385V13.6015C48.4501 10.5915 47.0774 8.94165 43.6895 8.94165" fill="#5B2D82"/>
<path d="M76.1726 19.2381C76.1726 21.2292 74.8237 22.2141 72.126 22.2141C70.7558 22.2141 69.5782 22.0214 68.5933 21.5932C68.4221 21.529 68.3578 21.4433 68.4007 21.3363L68.6148 20.7154C68.6576 20.5441 68.7646 20.5013 68.9145 20.5655C69.8351 20.9509 70.8842 21.1222 72.0404 21.1222C73.0253 21.1222 73.7532 20.9723 74.2242 20.6726C74.6953 20.3728 74.9308 19.9018 74.9308 19.2381C74.9308 18.9169 74.8665 18.6386 74.7381 18.3817C74.6096 18.1462 74.3741 17.9321 74.0315 17.7179C73.689 17.5253 73.3892 17.3754 73.1323 17.2683C72.8754 17.1613 72.4472 16.99 71.8905 16.7759C71.8049 16.7545 71.6336 16.6903 71.3767 16.6046C71.1198 16.519 70.9485 16.4547 70.8628 16.4119C70.7772 16.3691 70.6059 16.3049 70.3918 16.2192C70.1777 16.1336 70.0278 16.0479 69.9422 15.9837L69.5568 15.7268C69.3855 15.6197 69.2571 15.5127 69.1928 15.4271C69.1072 15.3414 69.0215 15.2129 68.9145 15.0631C68.786 14.9346 68.7004 14.7847 68.6576 14.6349C68.6148 14.5064 68.5719 14.3351 68.5291 14.1424C68.4863 13.9497 68.4863 13.7356 68.4863 13.5215C68.4863 11.6803 69.7067 10.7596 72.1903 10.7596C73.4749 10.7596 74.5882 10.9737 75.4874 11.3805C75.6159 11.4662 75.6801 11.5518 75.6373 11.6588L75.4446 12.2369C75.4018 12.3868 75.2948 12.4296 75.1449 12.3868C74.2457 12.0442 73.3036 11.8515 72.3187 11.8515C71.3981 11.8515 70.7344 12.0014 70.3276 12.2583C69.8994 12.5153 69.7067 12.9435 69.7067 13.5215C69.7067 13.7785 69.7495 14.014 69.8565 14.2281C69.9636 14.4422 70.0707 14.6135 70.1991 14.7419C70.3276 14.8704 70.5417 15.0203 70.8628 15.1701C71.1626 15.3414 71.4195 15.4485 71.6122 15.5127C71.8049 15.5983 72.1474 15.7054 72.6185 15.8553C73.1751 16.0694 73.6248 16.2406 73.9887 16.4119C74.3313 16.5832 74.6953 16.8187 75.0807 17.0756C75.4446 17.3326 75.723 17.6537 75.8942 17.9963C76.0655 18.3603 76.1726 18.7671 76.1726 19.2381ZM83.3074 22.2141C81.7016 22.2141 80.4598 21.7217 79.5606 20.7154C78.6613 19.7305 78.2331 18.3174 78.2331 16.4976C78.2331 14.6777 78.6613 13.2646 79.5606 12.2583C80.4598 11.2735 81.7016 10.7596 83.3074 10.7596C84.8917 10.7596 86.1549 11.2735 87.0542 12.2583C87.9534 13.2646 88.403 14.6777 88.403 16.4976C88.403 18.3174 87.9534 19.7305 87.0542 20.7154C86.1549 21.7217 84.8917 22.2141 83.3074 22.2141ZM83.3074 21.1008C84.5278 21.1008 85.4698 20.7154 86.1335 19.9446C86.7758 19.1738 87.1184 18.0177 87.1184 16.4976C87.1184 14.9988 86.7758 13.8427 86.1335 13.0505C85.4698 12.2797 84.5278 11.8729 83.3074 11.8729C82.0656 11.8729 81.1235 12.2797 80.4812 13.0505C79.8389 13.8427 79.5178 14.9988 79.5178 16.4976C79.5178 18.0177 79.8389 19.1738 80.4812 19.9446C81.1235 20.7154 82.0656 21.1008 83.3074 21.1008ZM92.621 7.22692V21.7431C92.621 21.9144 92.5354 22 92.3641 22H91.6147C91.4434 22 91.3792 21.9144 91.3792 21.7431V7.22692C91.3792 7.07705 91.4434 6.99141 91.6147 6.99141H92.3641C92.5354 6.99141 92.621 7.07705 92.621 7.22692ZM96.0159 18.2318V11.2949C96.0159 11.1236 96.1015 11.0165 96.2728 11.0165H97.0007C97.172 11.0165 97.2577 11.1236 97.2577 11.2949V18.0391C97.2577 20.0517 98.2211 21.0579 100.148 21.0579C101.176 21.0579 102.032 20.7582 102.696 20.1373C103.36 19.5378 103.702 18.7242 103.702 17.7179V11.2949C103.702 11.1236 103.788 11.0165 103.959 11.0165H104.708C104.858 11.0165 104.944 11.1236 104.944 11.2949V21.7431C104.944 21.9144 104.858 22 104.708 22H103.959C103.788 22 103.702 21.9144 103.702 21.7431V20.0517C103.445 20.6512 102.996 21.1436 102.396 21.5718C101.775 22 100.94 22.2141 99.8911 22.2141C98.5851 22.2141 97.6216 21.8715 96.9793 21.165C96.337 20.4799 96.0159 19.495 96.0159 18.2318ZM107.881 16.4762C107.881 14.6777 108.331 13.2646 109.252 12.2583C110.151 11.2735 111.393 10.7596 112.977 10.7596C114.197 10.7596 115.204 10.9951 115.974 11.4233C116.146 11.5304 116.189 11.6374 116.146 11.7445L115.889 12.344C115.825 12.5153 115.696 12.5581 115.525 12.4724C114.818 12.1085 114.005 11.9158 113.105 11.9158C111.842 11.9158 110.879 12.3012 110.194 13.0719C109.509 13.8427 109.166 14.9774 109.166 16.4762C109.166 17.9749 109.509 19.131 110.194 19.9018C110.879 20.694 111.821 21.0794 113.041 21.0794C114.047 21.0794 114.925 20.8653 115.675 20.4371C115.825 20.3728 115.932 20.4156 115.996 20.5655L116.253 21.1864C116.296 21.3149 116.231 21.4005 116.06 21.4862C115.246 21.9786 114.24 22.2141 113.063 22.2141H112.891C113.619 22.6423 114.005 23.1562 114.005 23.7771C114.005 24.6977 113.341 25.1473 112.035 25.1473C111.65 25.1473 111.414 25.1259 111.328 25.0831C111.2 25.0403 111.157 24.976 111.157 24.869V24.4622C111.157 24.3765 111.221 24.3123 111.35 24.3123H111.906C112.677 24.3123 113.063 24.0982 113.063 23.6272C113.063 23.0277 112.592 22.5138 111.671 22.0642C110.472 21.8073 109.551 21.1864 108.888 20.2229C108.202 19.2595 107.881 18.0177 107.881 16.4762ZM123.138 22.2141C121.532 22.2141 120.29 21.7217 119.391 20.7154C118.492 19.7305 118.064 18.3174 118.064 16.4976C118.064 14.6777 118.492 13.2646 119.391 12.2583C120.29 11.2735 121.532 10.7596 123.138 10.7596C124.722 10.7596 125.986 11.2735 126.885 12.2583C127.784 13.2646 128.234 14.6777 128.234 16.4976C128.234 18.3174 127.784 19.7305 126.885 20.7154C125.986 21.7217 124.722 22.2141 123.138 22.2141ZM123.138 21.1008C124.358 21.1008 125.3 20.7154 125.964 19.9446C126.606 19.1738 126.949 18.0177 126.949 16.4976C126.949 14.9988 126.606 13.8427 125.964 13.0505C125.3 12.2797 124.358 11.8729 123.138 11.8729C121.896 11.8729 120.954 12.2797 120.312 13.0505C119.67 13.8427 119.348 14.9988 119.348 16.4976C119.348 18.0177 119.67 19.1738 120.312 19.9446C120.954 20.7154 121.896 21.1008 123.138 21.1008ZM126.2 8.10474C126.2 8.53295 126.071 8.8541 125.857 9.11103C125.643 9.36795 125.322 9.475 124.894 9.475C124.38 9.475 123.823 9.34654 123.202 9.06821L122.731 8.87551C122.217 8.68282 121.853 8.57577 121.596 8.57577C121.297 8.57577 121.104 8.70423 121.061 8.93975L120.997 9.19667C120.954 9.36795 120.847 9.43218 120.676 9.43218H120.312C120.141 9.43218 120.076 9.32513 120.076 9.11103C120.076 8.70423 120.183 8.38308 120.397 8.12616C120.612 7.86923 120.954 7.74077 121.382 7.74077C121.768 7.74077 122.346 7.89064 123.074 8.16898L123.588 8.36167C124.101 8.57577 124.487 8.68282 124.722 8.68282C125.022 8.68282 125.193 8.53295 125.258 8.23321L125.3 8.0191C125.3 7.86923 125.407 7.78359 125.6 7.78359H125.986C126.114 7.78359 126.2 7.89064 126.2 8.10474ZM136.006 21.165C137.098 21.165 138.082 20.9295 138.939 20.4585C139.089 20.3728 139.217 20.4371 139.303 20.6083L139.517 21.165C139.56 21.2935 139.496 21.4005 139.346 21.4647C138.339 22 137.205 22.2569 135.941 22.2569C134.229 22.2569 132.901 21.7645 131.959 20.7368C131.017 19.7091 130.546 18.3174 130.546 16.519C130.546 14.6991 130.974 13.286 131.852 12.2797C132.709 11.2735 133.929 10.7596 135.47 10.7596C136.969 10.7596 138.125 11.2521 138.939 12.1941C139.752 13.1362 140.159 14.3994 140.159 15.9409V16.8187C140.159 16.99 140.052 17.0756 139.881 17.0756H131.788C131.831 18.3388 132.237 19.3451 132.965 20.0731C133.693 20.801 134.721 21.165 136.006 21.165ZM135.47 11.8515C133.115 11.8515 131.895 13.2432 131.788 16.0265H138.939V15.8553C138.939 14.6563 138.639 13.6714 138.061 12.9435C137.462 12.2155 136.605 11.8515 135.47 11.8515ZM149.979 19.2381C149.979 21.2292 148.631 22.2141 145.933 22.2141C144.563 22.2141 143.385 22.0214 142.4 21.5932C142.229 21.529 142.165 21.4433 142.207 21.3363L142.422 20.7154C142.464 20.5441 142.571 20.5013 142.721 20.5655C143.642 20.9509 144.691 21.1222 145.847 21.1222C146.832 21.1222 147.56 20.9723 148.031 20.6726C148.502 20.3728 148.738 19.9018 148.738 19.2381C148.738 18.9169 148.673 18.6386 148.545 18.3817C148.416 18.1462 148.181 17.9321 147.838 17.7179C147.496 17.5253 147.196 17.3754 146.939 17.2683C146.682 17.1613 146.254 16.99 145.697 16.7759C145.612 16.7545 145.44 16.6903 145.184 16.6046C144.927 16.519 144.755 16.4547 144.67 16.4119C144.584 16.3691 144.413 16.3049 144.199 16.2192C143.985 16.1336 143.835 16.0479 143.749 15.9837L143.364 15.7268C143.192 15.6197 143.064 15.5127 143 15.4271C142.914 15.3414 142.828 15.2129 142.721 15.0631C142.593 14.9346 142.507 14.7847 142.464 14.6349C142.422 14.5064 142.379 14.3351 142.336 14.1424C142.293 13.9497 142.293 13.7356 142.293 13.5215C142.293 11.6803 143.514 10.7596 145.997 10.7596C147.282 10.7596 148.395 10.9737 149.294 11.3805C149.423 11.4662 149.487 11.5518 149.444 11.6588L149.251 12.2369C149.209 12.3868 149.102 12.4296 148.952 12.3868C148.052 12.0442 147.11 11.8515 146.126 11.8515C145.205 11.8515 144.541 12.0014 144.134 12.2583C143.706 12.5153 143.514 12.9435 143.514 13.5215C143.514 13.7785 143.556 14.014 143.663 14.2281C143.77 14.4422 143.877 14.6135 144.006 14.7419C144.134 14.8704 144.349 15.0203 144.67 15.1701C144.969 15.3414 145.226 15.4485 145.419 15.5127C145.612 15.5983 145.954 15.7054 146.425 15.8553C146.982 16.0694 147.432 16.2406 147.796 16.4119C148.138 16.5832 148.502 16.8187 148.887 17.0756C149.251 17.3326 149.53 17.6537 149.701 17.9963C149.872 18.3603 149.979 18.7671 149.979 19.2381Z" fill="#5B2D82"/>
</svg>
