<svg xmlns="http://www.w3.org/2000/svg" width="18" height="32" fill="none" viewBox="0 0 18 32">
  <path fill="#fff" d="M7.88 9.469c-1.394 0-2.297.063-3.01.15-1.728.228-3.016 3.226-2.31 3.88.127.066.287.098.484.098.18 0 .398-.028.652-.075.845-.17 2.367-.378 4.435-.378 2.998 0 4.984.587 4.984 3.175v2.049H8.467C3.836 18.367.697 19.62 0 23.09v3.155c.673 3.333 3.635 4.865 8.426 4.865 6.252 0 8.996-2.088 8.996-6.685v-8.103c0-5.223-3.844-6.85-9.546-6.85m.472 18.002c-2.154 0-4.14-.417-4.14-2.883 0-2.132 1.396-2.967 4.267-2.967h4.648v2.592c0 2.84-2.026 3.258-4.775 3.258ZM14.577 0h-.547L9.006 2.597 3.883 0H3.32a.23.23 0 0 0-.024.103v1.085c0 1.038.484 1.67 1.306 2.151l4.364 2.523L13.403 3.3c.781-.446 1.194-1.113 1.194-2.116V.107A.234.234 0 0 0 14.573 0"/>
</svg>
