<svg width="128" height="56" viewBox="0 0 128 56" fill="none" xmlns="http://www.w3.org/2000/svg">
<g clip-path="url(#clip0_1_1294)">
<path d="M9.13674 11.6099C7.51877 11.6099 6.47185 11.6859 5.64384 11.7904C3.64042 12.0661 2.14618 15.6825 2.96468 16.4714C3.1122 16.5522 3.29779 16.5902 3.52621 16.5902C3.73559 16.5902 3.9878 16.5569 4.28284 16.4999C5.26314 16.2955 7.02862 16.0437 9.42702 16.0437C12.9056 16.0437 15.2089 16.7517 15.2089 19.874V22.3451H9.81723C4.44464 22.3451 0.804221 23.8563 -0.00476074 28.043V31.8495C0.775669 35.8699 4.21146 37.7185 9.76965 37.7185C17.0219 37.7185 20.2055 35.1998 20.2055 29.654V19.8787C20.2055 13.5773 15.7466 11.6146 9.13198 11.6146M9.67923 33.3322C7.1809 33.3322 4.87768 32.8285 4.87768 29.8536C4.87768 27.2826 6.49565 26.2752 9.82675 26.2752H15.2184V29.4021C15.2184 32.8285 12.8676 33.3322 9.67923 33.3322Z" fill="white"/>
<path d="M117.098 11.6099C115.48 11.6099 114.433 11.6859 113.605 11.7904C111.601 12.0661 110.107 15.6825 110.926 16.4714C111.073 16.5522 111.254 16.5902 111.487 16.5902C111.697 16.5902 111.949 16.5569 112.244 16.4999C113.224 16.2955 114.99 16.0437 117.388 16.0437C120.867 16.0437 123.17 16.7518 123.17 19.874V22.3451H117.778C111.654 22.3451 107.78 24.3125 107.78 29.9534C107.78 35.2949 111.359 37.7137 117.726 37.7137C124.093 37.7137 127.239 35.8224 127.99 31.7117V17.8733C127.11 13.1496 122.946 11.6099 117.088 11.6099M117.636 33.3322C115.137 33.3322 112.834 32.8285 112.834 29.8536C112.834 27.2826 114.452 26.2752 117.783 26.2752H123.175V29.4021C123.175 32.8285 120.824 33.3322 117.636 33.3322Z" fill="white"/>
<path d="M37.4559 11.6099H37.4321H37.4083C30.0275 11.6289 26.6821 15.2025 26.6821 21.3852V33.6316C26.6821 35.5705 28.2715 37.1577 30.2131 37.1577H31.0173C31.4361 37.1577 31.7787 36.8156 31.7787 36.3974V21.3852C31.774 18.2154 32.8066 16.4524 37.4321 16.4476C42.0575 16.4524 43.0902 18.2154 43.0902 21.3852V33.6553C43.0902 35.2473 44.1704 36.5922 45.6313 37.0199C45.9454 37.1102 46.2738 37.1625 46.6116 37.1625H47.4159C47.8346 37.1625 48.1773 36.8203 48.1773 36.4021V21.3899C48.1773 15.2025 44.8319 11.6289 37.4511 11.6146L37.4559 11.6099Z" fill="white"/>
<path d="M56.3765 12.1611H55.4819C55.0155 12.1611 54.6348 12.5413 54.6348 13.007V33.2657C54.6444 35.0287 55.8436 36.5257 57.4663 36.9962C57.8137 37.096 58.1801 37.153 58.5608 37.153H59.4554C59.9218 37.153 60.3025 36.7728 60.3025 36.3118V16.0532C60.293 14.2901 59.0938 12.7932 57.471 12.3227C57.1237 12.2229 56.7572 12.1659 56.3765 12.1659" fill="white"/>
<path d="M17.317 0H16.6603L10.6357 3.12695L4.49222 0H3.81649C3.79745 0.0380177 3.78793 0.0807875 3.78793 0.123557V1.43041C3.78793 2.68024 4.3685 3.4406 5.35355 4.02037L10.5881 7.05703L15.9084 3.97284C16.8459 3.43585 17.3408 2.63272 17.3408 1.42566V0.12831C17.3408 0.0807875 17.3312 0.0380177 17.3122 0" fill="white"/>
<path d="M91.8099 11.6099C88.1029 11.6099 85.6807 12.969 84.3959 15.2881C83.1586 12.969 80.7888 11.6099 76.9818 11.6099C70.1102 11.6099 66.9456 15.1883 66.9456 21.3852V21.4042L66.9647 33.2609C66.9742 35.024 68.0449 36.5209 69.5011 36.9914C69.7818 37.0817 70.0769 37.134 70.3862 37.1482C70.4195 37.1482 70.4481 37.1482 70.4814 37.1482H71.2808C71.6996 37.1482 72.0375 36.768 72.0375 36.3071V34.9052V21.3899C72.0375 18.2154 72.9274 16.4524 76.9818 16.4524C81.0362 16.4524 81.8738 18.2154 81.8738 21.3899V21.4279L81.8833 29.8631V33.2657C81.8928 35.0287 82.9349 36.5257 84.353 36.9962C84.6053 37.0817 84.8717 37.134 85.143 37.1482C85.1953 37.1482 85.2524 37.153 85.3048 37.153H86.0852C86.4897 37.153 86.8228 36.7728 86.8228 36.3118V31.726V21.3899C86.8228 18.2154 87.7603 16.4524 91.8147 16.4524C95.8691 16.4524 96.7067 18.2154 96.7067 21.3899V21.4089V29.8631V33.2657C96.7162 35.0287 97.7917 36.5257 99.2526 36.9962C99.5143 37.0817 99.7903 37.134 100.071 37.1482C100.123 37.1482 100.181 37.153 100.233 37.153H101.037C101.456 37.153 101.799 36.7728 101.799 36.3118V31.726V21.3899C101.799 15.0885 98.929 11.6146 91.8147 11.6146" fill="white"/>
<path d="M28.0288 50.397V52.8966H31.5075C31.6645 52.8966 31.7406 52.9679 31.7406 53.1152V53.7758C31.7406 53.9374 31.6645 54.0182 31.5075 54.0182H27.0057C26.8439 54.0182 26.763 53.9421 26.763 53.7853V46.082C26.763 45.9252 26.8392 45.8491 26.9962 45.8491H31.4646C31.6264 45.8491 31.7073 45.9252 31.7073 46.082V46.7425C31.7073 46.8994 31.6264 46.9754 31.4646 46.9754H28.0336V49.2992H31.3362C31.4837 49.2992 31.5551 49.38 31.5551 49.5416V50.1451C31.5551 50.3067 31.4837 50.3875 31.3362 50.3875H28.0336L28.0288 50.397Z" fill="white"/>
<path d="M40.0161 52.2126C39.564 52.645 38.8645 52.8636 37.9175 52.8636H36.8705V47.0184H37.9079C38.8549 47.0184 39.5545 47.2228 40.0113 47.6362C40.4681 48.0449 40.6966 48.7767 40.6966 49.8317C40.6966 50.9865 40.4681 51.7801 40.0161 52.2126ZM40.9821 46.7808C40.3016 46.163 39.2832 45.8589 37.927 45.8589H35.8189C35.6618 45.8589 35.5857 45.9349 35.5857 46.0917V53.7951C35.5857 53.9519 35.6666 54.0279 35.8284 54.0279H37.946C39.3023 54.0279 40.3159 53.7095 40.9868 53.068C41.6578 52.4264 41.9909 51.3524 41.9909 49.8317C41.9909 48.4156 41.6531 47.3986 40.9726 46.7808" fill="white"/>
<path d="M46.6116 53.372C46.0882 52.8445 45.8264 52.0889 45.8264 51.1052V46.0869C45.8264 45.93 45.9026 45.854 46.0596 45.854H46.8638C47.0256 45.854 47.1065 45.93 47.1065 46.0869V51.0006C47.1065 52.3313 47.7252 52.9966 48.9672 52.9966C50.2092 52.9966 50.8421 52.3313 50.8421 51.0006V46.0869C50.8421 45.93 50.9183 45.854 51.0753 45.854H51.8891C52.0366 45.854 52.108 45.93 52.108 46.0869V51.1052C52.108 52.0889 51.8462 52.8445 51.3228 53.372C50.7993 53.8995 50.0141 54.1609 48.9672 54.1609C47.9203 54.1609 47.1351 53.8995 46.6116 53.372Z" fill="white"/>
<path d="M61.416 52.6166C61.554 52.5644 61.6587 52.6071 61.7301 52.7545L61.9966 53.358C62.0442 53.4578 61.9871 53.5481 61.8348 53.6241C61.278 53.9663 60.5642 54.1326 59.6934 54.1326C58.5084 54.1326 57.59 53.7714 56.9428 53.0538C56.2956 52.3315 55.972 51.2908 55.972 49.9269C55.972 48.563 56.2909 47.5318 56.9333 46.8094C57.571 46.0871 58.4751 45.7212 59.6363 45.7212C60.4881 45.7212 61.1971 45.8828 61.7539 46.2107C61.8919 46.2867 61.9442 46.3817 61.9062 46.4911L61.6492 47.0851C61.5969 47.2324 61.4922 47.2704 61.3351 47.1991C60.8878 46.9805 60.3834 46.876 59.8361 46.876C58.1277 46.876 57.2759 47.893 57.2759 49.9316C57.2759 51.9703 58.1468 52.9968 59.8837 52.9968C60.4405 52.9968 60.9544 52.8685 61.4208 52.6119" fill="white"/>
<path d="M67.3739 50.9436L68.7016 47.1228H68.7254L70.0388 50.9436H67.3739ZM72.342 53.7664L69.5153 46.0869C69.482 46.0013 69.4487 45.9443 69.4154 45.9063C69.3821 45.873 69.3155 45.854 69.2251 45.854H68.2019C68.1068 45.854 68.0449 45.873 68.0068 45.9063C67.9688 45.9395 67.9307 46.0013 67.9021 46.0869L65.0755 53.7664C65.0517 53.8377 65.0564 53.8947 65.0945 53.947C65.1326 53.9993 65.1849 54.023 65.261 54.023H66.1462C66.2699 54.023 66.3555 53.9518 66.4031 53.814L67.0551 52.0604H70.3814L71.0239 53.814C71.0857 53.9518 71.1809 54.023 71.3046 54.023H72.1755C72.2516 54.023 72.3087 53.9993 72.342 53.947C72.3753 53.8947 72.3801 53.8377 72.3468 53.7664" fill="white"/>
<path d="M80.8363 52.6164C80.9743 52.5641 81.079 52.6069 81.1504 52.7542L81.4169 53.3578C81.4645 53.4576 81.4074 53.5478 81.2551 53.6239C80.6983 53.966 79.9845 54.1324 79.1137 54.1324H79.0899C79.542 54.389 79.7656 54.7074 79.7656 55.0876C79.7656 55.3822 79.6562 55.6056 79.442 55.7624C79.2231 55.9192 78.9138 55.9952 78.5141 55.9952C78.2714 55.9952 78.1096 55.9762 78.0239 55.9382C77.9288 55.9002 77.8859 55.8432 77.8859 55.7766V55.4155C77.8859 55.3299 77.9383 55.2872 78.0382 55.2872H78.3761C78.7711 55.2872 78.9709 55.1588 78.9709 54.9022C78.9709 54.5838 78.733 54.3034 78.2476 54.0563C77.3339 53.8995 76.6296 53.4718 76.1347 52.7685C75.6398 52.0652 75.3971 51.1195 75.3971 49.9362C75.3971 48.5818 75.716 47.5411 76.3584 46.8187C77.0008 46.0964 77.9002 45.7305 79.0613 45.7305C79.9131 45.7305 80.6222 45.892 81.179 46.2199C81.317 46.296 81.3693 46.391 81.3312 46.5003L81.0743 47.0943C81.0219 47.2417 80.9172 47.2797 80.7602 47.2084C80.3081 46.9898 79.8085 46.8853 79.2612 46.8853C77.5528 46.8853 76.701 47.9022 76.701 49.9409C76.701 51.9796 77.5719 53.0061 79.3088 53.0061C79.8656 53.0061 80.3795 52.8778 80.8459 52.6212" fill="white"/>
<path d="M89.8922 45.0603C89.7494 45.2266 89.5305 45.3122 89.2355 45.3122C88.9404 45.3122 88.6073 45.2409 88.2124 45.0936L87.8745 44.9795C87.2559 44.7847 86.9323 44.7942 86.9085 45.0033L86.8989 45.1078C86.8847 45.2219 86.8038 45.2837 86.6658 45.2837H86.3517C86.2185 45.2837 86.1518 45.1886 86.1518 45.0033C86.1518 44.7419 86.2232 44.5233 86.366 44.357C86.5087 44.1906 86.7276 44.1099 87.0227 44.1099C87.3177 44.1099 87.6651 44.1811 88.0458 44.3285L88.417 44.4663C88.6977 44.5756 88.9119 44.6279 89.0689 44.6279C89.226 44.6279 89.3116 44.5518 89.3354 44.395L89.3449 44.2809C89.3687 44.1716 89.4496 44.1194 89.5876 44.1194H89.8922C90.0302 44.1194 90.1016 44.2192 90.1016 44.4235C90.1016 44.6849 90.0302 44.9035 89.8874 45.0698" fill="white"/>
<path d="M86.7895 50.9436L88.1172 47.1228H88.141L89.4544 50.9436H86.7895ZM91.7576 53.7664L88.9309 46.0869C88.8976 46.0013 88.8643 45.9443 88.831 45.9063C88.7977 45.873 88.731 45.854 88.6406 45.854H87.6175C87.5223 45.854 87.4605 45.873 87.4224 45.9063C87.3843 45.9395 87.3463 46.0013 87.3177 46.0869L84.491 53.7664C84.4672 53.8377 84.472 53.8947 84.5101 53.947C84.5434 53.9993 84.6005 54.023 84.6766 54.023H85.5617C85.6855 54.023 85.7711 53.9518 85.8187 53.814L86.4707 52.0604H89.797L90.4347 53.814C90.4965 53.9518 90.5917 54.023 90.7154 54.023H91.5863C91.6624 54.023 91.7195 53.9993 91.7576 53.947C91.7909 53.8947 91.7957 53.8377 91.7624 53.7664" fill="white"/>
<path d="M98.3437 53.0156C96.8399 53.0156 96.088 51.9891 96.088 49.9362C96.088 47.8832 96.8399 46.8567 98.3437 46.8567C99.8474 46.8567 100.614 47.8832 100.614 49.9362C100.614 51.9891 99.8569 53.0156 98.3437 53.0156ZM100.99 46.8092C100.371 46.0869 99.4905 45.7305 98.3437 45.7305C97.1968 45.7305 96.326 46.0916 95.7073 46.8092C95.0887 47.5316 94.7841 48.5723 94.7841 49.9362C94.7841 51.3001 95.0935 52.3503 95.7073 53.0679C96.326 53.7855 97.2016 54.1419 98.3437 54.1419C99.4858 54.1419 100.371 53.7855 100.99 53.0679C101.608 52.3503 101.913 51.3096 101.913 49.9362C101.913 48.5628 101.603 47.5316 100.99 46.8092Z" fill="white"/>
</g>
<defs>
<clipPath id="clip0_1_1294">
<rect width="128" height="56" fill="white"/>
</clipPath>
</defs>
</svg>
