<svg width="470" height="195" viewBox="0 0 470 195" fill="none" xmlns="http://www.w3.org/2000/svg">
<path d="M417.771 152.7C418.509 152.7 419.111 152.097 419.111 151.359V39.726C419.111 38.9881 418.509 38.3857 417.771 38.3857C417.033 38.3857 416.43 38.9881 416.43 39.726V151.359C416.43 152.097 417.033 152.7 417.771 152.7Z" fill="white"/>
<path d="M409.262 150.531C410 150.531 410.603 149.929 410.603 149.191V37.0453C410.603 36.3074 410 35.7051 409.262 35.7051C408.525 35.7051 407.922 36.3074 407.922 37.0453V149.191C407.922 149.929 408.525 150.531 409.262 150.531Z" fill="white"/>
<path d="M400.769 148.86C401.507 148.86 402.109 148.257 402.109 147.519V35.3288C402.109 34.5909 401.507 33.9885 400.769 33.9885C400.031 33.9885 399.428 34.5909 399.428 35.3288V147.519C399.428 148.257 400.031 148.86 400.769 148.86Z" fill="white"/>
<path d="M392.275 147.625C393.013 147.625 393.616 147.022 393.616 146.284V34.4401C393.616 33.7022 393.013 33.0999 392.275 33.0999C391.538 33.0999 390.935 33.7022 390.935 34.4401V146.284C390.935 147.022 391.538 147.625 392.275 147.625Z" fill="white"/>
<path d="M383.767 146.812C384.505 146.812 385.108 146.209 385.108 145.471V34.3046C385.108 33.5667 384.505 32.9644 383.767 32.9644C383.029 32.9644 382.427 33.5667 382.427 34.3046V145.471C382.427 146.209 383.029 146.812 383.767 146.812Z" fill="white"/>
<path d="M375.274 146.36C376.012 146.36 376.614 145.758 376.614 145.02V34.9072C376.614 34.1693 376.012 33.5669 375.274 33.5669C374.536 33.5669 373.933 34.1693 373.933 34.9072V145.02C373.933 145.758 374.536 146.36 375.274 146.36Z" fill="white"/>
<path d="M366.766 146.239C367.504 146.239 368.106 145.637 368.106 144.899V36.383C368.106 35.6451 367.504 35.0427 366.766 35.0427C366.028 35.0427 365.426 35.6451 365.426 36.383V144.899C365.426 145.637 366.028 146.239 366.766 146.239Z" fill="white"/>
<path d="M358.272 146.36C359.01 146.36 359.612 145.757 359.612 145.019V38.9579C359.612 38.22 359.01 37.6177 358.272 37.6177C357.534 37.6177 356.932 38.22 356.932 38.9579V145.019C356.932 145.757 357.534 146.36 358.272 146.36Z" fill="white"/>
<path d="M349.779 146.706C350.516 146.706 351.119 146.104 351.119 145.366V42.8583C351.119 42.1204 350.516 41.5181 349.779 41.5181C349.041 41.5181 348.438 42.1204 348.438 42.8583V145.366C348.438 146.104 349.041 146.706 349.779 146.706Z" fill="white"/>
<path d="M341.271 147.308C342.009 147.308 342.611 146.706 342.611 145.968V48.3698C342.611 47.6319 342.009 47.0295 341.271 47.0295C340.533 47.0295 339.93 47.6319 339.93 48.3698V145.968C339.93 146.706 340.533 147.308 341.271 147.308Z" fill="white"/>
<path d="M332.777 148.197C333.515 148.197 334.117 147.595 334.117 146.857V55.6586C334.117 54.9207 333.515 54.3184 332.777 54.3184C332.039 54.3184 331.437 54.9207 331.437 55.6586V146.857C331.437 147.595 332.039 148.197 332.777 148.197Z" fill="white"/>
<path d="M324.283 149.402C325.021 149.402 325.624 148.799 325.624 148.061V64.4228C325.624 63.6849 325.021 63.0825 324.283 63.0825C323.546 63.0825 322.943 63.6849 322.943 64.4228V148.061C322.943 148.799 323.546 149.402 324.283 149.402Z" fill="white"/>
<path d="M315.79 150.983C316.528 150.983 317.131 150.381 317.131 149.643V73.6845C317.131 72.9466 316.528 72.3442 315.79 72.3442C315.052 72.3442 314.45 72.9466 314.45 73.6845V149.643C314.45 150.381 315.052 150.983 315.79 150.983Z" fill="white"/>
<path d="M307.282 152.956C308.02 152.956 308.622 152.353 308.622 151.615V82.1325C308.622 81.3946 308.02 80.7922 307.282 80.7922C306.544 80.7922 305.942 81.3946 305.942 82.1325V151.615C305.942 152.353 306.544 152.956 307.282 152.956Z" fill="white"/>
<path d="M298.788 155.395C299.526 155.395 300.128 154.793 300.128 154.055V88.9694C300.128 88.2315 299.526 87.6292 298.788 87.6292C298.05 87.6292 297.448 88.2315 297.448 88.9694V154.055C297.448 154.793 298.05 155.395 298.788 155.395Z" fill="white"/>
<path d="M290.28 158.302C291.018 158.302 291.62 157.699 291.62 156.962V94.0595C291.62 93.3216 291.018 92.7192 290.28 92.7192C289.542 92.7192 288.94 93.3216 288.94 94.0595V156.962C288.94 157.699 289.542 158.302 290.28 158.302Z" fill="white"/>
<path d="M281.787 161.675C282.525 161.675 283.127 161.073 283.127 160.335V97.5832C283.127 96.8453 282.525 96.2429 281.787 96.2429C281.049 96.2429 280.447 96.8453 280.447 97.5832V160.335C280.447 161.073 281.049 161.675 281.787 161.675Z" fill="white"/>
<path d="M273.293 165.44C274.031 165.44 274.633 164.837 274.633 164.099V99.872C274.633 99.1341 274.031 98.5317 273.293 98.5317C272.555 98.5317 271.953 99.1341 271.953 99.872V164.099C271.953 164.837 272.555 165.44 273.293 165.44Z" fill="white"/>
<path d="M264.785 169.43C265.523 169.43 266.125 168.828 266.125 168.09V101.077C266.125 100.339 265.523 99.7366 264.785 99.7366C264.047 99.7366 263.445 100.339 263.445 101.077V168.09C263.445 168.828 264.047 169.43 264.785 169.43Z" fill="white"/>
<path d="M256.292 173.496C257.029 173.496 257.632 172.894 257.632 172.156V101.499C257.632 100.761 257.029 100.158 256.292 100.158C255.554 100.158 254.951 100.761 254.951 101.499V172.156C254.951 172.894 255.554 173.496 256.292 173.496Z" fill="white"/>
<path d="M247.798 177.382C248.536 177.382 249.138 176.779 249.138 176.041V100.987C249.138 100.249 248.536 99.6462 247.798 99.6462C247.06 99.6462 246.458 100.249 246.458 100.987V176.041C246.458 176.779 247.06 177.382 247.798 177.382Z" fill="white"/>
<path d="M239.29 180.936C240.028 180.936 240.63 180.333 240.63 179.595V99.2548C240.63 98.5169 240.028 97.9146 239.29 97.9146C238.552 97.9146 237.949 98.5169 237.949 99.2548V179.595C237.949 180.333 238.552 180.936 239.29 180.936Z" fill="white"/>
<path d="M230.796 184.038C231.534 184.038 232.137 183.435 232.137 182.697V95.9267C232.137 95.1888 231.534 94.5864 230.796 94.5864C230.059 94.5864 229.456 95.1888 229.456 95.9267V182.697C229.456 183.435 230.059 184.038 230.796 184.038Z" fill="white"/>
<path d="M222.303 186.688C223.041 186.688 223.643 186.086 223.643 185.348V90.5053C223.643 89.7674 223.041 89.165 222.303 89.165C221.565 89.165 220.963 89.7674 220.963 90.5053V185.348C220.963 186.086 221.565 186.688 222.303 186.688Z" fill="white"/>
<path d="M213.795 188.857C214.533 188.857 215.135 188.254 215.135 187.516V82.3735C215.135 81.6356 214.533 81.0332 213.795 81.0332C213.057 81.0332 212.454 81.6356 212.454 82.3735V187.516C212.454 188.254 213.057 188.857 213.795 188.857Z" fill="white"/>
<path d="M205.301 190.619C206.039 190.619 206.642 190.016 206.642 189.278V70.9887C206.642 70.2508 206.039 69.6484 205.301 69.6484C204.563 69.6484 203.961 70.2508 203.961 70.9887V189.278C203.961 190.016 204.563 190.619 205.301 190.619Z" fill="white"/>
<path d="M196.808 191.974C197.546 191.974 198.148 191.372 198.148 190.634V56.5319C198.148 55.794 197.546 55.1917 196.808 55.1917C196.07 55.1917 195.468 55.794 195.468 56.5319V190.634C195.468 191.372 196.07 191.974 196.808 191.974Z" fill="white"/>
<path d="M188.3 192.998C189.037 192.998 189.64 192.396 189.64 191.658V41.0812C189.64 40.3433 189.037 39.741 188.3 39.741C187.562 39.741 186.959 40.3433 186.959 41.0812V191.658C186.959 192.396 187.562 192.998 188.3 192.998Z" fill="white"/>
<path d="M179.806 193.721C180.544 193.721 181.147 193.118 181.147 192.38V27.528C181.147 26.7901 180.544 26.1877 179.806 26.1877C179.068 26.1877 178.466 26.7901 178.466 27.528V192.365C178.466 193.103 179.068 193.706 179.806 193.706" fill="white"/>
<path d="M171.313 194.173C172.051 194.173 172.653 193.57 172.653 192.832V17.2729C172.653 16.535 172.051 15.9326 171.313 15.9326C170.575 15.9326 169.973 16.535 169.973 17.2729V192.832C169.973 193.57 170.575 194.173 171.313 194.173Z" fill="white"/>
<path d="M162.804 194.398C163.542 194.398 164.145 193.796 164.145 193.058V10.1345C164.145 9.39655 163.542 8.79419 162.804 8.79419C162.066 8.79419 161.464 9.39655 161.464 10.1345V193.058C161.464 193.796 162.066 194.398 162.804 194.398Z" fill="white"/>
<path d="M154.311 194.399C155.049 194.399 155.651 193.796 155.651 193.058V5.46648C155.651 4.72859 155.049 4.12622 154.311 4.12622C153.573 4.12622 152.971 4.72859 152.971 5.46648V193.058C152.971 193.796 153.573 194.399 154.311 194.399Z" fill="white"/>
<path d="M145.818 194.082C146.556 194.082 147.158 193.48 147.158 192.742V2.72552C147.158 1.98762 146.556 1.38525 145.818 1.38525C145.08 1.38525 144.477 1.98762 144.477 2.72552V192.727C144.477 193.465 145.08 194.067 145.818 194.067" fill="white"/>
<path d="M137.309 193.405C138.047 193.405 138.649 192.802 138.649 192.064V1.44574C138.649 0.707839 138.047 0.105469 137.309 0.105469C136.571 0.105469 135.969 0.707839 135.969 1.44574V192.064C135.969 192.802 136.571 193.405 137.309 193.405Z" fill="white"/>
<path d="M128.816 192.335C129.554 192.335 130.156 191.733 130.156 190.995V1.34026C130.156 0.602365 129.554 0 128.816 0C128.078 0 127.476 0.602365 127.476 1.34026V190.995C127.476 191.733 128.078 192.335 128.816 192.335Z" fill="white"/>
<path d="M120.323 190.814C121.061 190.814 121.663 190.212 121.663 189.474V2.46966C121.663 1.73176 121.061 1.12939 120.323 1.12939C119.585 1.12939 118.982 1.73176 118.982 2.46966V189.474C118.982 190.212 119.585 190.814 120.323 190.814Z" fill="white"/>
<path d="M111.814 188.811C112.552 188.811 113.154 188.209 113.154 187.471V4.98431C113.154 4.24641 112.552 3.64404 111.814 3.64404C111.076 3.64404 110.474 4.24641 110.474 4.98431V187.471C110.474 188.209 111.076 188.811 111.814 188.811Z" fill="white"/>
<path d="M103.321 186.282C104.059 186.282 104.661 185.679 104.661 184.941V8.96014C104.661 8.22224 104.059 7.61987 103.321 7.61987C102.583 7.61987 101.981 8.22224 101.981 8.96014V184.941C101.981 185.679 102.583 186.282 103.321 186.282Z" fill="white"/>
<path d="M94.8275 183.194C95.5654 183.194 96.1677 182.592 96.1677 181.854V14.4868C96.1677 13.7489 95.5654 13.1465 94.8275 13.1465C94.0896 13.1465 93.4872 13.7489 93.4872 14.4868V181.854C93.4872 182.592 94.0896 183.194 94.8275 183.194Z" fill="white"/>
<path d="M86.319 179.49C87.0569 179.49 87.6593 178.887 87.6593 178.15V21.5646C87.6593 20.8267 87.0569 20.2244 86.319 20.2244C85.5811 20.2244 84.9788 20.8267 84.9788 21.5646V178.15C84.9788 178.887 85.5811 179.49 86.319 179.49Z" fill="white"/>
<path d="M77.8257 175.183C78.5636 175.183 79.166 174.581 79.166 173.843V30.1332C79.166 29.3953 78.5636 28.793 77.8257 28.793C77.0878 28.793 76.4855 29.3953 76.4855 30.1332V173.828C76.4855 174.565 77.0878 175.168 77.8257 175.168" fill="white"/>
<path d="M69.3324 170.244C70.0702 170.244 70.6725 169.641 70.6725 168.903V40.0422C70.6725 39.3043 70.0702 38.7019 69.3324 38.7019C68.5945 38.7019 67.9921 39.3043 67.9921 40.0422V168.903C67.9921 169.641 68.5945 170.244 69.3324 170.244Z" fill="white"/>
<path d="M60.8239 164.762C61.5618 164.762 62.1642 164.16 62.1642 163.422V50.975C62.1642 50.2371 61.5618 49.6348 60.8239 49.6348C60.086 49.6348 59.4836 50.2371 59.4836 50.975V163.422C59.4836 164.16 60.086 164.762 60.8239 164.762Z" fill="white"/>
<path d="M52.3305 158.798C53.0684 158.798 53.6708 158.196 53.6708 157.458V62.4802C53.6708 61.7423 53.0684 61.1399 52.3305 61.1399C51.5926 61.1399 50.9902 61.7423 50.9902 62.4802V157.458C50.9902 158.196 51.5926 158.798 52.3305 158.798Z" fill="white"/>
<path d="M43.8371 152.519C44.575 152.519 45.1774 151.917 45.1774 151.179V74.0007C45.1774 73.2628 44.575 72.6604 43.8371 72.6604C43.0992 72.6604 42.4969 73.2628 42.4969 74.0007V151.179C42.4969 151.917 43.0992 152.519 43.8371 152.519Z" fill="white"/>
<path d="M35.3288 146.074C36.0667 146.074 36.6691 145.471 36.6691 144.733V84.9787C36.6691 84.2408 36.0667 83.6384 35.3288 83.6384C34.5909 83.6384 33.9885 84.2408 33.9885 84.9787V144.733C33.9885 145.471 34.5909 146.074 35.3288 146.074Z" fill="white"/>
<path d="M26.8354 139.658C27.5733 139.658 28.1757 139.056 28.1757 138.318V94.9025C28.1757 94.1646 27.5733 93.5623 26.8354 93.5623C26.0975 93.5623 25.4951 94.1646 25.4951 94.9025V138.318C25.4951 139.056 26.0975 139.658 26.8354 139.658Z" fill="white"/>
<path d="M18.342 133.439C19.0799 133.439 19.6823 132.837 19.6823 132.099V103.381C19.6823 102.643 19.0799 102.041 18.342 102.041C17.6041 102.041 17.0018 102.643 17.0018 103.381V132.099C17.0018 132.837 17.6041 133.439 18.342 133.439Z" fill="white"/>
<path d="M9.83369 127.551C10.5716 127.551 11.174 126.949 11.174 126.211V110.218C11.174 109.48 10.5716 108.878 9.83369 108.878C9.0958 108.878 8.49341 109.48 8.49341 110.218V126.211C8.49341 126.949 9.0958 127.551 9.83369 127.551Z" fill="white"/>
<path d="M1.34029 122.084C2.07818 122.084 2.68057 121.482 2.68057 120.744V115.293C2.68057 114.555 2.07818 113.952 1.34029 113.952C0.602388 113.952 0 114.555 0 115.293V120.744C0 121.482 0.602388 122.084 1.34029 122.084Z" fill="white"/>
<path d="M468.475 177.291C469.213 177.291 469.815 176.689 469.815 175.951V75.3559C469.815 74.618 469.213 74.0156 468.475 74.0156C467.737 74.0156 467.135 74.618 467.135 75.3559V175.951C467.135 176.689 467.737 177.291 468.475 177.291Z" fill="white"/>
<path d="M459.982 171.885C460.72 171.885 461.322 171.283 461.322 170.545V68.0825C461.322 67.3446 460.72 66.7422 459.982 66.7422C459.244 66.7422 458.641 67.3446 458.641 68.0825V170.545C458.641 171.283 459.244 171.885 459.982 171.885Z" fill="white"/>
<path d="M451.473 166.9C452.211 166.9 452.814 166.298 452.814 165.56V60.7936C452.814 60.0557 452.211 59.4534 451.473 59.4534C450.735 59.4534 450.133 60.0557 450.133 60.7936V165.56C450.133 166.298 450.735 166.9 451.473 166.9Z" fill="white"/>
<path d="M442.98 162.443C443.718 162.443 444.32 161.841 444.32 161.103V54.0021C444.32 53.2642 443.718 52.6619 442.98 52.6619C442.242 52.6619 441.639 53.2642 441.639 54.0021V161.103C441.639 161.841 442.242 162.443 442.98 162.443Z" fill="white"/>
<path d="M434.487 158.588C435.224 158.588 435.827 157.986 435.827 157.248V48.1291C435.827 47.3912 435.224 46.7888 434.487 46.7888C433.749 46.7888 433.146 47.3912 433.146 48.1291V157.248C433.146 157.986 433.749 158.588 434.487 158.588Z" fill="white"/>
<path d="M425.978 155.305C426.716 155.305 427.318 154.702 427.318 153.964V43.3249C427.318 42.587 426.716 41.9846 425.978 41.9846C425.24 41.9846 424.638 42.587 424.638 43.3249V153.964C424.638 154.702 425.24 155.305 425.978 155.305Z" fill="white"/>
</svg>
