<svg width="122" height="131" viewBox="0 0 122 131" fill="none" xmlns="http://www.w3.org/2000/svg">
<mask id="mask0_2065_985" style="mask-type:alpha" maskUnits="userSpaceOnUse" x="0" y="0" width="122" height="131">
<rect width="122" height="131" fill="#D9D9D9"/>
</mask>
<g mask="url(#mask0_2065_985)">
<path d="M119.533 130.046C120.212 130.046 120.766 129.652 120.766 129.168V4.87834C120.766 4.39476 120.212 4 119.533 4C118.854 4 118.3 4.39476 118.3 4.87834V129.168C118.3 129.652 118.854 130.046 119.533 130.046Z" fill="#CCCAC0"/>
<path d="M111.718 129.05C112.397 129.05 112.951 128.655 112.951 128.171V5.61857C112.951 5.13499 112.397 4.74023 111.718 4.74023C111.039 4.74023 110.485 5.13499 110.485 5.61857V128.171C110.485 128.655 111.039 129.05 111.718 129.05Z" fill="#CCCAC0"/>
<path d="M103.889 127.737C104.568 127.737 105.122 127.342 105.122 126.859V7.26652C105.122 6.78294 104.568 6.38818 103.889 6.38818C103.21 6.38818 102.655 6.78294 102.655 7.26652V126.859C102.655 127.342 103.21 127.737 103.889 127.737Z" fill="#CCCAC0"/>
<path d="M96.0732 126.079C96.7522 126.079 97.3065 125.684 97.3065 125.201V9.87199C97.3065 9.38841 96.7522 8.99365 96.0732 8.99365C95.3942 8.99365 94.84 9.38841 94.84 9.87199V125.201C94.84 125.684 95.3942 126.079 96.0732 126.079Z" fill="#CCCAC0"/>
<path d="M88.258 124.056C88.937 124.056 89.4912 123.661 89.4912 123.178V13.4941C89.4912 13.0105 88.937 12.6157 88.258 12.6157C87.579 12.6157 87.0247 13.0105 87.0247 13.4941V123.178C87.0247 123.661 87.579 124.056 88.258 124.056Z" fill="#CCCAC0"/>
<path d="M80.4287 121.629C81.1077 121.629 81.662 121.234 81.662 120.75V18.1327C81.662 17.6492 81.1077 17.2544 80.4287 17.2544C79.7497 17.2544 79.1954 17.6492 79.1954 18.1327V120.75C79.1954 121.234 79.7497 121.629 80.4287 121.629Z" fill="#CCCAC0"/>
<path d="M72.6132 118.806C73.2922 118.806 73.8465 118.411 73.8465 117.927V23.748C73.8465 23.2644 73.2922 22.8696 72.6132 22.8696C71.9342 22.8696 71.38 23.2644 71.38 23.748V117.918C71.38 118.401 71.9342 118.796 72.6132 118.796" fill="#CCCAC0"/>
<path d="M64.7979 115.569C65.4769 115.569 66.0311 115.174 66.0311 114.69V30.2416C66.0311 29.758 65.4769 29.3633 64.7979 29.3633C64.1189 29.3633 63.5646 29.758 63.5646 30.2416V114.69C63.5646 115.174 64.1189 115.569 64.7979 115.569Z" fill="#CCCAC0"/>
<path d="M56.9687 111.977C57.6476 111.977 58.2019 111.582 58.2019 111.098V37.4067C58.2019 36.9231 57.6476 36.5283 56.9687 36.5283C56.2897 36.5283 55.7354 36.9231 55.7354 37.4067V111.098C55.7354 111.582 56.2897 111.977 56.9687 111.977Z" fill="#CCCAC0"/>
<path d="M49.1533 108.068C49.8323 108.068 50.3866 107.673 50.3866 107.19V44.9462C50.3866 44.4626 49.8323 44.0679 49.1533 44.0679C48.4743 44.0679 47.92 44.4626 47.92 44.9462V107.19C47.92 107.673 48.4743 108.068 49.1533 108.068Z" fill="#CCCAC0"/>
<path d="M41.3378 103.952C42.0168 103.952 42.5711 103.558 42.5711 103.074V52.4955C42.5711 52.0119 42.0168 51.6172 41.3378 51.6172C40.6588 51.6172 40.1046 52.0119 40.1046 52.4955V103.074C40.1046 103.558 40.6588 103.952 41.3378 103.952Z" fill="#CCCAC0"/>
<path d="M33.5087 99.7287C34.1877 99.7287 34.742 99.334 34.742 98.8504V59.6903C34.742 59.2068 34.1877 58.812 33.5087 58.812C32.8297 58.812 32.2754 59.2068 32.2754 59.6903V98.8504C32.2754 99.334 32.8297 99.7287 33.5087 99.7287Z" fill="#CCCAC0"/>
<path d="M25.6933 95.5248C26.3723 95.5248 26.9266 95.1301 26.9266 94.6465V66.1943C26.9266 65.7107 26.3723 65.3159 25.6933 65.3159C25.0143 65.3159 24.46 65.7107 24.46 66.1943V94.6465C24.46 95.1301 25.0143 95.5248 25.6933 95.5248Z" fill="#CCCAC0"/>
<path d="M17.8779 91.4493C18.5569 91.4493 19.1112 91.0546 19.1112 90.571V71.7509C19.1112 71.2673 18.5569 70.8726 17.8779 70.8726C17.1989 70.8726 16.6447 71.2673 16.6447 71.7509V90.571C16.6447 91.0546 17.1989 91.4493 17.8779 91.4493Z" fill="#CCCAC0"/>
<path d="M10.0487 87.5901C10.7277 87.5901 11.282 87.1953 11.282 86.7117V76.2309C11.282 75.7473 10.7277 75.3525 10.0487 75.3525C9.36973 75.3525 8.81543 75.7473 8.81543 76.2309V86.7117C8.81543 87.1953 9.36973 87.5901 10.0487 87.5901Z" fill="#CCCAC0"/>
<path d="M2.2333 84.0075C2.91229 84.0075 3.4666 83.6127 3.4666 83.1291V79.5566C3.4666 79.073 2.91229 78.6782 2.2333 78.6782C1.5543 78.6782 1 79.073 1 79.5566V83.1291C1 83.6127 1.5543 84.0075 2.2333 84.0075Z" fill="#CCCAC0"/>
</g>
</svg>
