<svg width="388" height="176" viewBox="0 0 388 176" fill="none" xmlns="http://www.w3.org/2000/svg">
<mask id="mask0_2020_620" style="mask-type:alpha" maskUnits="userSpaceOnUse" x="0" y="0" width="388" height="176">
<rect width="388" height="176" fill="#D9D9D9"/>
</mask>
<g mask="url(#mask0_2020_620)">
<mask id="mask1_2020_620" style="mask-type:luminance" maskUnits="userSpaceOnUse" x="-230" y="-28" width="613" height="205">
<path d="M-229 -27H382V176H-229V-27Z" fill="white" stroke="white" stroke-width="0.5"/>
</mask>
<g mask="url(#mask1_2020_620)">
<mask id="mask2_2020_620" style="mask-type:luminance" maskUnits="userSpaceOnUse" x="-230" y="-28" width="613" height="205">
<path d="M-229 -27H382V176H-229V-27Z" fill="white" stroke="white" stroke-width="0.5"/>
</mask>
<g mask="url(#mask2_2020_620)">
<path d="M3.84575 13.8314C3.32946 13.8314 2.90799 14.2523 2.90799 14.7678V63.9949C2.90799 64.5104 3.32946 64.9312 3.84575 64.9312C4.36204 64.9312 4.78348 64.5104 4.78348 63.9949V14.7678C4.78348 14.2523 4.36204 13.8314 3.84575 13.8314Z" fill="#B51E84"/>
<path d="M9.78828 17.1771C9.27199 17.1771 8.85055 17.598 8.85055 18.1135V67.8245C8.85055 68.3401 9.27199 68.7609 9.78828 68.7609C10.3046 68.7609 10.726 68.3401 10.726 67.8245V18.1135C10.726 17.598 10.3046 17.1771 9.78828 17.1771Z" fill="#B51E84"/>
<path d="M15.7309 19.1129C15.2146 19.1129 14.7931 19.5337 14.7931 20.0493V71.2227C14.7931 71.7383 15.2146 72.1591 15.7309 72.1591C16.2472 72.1591 16.6686 71.7383 16.6686 71.2227V20.0493C16.6686 19.5337 16.2472 19.1129 15.7309 19.1129Z" fill="#B51E84"/>
<path d="M21.6839 19.7653C21.1677 19.7653 20.7462 20.1861 20.7462 20.7016V74.0634C20.7462 74.5895 21.1677 75.0103 21.6839 75.0103C22.2002 75.0103 22.6217 74.5895 22.6217 74.0634V20.7016C22.6217 20.1861 22.2002 19.7653 21.6839 19.7653Z" fill="#B51E84"/>
<path d="M27.6266 19.5969C27.1103 19.5969 26.6888 20.0178 26.6888 20.5333V76.3254C26.6888 76.8409 27.1103 77.2618 27.6266 77.2618C28.1429 77.2618 28.5643 76.8409 28.5643 76.3254V20.5333C28.5643 20.0178 28.1429 19.5969 27.6266 19.5969Z" fill="#B51E84"/>
<path d="M33.5691 18.9131C33.0528 18.9131 32.6314 19.3339 32.6314 19.8494V78.0193C32.6314 78.5348 33.0528 78.9556 33.5691 78.9556C34.0854 78.9556 34.5069 78.5348 34.5069 78.0193V19.8494C34.5069 19.3339 34.0854 18.9131 33.5691 18.9131Z" fill="#B51E84"/>
<path d="M39.5223 17.4401C39.006 17.4401 38.5845 17.8609 38.5845 18.3764V79.1765C38.5845 79.692 39.006 80.1128 39.5223 80.1128C40.0385 80.1128 40.46 79.692 40.46 79.1765V18.3764C40.46 17.8609 40.0385 17.4401 39.5223 17.4401Z" fill="#B51E84"/>
<path d="M45.4648 14.8204C44.9485 14.8204 44.5271 15.2413 44.5271 15.7568V79.8288C44.5271 80.3444 44.9485 80.7652 45.4648 80.7652C45.9811 80.7652 46.4026 80.3444 46.4026 79.8288V15.7568C46.4026 15.2413 45.9811 14.8204 45.4648 14.8204Z" fill="#B51E84"/>
<path d="M51.4074 11.2013C50.8911 11.2013 50.4696 11.6221 50.4696 12.1376V80.0498C50.4696 80.5653 50.8911 80.9862 51.4074 80.9862C51.9237 80.9862 52.3557 80.5653 52.3557 80.0498V12.1376C52.3557 11.6221 51.9342 11.2013 51.4074 11.2013Z" fill="#B51E84"/>
<path d="M57.3605 8.03442C56.8442 8.03442 56.4228 8.45526 56.4228 8.97078V79.9129C56.4228 80.4285 56.8442 80.8493 57.3605 80.8493C57.8768 80.8493 58.2982 80.4285 58.2982 79.9129V8.97078C58.2982 8.45526 57.8768 8.03442 57.3605 8.03442Z" fill="#B51E84"/>
<path d="M63.3031 6.09863C62.7868 6.09863 62.3654 6.51947 62.3654 7.03499V79.4396C62.3654 79.9551 62.7868 80.3759 63.3031 80.3759C63.8194 80.3759 64.2408 79.9551 64.2408 79.4396V7.03499C64.2408 6.51947 63.8194 6.09863 63.3031 6.09863Z" fill="#B51E84"/>
<path d="M69.2457 5.09912C68.7294 5.09912 68.3079 5.51995 68.3079 6.03548V78.4926C68.3079 79.0082 68.7294 79.429 69.2457 79.429C69.762 79.429 70.1834 79.0082 70.1834 78.4926V6.046C70.1834 5.53048 69.762 5.10964 69.2457 5.10964" fill="#B51E84"/>
<path d="M75.1988 4.72034C74.6825 4.72034 74.261 5.14117 74.261 5.65669V76.8934C74.261 77.4195 74.6825 77.8298 75.1988 77.8298C75.7151 77.8298 76.1365 77.409 76.1365 76.8934V5.66721C76.1365 5.15169 75.7151 4.73086 75.1988 4.73086" fill="#B51E84"/>
<path d="M81.1413 4.92029C80.6251 4.92029 80.2036 5.34112 80.2036 5.86717V74.3475C80.2036 74.863 80.6251 75.2838 81.1413 75.2838C81.6576 75.2838 82.0791 74.863 82.0791 74.3475V5.86717C82.0791 5.35164 81.6576 4.92029 81.1413 4.92029Z" fill="#B51E84"/>
<path d="M87.0839 6.21436C86.5676 6.21436 86.1461 6.63519 86.1461 7.15071V70.4442C86.1461 70.9597 86.5676 71.3806 87.0839 71.3806C87.6002 71.3806 88.0216 70.9597 88.0216 70.4442V7.15071C88.0216 6.63519 87.6002 6.21436 87.0839 6.21436Z" fill="#B51E84"/>
<path d="M93.037 8.79199C92.5208 8.79199 92.0993 9.21283 92.0993 9.72835V65.1628C92.0993 65.6783 92.5208 66.0991 93.037 66.0991C93.5533 66.0991 93.9853 65.6783 93.9853 65.1628V9.72835C93.9853 9.21283 93.5639 8.79199 93.037 8.79199Z" fill="#B51E84"/>
<path d="M98.9796 12.8004C98.4633 12.8004 98.0419 13.2212 98.0419 13.7368V59.3763C98.0419 59.8918 98.4633 60.3126 98.9796 60.3126C99.4959 60.3126 99.9174 59.8918 99.9174 59.3763V13.7368C99.9174 13.2212 99.4959 12.8004 98.9796 12.8004Z" fill="#B51E84"/>
<path d="M104.922 18.366C104.406 18.366 103.984 18.7868 103.984 19.3023V54.1369C103.984 54.6524 104.406 55.0733 104.922 55.0733C105.438 55.0733 105.86 54.6524 105.86 54.1369V19.3023C105.86 18.7868 105.438 18.366 104.922 18.366Z" fill="#B51E84"/>
<path d="M110.875 25.5938C110.359 25.5938 109.938 26.0146 109.938 26.5301V49.7917C109.938 50.3072 110.359 50.7281 110.875 50.7281C111.392 50.7281 111.813 50.3072 111.813 49.7917V26.5301C111.813 26.0146 111.392 25.5938 110.875 25.5938Z" fill="#B51E84"/>
<path d="M116.818 34.3682C116.302 34.3682 115.88 34.789 115.88 35.315V46.2146C115.88 46.7302 116.302 47.151 116.818 47.151C117.334 47.151 117.766 46.7302 117.766 46.2146V35.315C117.766 34.7995 117.345 34.3682 116.818 34.3682Z" fill="#B51E84"/>
<g opacity="0.35">
<mask id="mask3_2020_620" style="mask-type:luminance" maskUnits="userSpaceOnUse" x="-162" y="-16" width="607" height="194">
<path d="M-160.871 -14.922H444.387V177.052H-160.871V-14.922Z" fill="white" stroke="white" stroke-width="0.5"/>
</mask>
<g mask="url(#mask3_2020_620)">
<path d="M89.6969 128.593C89.1807 128.593 88.7592 128.172 88.7592 127.657V49.6656C88.7592 49.1501 89.1807 48.7292 89.6969 48.7292C90.2132 48.7292 90.6347 49.1501 90.6347 49.6656V127.657C90.6347 128.172 90.2132 128.593 89.6969 128.593Z" fill="white" stroke="white" stroke-width="0.5"/>
<path d="M95.6395 127.078C95.1232 127.078 94.7017 126.657 94.7017 126.142V47.7928C94.7017 47.2773 95.1232 46.8564 95.6395 46.8564C96.1558 46.8564 96.5772 47.2773 96.5772 47.7928V126.142C96.5772 126.657 96.1558 127.078 95.6395 127.078Z" fill="white" stroke="white" stroke-width="0.5"/>
<path d="M101.593 125.91C101.076 125.91 100.655 125.489 100.655 124.974V46.5935C100.655 46.0779 101.076 45.6571 101.593 45.6571C102.109 45.6571 102.53 46.0779 102.53 46.5935V124.974C102.53 125.489 102.109 125.91 101.593 125.91Z" fill="white" stroke="white" stroke-width="0.5"/>
<path d="M107.535 125.048C107.019 125.048 106.597 124.627 106.597 124.111V45.9727C106.597 45.4572 107.019 45.0364 107.535 45.0364C108.052 45.0364 108.473 45.4572 108.473 45.9727V124.111C108.473 124.627 108.052 125.048 107.535 125.048Z" fill="white" stroke="white" stroke-width="0.5"/>
<path d="M113.478 124.479C112.961 124.479 112.54 124.058 112.54 123.543V45.8885C112.54 45.373 112.961 44.9521 113.478 44.9521C113.994 44.9521 114.416 45.373 114.416 45.8885V123.543C114.416 124.058 113.994 124.479 113.478 124.479Z" fill="white" stroke="white" stroke-width="0.5"/>
<path d="M119.431 124.164C118.915 124.164 118.493 123.743 118.493 123.227V46.2989C118.493 45.7834 118.915 45.3625 119.431 45.3625C119.947 45.3625 120.369 45.7834 120.369 46.2989V123.227C120.369 123.743 119.947 124.164 119.431 124.164Z" fill="white" stroke="white" stroke-width="0.5"/>
<path d="M125.373 124.08C124.857 124.08 124.436 123.659 124.436 123.143V47.3299C124.436 46.8144 124.857 46.3936 125.373 46.3936C125.89 46.3936 126.311 46.8144 126.311 47.3299V123.143C126.311 123.659 125.89 124.08 125.373 124.08Z" fill="white" stroke="white" stroke-width="0.5"/>
<path d="M131.316 124.164C130.8 124.164 130.378 123.743 130.378 123.227V49.1185C130.378 48.603 130.8 48.1821 131.316 48.1821C131.832 48.1821 132.254 48.603 132.254 49.1185V123.227C132.254 123.743 131.832 124.164 131.316 124.164Z" fill="white" stroke="white" stroke-width="0.5"/>
<path d="M137.269 124.406C136.753 124.406 136.331 123.985 136.331 123.469V51.8433C136.331 51.3278 136.753 50.907 137.269 50.907C137.785 50.907 138.207 51.3278 138.207 51.8433V123.469C138.207 123.985 137.785 124.406 137.269 124.406Z" fill="white" stroke="white" stroke-width="0.5"/>
<path d="M143.212 124.827C142.695 124.827 142.274 124.406 142.274 123.89V55.7045C142.274 55.189 142.695 54.7682 143.212 54.7682C143.728 54.7682 144.149 55.189 144.149 55.7045V123.89C144.149 124.406 143.728 124.827 143.212 124.827Z" fill="white" stroke="white" stroke-width="0.5"/>
<path d="M149.154 125.447C148.638 125.447 148.217 125.026 148.217 124.511V60.7966C148.217 60.2811 148.638 59.8602 149.154 59.8602C149.671 59.8602 150.092 60.2811 150.092 60.7966V124.511C150.092 125.026 149.671 125.447 149.154 125.447Z" fill="white" stroke="white" stroke-width="0.5"/>
<path d="M155.107 126.289C154.591 126.289 154.17 125.868 154.17 125.353V66.9198C154.17 66.4042 154.591 65.9834 155.107 65.9834C155.624 65.9834 156.045 66.4042 156.045 66.9198V125.353C156.045 125.868 155.624 126.289 155.107 126.289Z" fill="white" stroke="white" stroke-width="0.5"/>
<path d="M161.05 127.394C160.534 127.394 160.112 126.973 160.112 126.457V73.3901C160.112 72.8746 160.534 72.4537 161.05 72.4537C161.566 72.4537 161.988 72.8746 161.988 73.3901V126.457C161.988 126.973 161.566 127.394 161.05 127.394Z" fill="white" stroke="white" stroke-width="0.5"/>
<path d="M166.993 128.772C166.476 128.772 166.055 128.351 166.055 127.836V79.2923C166.055 78.7768 166.476 78.356 166.993 78.356C167.509 78.356 167.93 78.7768 167.93 79.2923V127.836C167.93 128.351 167.509 128.772 166.993 128.772Z" fill="white" stroke="white" stroke-width="0.5"/>
<path d="M172.946 130.476C172.429 130.476 172.008 130.055 172.008 129.54V84.0688C172.008 83.5533 172.429 83.1324 172.946 83.1324C173.462 83.1324 173.883 83.5533 173.883 84.0688V129.54C173.883 130.055 173.462 130.476 172.946 130.476Z" fill="white" stroke="white" stroke-width="0.5"/>
<path d="M178.888 132.507C178.372 132.507 177.951 132.086 177.951 131.57V87.6143C177.951 87.0988 178.372 86.678 178.888 86.678C179.405 86.678 179.826 87.0988 179.826 87.6143V131.57C179.826 132.086 179.405 132.507 178.888 132.507Z" fill="white" stroke="white" stroke-width="0.5"/>
<path d="M184.831 134.864C184.315 134.864 183.893 134.443 183.893 133.927V90.0972C183.893 89.5817 184.315 89.1609 184.831 89.1609C185.347 89.1609 185.769 89.5817 185.769 90.0972V133.927C185.769 134.443 185.347 134.864 184.831 134.864Z" fill="white" stroke="white" stroke-width="0.5"/>
<path d="M190.784 137.494C190.268 137.494 189.846 137.073 189.846 136.557V91.6859C189.846 91.1703 190.268 90.7495 190.784 90.7495C191.3 90.7495 191.722 91.1703 191.722 91.6859V136.557C191.722 137.073 191.3 137.494 190.784 137.494Z" fill="white" stroke="white" stroke-width="0.5"/>
<path d="M196.727 140.282C196.21 140.282 195.789 139.861 195.789 139.345V92.5275C195.789 92.012 196.21 91.5912 196.727 91.5912C197.243 91.5912 197.664 92.012 197.664 92.5275V139.345C197.664 139.861 197.243 140.282 196.727 140.282Z" fill="white" stroke="white" stroke-width="0.5"/>
<path d="M202.669 143.122C202.153 143.122 201.731 142.701 201.731 142.186V92.8221C201.731 92.3066 202.153 91.8857 202.669 91.8857C203.185 91.8857 203.607 92.3066 203.607 92.8221V142.186C203.607 142.701 203.185 143.122 202.669 143.122Z" fill="white" stroke="white" stroke-width="0.5"/>
<path d="M208.622 145.837C208.106 145.837 207.684 145.416 207.684 144.9V92.4644C207.684 91.9489 208.106 91.5281 208.622 91.5281C209.138 91.5281 209.56 91.9489 209.56 92.4644V144.9C209.56 145.416 209.138 145.837 208.622 145.837Z" fill="white" stroke="white" stroke-width="0.5"/>
<path d="M214.565 148.32C214.048 148.32 213.627 147.899 213.627 147.383V91.265C213.627 90.7495 214.048 90.3286 214.565 90.3286C215.081 90.3286 215.503 90.7495 215.503 91.265V147.383C215.503 147.899 215.081 148.32 214.565 148.32Z" fill="white" stroke="white" stroke-width="0.5"/>
<path d="M220.507 150.487C219.991 150.487 219.57 150.066 219.57 149.551V88.9294C219.57 88.4139 219.991 87.993 220.507 87.993C221.024 87.993 221.445 88.4139 221.445 88.9294V149.551C221.445 150.066 221.024 150.487 220.507 150.487Z" fill="white" stroke="white" stroke-width="0.5"/>
<path d="M226.46 152.339C225.944 152.339 225.523 151.918 225.523 151.402V85.1419C225.523 84.6264 225.944 84.2056 226.46 84.2056C226.977 84.2056 227.398 84.6264 227.398 85.1419V151.402C227.398 151.918 226.977 152.339 226.46 152.339Z" fill="white" stroke="white" stroke-width="0.5"/>
<path d="M232.403 153.854C231.887 153.854 231.465 153.433 231.465 152.917V79.4606C231.465 78.9451 231.887 78.5243 232.403 78.5243C232.919 78.5243 233.341 78.9451 233.341 79.4606V152.917C233.341 153.433 232.919 153.854 232.403 153.854Z" fill="white" stroke="white" stroke-width="0.5"/>
<path d="M238.346 155.085C237.829 155.085 237.408 154.664 237.408 154.148V71.5069C237.408 70.9914 237.829 70.5706 238.346 70.5706C238.862 70.5706 239.283 70.9914 239.283 71.5069V154.148C239.283 154.664 238.862 155.085 238.346 155.085Z" fill="white" stroke="white" stroke-width="0.5"/>
<path d="M244.299 156.031C243.782 156.031 243.361 155.611 243.361 155.095V61.4068C243.361 60.8913 243.782 60.4705 244.299 60.4705C244.815 60.4705 245.236 60.8913 245.236 61.4068V155.095C245.236 155.611 244.815 156.031 244.299 156.031Z" fill="white" stroke="white" stroke-width="0.5"/>
<path d="M250.241 156.747C249.725 156.747 249.304 156.326 249.304 155.81V50.6124C249.304 50.0969 249.725 49.676 250.241 49.676C250.758 49.676 251.179 50.0969 251.179 50.6124V155.81C251.179 156.326 250.758 156.747 250.241 156.747Z" fill="white" stroke="white" stroke-width="0.5"/>
<path d="M256.184 157.252C255.668 157.252 255.246 156.831 255.246 156.315V41.1541C255.246 40.6386 255.668 40.2178 256.184 40.2178C256.7 40.2178 257.122 40.6386 257.122 41.1541V156.315C257.122 156.831 256.7 157.252 256.184 157.252Z" fill="white" stroke="white" stroke-width="0.5"/>
<path d="M262.137 157.567C261.621 157.567 261.199 157.147 261.199 156.631V33.979C261.199 33.4634 261.621 33.0426 262.137 33.0426C262.653 33.0426 263.075 33.4634 263.075 33.979V156.631C263.075 157.147 262.653 157.567 262.137 157.567Z" fill="white" stroke="white" stroke-width="0.5"/>
<path d="M268.08 157.725C267.563 157.725 267.142 157.304 267.142 156.789V28.992C267.142 28.4765 267.563 28.0557 268.08 28.0557C268.596 28.0557 269.017 28.4765 269.017 28.992V156.789C269.017 157.304 268.596 157.725 268.08 157.725Z" fill="white" stroke="white" stroke-width="0.5"/>
<path d="M274.022 157.725C273.506 157.725 273.084 157.304 273.084 156.789V25.7305C273.084 25.215 273.506 24.7942 274.022 24.7942C274.538 24.7942 274.96 25.215 274.96 25.7305V156.789C274.96 157.304 274.538 157.725 274.022 157.725Z" fill="white" stroke="white" stroke-width="0.5"/>
<path d="M279.975 157.504C279.459 157.504 279.038 157.083 279.038 156.568V23.8158C279.038 23.3002 279.459 22.8794 279.975 22.8794C280.492 22.8794 280.913 23.3002 280.913 23.8158V156.557C280.913 157.073 280.492 157.494 279.975 157.494" fill="white"/>
<path d="M279.975 157.504C279.459 157.504 279.038 157.083 279.038 156.568V23.8158C279.038 23.3002 279.459 22.8794 279.975 22.8794C280.492 22.8794 280.913 23.3002 280.913 23.8158V156.557C280.913 157.073 280.492 157.494 279.975 157.494" stroke="white" stroke-width="0.5"/>
<path d="M285.918 157.031C285.402 157.031 284.98 156.61 284.98 156.095V22.9216C284.98 22.4061 285.402 21.9852 285.918 21.9852C286.434 21.9852 286.856 22.4061 286.856 22.9216V156.095C286.856 156.61 286.434 157.031 285.918 157.031Z" fill="white" stroke="white" stroke-width="0.5"/>
<path d="M291.871 156.284C291.355 156.284 290.933 155.863 290.933 155.348V22.8374C290.933 22.3218 291.355 21.901 291.871 21.901C292.387 21.901 292.809 22.3218 292.809 22.8374V155.337C292.809 155.853 292.387 156.273 291.871 156.273" fill="white"/>
<path d="M291.871 156.284C291.355 156.284 290.933 155.863 290.933 155.348V22.8374C290.933 22.3218 291.355 21.901 291.871 21.901C292.387 21.901 292.809 22.3218 292.809 22.8374V155.337C292.809 155.853 292.387 156.273 291.871 156.273" stroke="white" stroke-width="0.5"/>
<path d="M297.814 155.221C297.297 155.221 296.876 154.8 296.876 154.285V23.6369C296.876 23.1214 297.297 22.7006 297.814 22.7006C298.33 22.7006 298.751 23.1214 298.751 23.6369V154.285C298.751 154.8 298.33 155.221 297.814 155.221Z" fill="white" stroke="white" stroke-width="0.5"/>
<path d="M303.756 153.822C303.24 153.822 302.818 153.401 302.818 152.886V25.3939C302.818 24.8784 303.24 24.4575 303.756 24.4575C304.272 24.4575 304.694 24.8784 304.694 25.3939V152.875C304.694 153.391 304.272 153.811 303.756 153.811" fill="white"/>
<path d="M303.756 153.822C303.24 153.822 302.818 153.401 302.818 152.886V25.3939C302.818 24.8784 303.24 24.4575 303.756 24.4575C304.272 24.4575 304.694 24.8784 304.694 25.3939V152.875C304.694 153.391 304.272 153.811 303.756 153.811" stroke="white" stroke-width="0.5"/>
<path d="M309.709 152.055C309.193 152.055 308.771 151.634 308.771 151.118V28.1715C308.771 27.6559 309.193 27.2351 309.709 27.2351C310.225 27.2351 310.647 27.6559 310.647 28.1715V151.118C310.647 151.634 310.225 152.055 309.709 152.055Z" fill="white" stroke="white" stroke-width="0.5"/>
<path d="M315.652 149.898C315.136 149.898 314.714 149.477 314.714 148.961V32.0325C314.714 31.517 315.136 31.0962 315.652 31.0962C316.168 31.0962 316.59 31.517 316.59 32.0325V148.961C316.59 149.477 316.168 149.898 315.652 149.898Z" fill="white" stroke="white" stroke-width="0.5"/>
<path d="M321.594 147.31C321.078 147.31 320.657 146.889 320.657 146.373V36.9774C320.657 36.4619 321.078 36.041 321.594 36.041C322.111 36.041 322.532 36.4619 322.532 36.9774V146.373C322.532 146.889 322.111 147.31 321.594 147.31Z" fill="white" stroke="white" stroke-width="0.5"/>
<path d="M327.547 144.301C327.031 144.301 326.61 143.88 326.61 143.364V42.9743C326.61 42.4588 327.031 42.038 327.547 42.038C328.064 42.038 328.485 42.4588 328.485 42.9743V143.364C328.485 143.88 328.064 144.301 327.547 144.301Z" fill="white" stroke="white" stroke-width="0.5"/>
<path d="M333.49 140.85C332.974 140.85 332.552 140.429 332.552 139.914V49.8866C332.552 49.371 332.974 48.9502 333.49 48.9502C334.006 48.9502 334.428 49.371 334.428 49.8866V139.914C334.428 140.429 334.006 140.85 333.49 140.85Z" fill="white" stroke="white" stroke-width="0.5"/>
<path d="M339.433 137.02C338.916 137.02 338.495 136.599 338.495 136.084V57.5246C338.495 57.0091 338.916 56.5883 339.433 56.5883C339.949 56.5883 340.37 57.0091 340.37 57.5246V136.084C340.37 136.599 339.949 137.02 339.433 137.02Z" fill="white" stroke="white" stroke-width="0.5"/>
<path d="M345.386 132.854C344.869 132.854 344.448 132.433 344.448 131.918V65.5521C344.448 65.0366 344.869 64.6157 345.386 64.6157C345.902 64.6157 346.323 65.0366 346.323 65.5521V131.918C346.323 132.433 345.902 132.854 345.386 132.854Z" fill="white" stroke="white" stroke-width="0.5"/>
<path d="M351.328 128.467C350.812 128.467 350.391 128.046 350.391 127.53V73.611C350.391 73.0955 350.812 72.6747 351.328 72.6747C351.845 72.6747 352.266 73.0955 352.266 73.611V127.53C352.266 128.046 351.845 128.467 351.328 128.467Z" fill="white" stroke="white" stroke-width="0.5"/>
<path d="M357.271 123.964C356.755 123.964 356.333 123.543 356.333 123.028V81.2807C356.333 80.7652 356.755 80.3444 357.271 80.3444C357.787 80.3444 358.209 80.7652 358.209 81.2807V123.028C358.209 123.543 357.787 123.964 357.271 123.964Z" fill="white" stroke="white" stroke-width="0.5"/>
<path d="M363.224 119.482C362.708 119.482 362.286 119.061 362.286 118.546V88.2034C362.286 87.6879 362.708 87.2671 363.224 87.2671C363.74 87.2671 364.162 87.6879 364.162 88.2034V118.546C364.162 119.061 363.74 119.482 363.224 119.482Z" fill="white" stroke="white" stroke-width="0.5"/>
<path d="M369.167 115.137C368.65 115.137 368.229 114.716 368.229 114.201V94.1373C368.229 93.6218 368.65 93.2009 369.167 93.2009C369.683 93.2009 370.104 93.6218 370.104 94.1373V114.201C370.104 114.716 369.683 115.137 369.167 115.137Z" fill="white" stroke="white" stroke-width="0.5"/>
<path d="M375.109 111.023C374.593 111.023 374.171 110.602 374.171 110.087V98.9137C374.171 98.3981 374.593 97.9773 375.109 97.9773C375.625 97.9773 376.047 98.3981 376.047 98.9137V110.087C376.047 110.602 375.625 111.023 375.109 111.023Z" fill="white" stroke="white" stroke-width="0.5"/>
<path d="M381.062 107.204C380.546 107.204 380.125 106.783 380.125 106.268V102.47C380.125 101.954 380.546 101.533 381.062 101.533C381.579 101.533 382 101.944 382 102.459V106.257C382 106.773 381.579 107.194 381.062 107.194" fill="white"/>
<path d="M0.695264 172.812C0.178976 172.812 -0.242466 172.391 -0.242466 171.876V92.3276C-0.242466 91.8121 0.178976 91.3912 0.695264 91.3912C1.21155 91.3912 1.63303 91.8121 1.63303 92.3276V171.876C1.63303 172.391 1.21155 172.812 0.695264 172.812Z" fill="white" stroke="white" stroke-width="0.5"/>
<path d="M6.64842 171.255C6.13213 171.255 5.71066 170.834 5.71066 170.319V92.78C5.71066 92.2645 6.13213 91.8436 6.64842 91.8436C7.16471 91.8436 7.58615 92.2645 7.58615 92.78V170.319C7.58615 170.834 7.16471 171.255 6.64842 171.255Z" fill="white" stroke="white" stroke-width="0.5"/>
<path d="M12.591 169.309C12.0747 169.309 11.6532 168.888 11.6532 168.372V92.7275C11.6532 92.212 12.0747 91.7911 12.591 91.7911C13.1072 91.7911 13.5287 92.212 13.5287 92.7275V168.372C13.5287 168.888 13.1072 169.309 12.591 169.309Z" fill="white" stroke="white" stroke-width="0.5"/>
<path d="M18.5336 166.963C18.0173 166.963 17.5958 166.542 17.5958 166.026V92.1593C17.5958 91.6437 18.0173 91.2229 18.5336 91.2229C19.0499 91.2229 19.4713 91.6437 19.4713 92.1593V166.026C19.4713 166.542 19.0499 166.963 18.5336 166.963Z" fill="white" stroke="white" stroke-width="0.5"/>
<path d="M24.4867 164.196C23.9704 164.196 23.5489 163.775 23.5489 163.259V91.0125C23.5489 90.497 23.9704 90.0762 24.4867 90.0762C25.003 90.0762 25.4244 90.497 25.4244 91.0125V163.259C25.4244 163.775 25.003 164.196 24.4867 164.196Z" fill="white" stroke="white" stroke-width="0.5"/>
<path d="M30.4292 161.018C29.913 161.018 29.4915 160.598 29.4915 160.082V89.203C29.4915 88.6874 29.913 88.2666 30.4292 88.2666C30.9455 88.2666 31.367 88.6874 31.367 89.203V160.082C31.367 160.598 30.9455 161.018 30.4292 161.018Z" fill="white" stroke="white" stroke-width="0.5"/>
<path d="M36.3718 157.483C35.8555 157.483 35.434 157.063 35.434 156.547V86.6569C35.434 86.1414 35.8555 85.7206 36.3718 85.7206C36.8881 85.7206 37.3095 86.1414 37.3095 86.6569V156.547C37.3095 157.063 36.8881 157.483 36.3718 157.483Z" fill="white" stroke="white" stroke-width="0.5"/>
<path d="M42.3249 153.664C41.8086 153.664 41.3872 153.243 41.3872 152.728V83.3429C41.3872 82.8273 41.8086 82.4065 42.3249 82.4065C42.8412 82.4065 43.2627 82.8273 43.2627 83.3429V152.728C43.2627 153.243 42.8412 153.664 42.3249 153.664Z" fill="white" stroke="white" stroke-width="0.5"/>
<path d="M48.2675 149.708C47.7512 149.708 47.3298 149.288 47.3298 148.772V79.2607C47.3298 78.7452 47.7512 78.3243 48.2675 78.3243C48.7838 78.3243 49.2053 78.7452 49.2053 79.2607V148.772C49.2053 149.288 48.7838 149.708 48.2675 149.708Z" fill="white" stroke="white" stroke-width="0.5"/>
<path d="M54.2101 145.774C53.6938 145.774 53.2723 145.353 53.2723 144.837V74.5579C53.2723 74.0424 53.6938 73.6216 54.2101 73.6216C54.7264 73.6216 55.1478 74.0424 55.1478 74.5579V144.837C55.1478 145.353 54.7264 145.774 54.2101 145.774Z" fill="white" stroke="white" stroke-width="0.5"/>
<path d="M60.1632 141.997C59.6469 141.997 59.2254 141.576 59.2254 141.06V69.4763C59.2254 68.9608 59.6469 68.5399 60.1632 68.5399C60.6794 68.5399 61.1009 68.9608 61.1009 69.4763V141.06C61.1009 141.576 60.6794 141.997 60.1632 141.997Z" fill="white" stroke="white" stroke-width="0.5"/>
<path d="M66.1058 138.514C65.5895 138.514 65.168 138.093 65.168 137.578V64.3842C65.168 63.8687 65.5895 63.4479 66.1058 63.4479C66.622 63.4479 67.0435 63.8687 67.0435 64.3842V137.578C67.0435 138.093 66.622 138.514 66.1058 138.514Z" fill="white" stroke="white" stroke-width="0.5"/>
<path d="M72.0483 135.4C71.532 135.4 71.1106 134.979 71.1106 134.464V59.6394C71.1106 59.1238 71.532 58.703 72.0483 58.703C72.5646 58.703 72.9861 59.1238 72.9861 59.6394V134.464C72.9861 134.979 72.5646 135.4 72.0483 135.4Z" fill="white" stroke="white" stroke-width="0.5"/>
<path d="M78.0015 132.707C77.4852 132.707 77.0637 132.286 77.0637 131.77V55.5362C77.0637 55.0207 77.4852 54.5999 78.0015 54.5999C78.5178 54.5999 78.9392 55.0207 78.9392 55.5362V131.77C78.9392 132.286 78.5178 132.707 78.0015 132.707Z" fill="white" stroke="white" stroke-width="0.5"/>
<path d="M83.944 130.413C83.4278 130.413 83.0063 129.992 83.0063 129.477V52.1695C83.0063 51.654 83.4278 51.2332 83.944 51.2332C84.4603 51.2332 84.8818 51.654 84.8818 52.1695V129.477C84.8818 129.992 84.4603 130.413 83.944 130.413Z" fill="white" stroke="white" stroke-width="0.5"/>
</g>
</g>
</g>
</g>
</g>
</svg>
